STARTFONT 2.1
FONT -ADECW-Myungcho-Medium-R-Normal--16-160-75-75-M-160-KSC5601.1987-1
SIZE 16 75 75
FONTBOUNDINGBOX 16 16 0 -4

STARTPROPERTIES 26
FOUNDRY "ADECW"
FAMILY_NAME "Myungcho"
WEIGHT_NAME "Medium"
SLANT "R"
SETWIDTH_NAME "Normal"
ADD_STYLE_NAME ""
PIXEL_SIZE 16
POINT_SIZE 160
RESOLUTION_X 75
RESOLUTION_Y 75
SPACING "M"
AVERAGE_WIDTH 160
CHARSET_REGISTRY "KSC5601.1987"
CHARSET_ENCODING "1"
DEVICE_FONT_NAME "Myungcho-KSC5601.1987-1"
CHARSET_COLLECTIONS "KSC5601.1987 1"
FULL_NAME "Myungcho KSC5601.1987 1"
CAP_HEIGHT 11
X_HEIGHT 8
COPYRIGHT "Copyright (c) 1988, 1991 Digital Equitment Corporation Asia"
NOTICE ""
WEIGHT 10
QUAD_WIDTH 16
DEFAULT_CHAR 65278
FONT_DESCENT 4
FONT_ASCENT 12
ENDPROPERTIES

CHARS 8225

STARTCHAR A1A1
ENCODING 41377
SWIDTH 960 0
DWIDTH 16 0
BBX 16 16 0 -4
BITMAP
0000
0000
0000
0000
0000
0000
0000
0000
0000
0000
0000
0000
0000
0000
0000
0000
ENDCHAR

STARTCHAR A1A2
ENCODING 41378
SWIDTH 960 0
DWIDTH 16 0
BBX 16 16 0 -4
BITMAP
0000
0000
0020
0010
0018
000C
000C
0000
0000
0000
0000
0000
0000
0000
0000
0000
ENDCHAR

STARTCHAR A1A3
ENCODING 41379
SWIDTH 960 0
DWIDTH 16 0
BBX 16 16 0 -4
BITMAP
0000
0000
0018
0024
0024
0018
0000
0000
0000
0000
0000
0000
0000
0000
0000
0000
ENDCHAR

STARTCHAR A1A4
ENCODING 41380
SWIDTH 960 0
DWIDTH 16 0
BBX 16 16 0 -4
BITMAP
0000
0000
0000
0000
0000
0000
0000
0180
0180
0000
0000
0000
0000
0000
0000
0000
ENDCHAR

STARTCHAR A1A5
ENCODING 41381
SWIDTH 960 0
DWIDTH 16 0
BBX 16 16 0 -4
BITMAP
0000
0000
0000
0000
0000
0000
0000
0C30
0C30
0000
0000
0000
0000
0000
0000
0000
ENDCHAR

STARTCHAR A1A6
ENCODING 41382
SWIDTH 960 0
DWIDTH 16 0
BBX 16 16 0 -4
BITMAP
0000
0000
0000
0000
0000
0000
0000
318C
318C
0000
0000
0000
0000
0000
0000
0000
ENDCHAR

STARTCHAR A1A7
ENCODING 41383
SWIDTH 960 0
DWIDTH 16 0
BBX 16 16 0 -4
BITMAP
0000
0000
0C30
0C30
0000
0000
0000
0000
0000
0000
0000
0000
0000
0000
0000
0000
ENDCHAR

STARTCHAR A1A8
ENCODING 41384
SWIDTH 960 0
DWIDTH 16 0
BBX 16 16 0 -4
BITMAP
0000
0000
0000
0000
0000
0360
0240
0240
0240
0480
0480
0000
0000
0000
0000
0000
ENDCHAR

STARTCHAR A1A9
ENCODING 41385
SWIDTH 960 0
DWIDTH 16 0
BBX 16 16 0 -4
BITMAP
0000
0000
0000
0000
0000
0000
0000
0000
03C0
0000
0000
0000
0000
0000
0000
0000
ENDCHAR

STARTCHAR A1AA
ENCODING 41386
SWIDTH 960 0
DWIDTH 16 0
BBX 16 16 0 -4
BITMAP
0000
0000
0000
0000
0000
0000
0000
0000
3FFC
0000
0000
0000
0000
0000
0000
0000
ENDCHAR

STARTCHAR A1AB
ENCODING 41387
SWIDTH 960 0
DWIDTH 16 0
BBX 16 16 0 -4
BITMAP
0000
0000
0240
0240
0240
0240
0240
0240
0240
0240
0240
0240
0240
0240
0000
0000
ENDCHAR

STARTCHAR A1AC
ENCODING 41388
SWIDTH 960 0
DWIDTH 16 0
BBX 16 16 0 -4
BITMAP
0000
0000
0000
1000
0800
0400
0200
0100
0080
0040
0020
0010
0008
0000
0000
0000
ENDCHAR

STARTCHAR A1AD
ENCODING 41389
SWIDTH 960 0
DWIDTH 16 0
BBX 16 16 0 -4
BITMAP
0000
0000
0000
0000
0000
0000
0E04
1104
2088
2070
0000
0000
0000
0000
0000
0000
ENDCHAR

STARTCHAR A1AE
ENCODING 41390
SWIDTH 960 0
DWIDTH 16 0
BBX 16 16 0 -4
BITMAP
0000
0000
0004
0008
000C
000C
0000
0000
0000
0000
0000
0000
0000
0000
0000
0000
ENDCHAR

STARTCHAR A1AF
ENCODING 41391
SWIDTH 960 0
DWIDTH 16 0
BBX 16 16 0 -4
BITMAP
0000
0000
3000
3000
1000
2000
0000
0000
0000
0000
0000
0000
0000
0000
0000
0000
ENDCHAR

STARTCHAR A1B0
ENCODING 41392
SWIDTH 960 0
DWIDTH 16 0
BBX 16 16 0 -4
BITMAP
0000
0000
0024
0048
006C
006C
0000
0000
0000
0000
0000
0000
0000
0000
0000
0000
ENDCHAR

STARTCHAR A1B1
ENCODING 41393
SWIDTH 960 0
DWIDTH 16 0
BBX 16 16 0 -4
BITMAP
0000
0000
3600
3600
1200
2400
0000
0000
0000
0000
0000
0000
0000
0000
0000
0000
ENDCHAR

STARTCHAR A1B2
ENCODING 41394
SWIDTH 960 0
DWIDTH 16 0
BBX 16 16 0 -4
BITMAP
0000
000C
0030
0020
0020
0020
0020
0020
0020
0020
0020
0020
0020
0030
000C
0000
ENDCHAR

STARTCHAR A1B3
ENCODING 41395
SWIDTH 960 0
DWIDTH 16 0
BBX 16 16 0 -4
BITMAP
0000
3000
0C00
0400
0400
0400
0400
0400
0400
0400
0400
0400
0400
0C00
3000
0000
ENDCHAR

STARTCHAR A1B4
ENCODING 41396
SWIDTH 960 0
DWIDTH 16 0
BBX 16 16 0 -4
BITMAP
0000
0004
0004
0008
0010
0010
0020
0040
0040
0020
0010
0010
0008
0004
0004
0000
ENDCHAR

STARTCHAR A1B5
ENCODING 41397
SWIDTH 960 0
DWIDTH 16 0
BBX 16 16 0 -4
BITMAP
0000
2000
2000
1000
0800
0800
0400
0200
0200
0400
0800
0800
1000
2000
2000
0000
ENDCHAR

STARTCHAR A1B6
ENCODING 41398
SWIDTH 960 0
DWIDTH 16 0
BBX 16 16 0 -4
BITMAP
0000
0024
0024
0048
0048
0090
0090
0120
0120
0090
0090
0048
0048
0024
0024
0000
ENDCHAR

STARTCHAR A1B7
ENCODING 41399
SWIDTH 960 0
DWIDTH 16 0
BBX 16 16 0 -4
BITMAP
0000
2400
2400
1200
1200
0900
0900
0480
0480
0900
0900
1200
1200
2400
2400
0000
ENDCHAR

STARTCHAR A1B8
ENCODING 41400
SWIDTH 960 0
DWIDTH 16 0
BBX 16 16 0 -4
BITMAP
0000
003C
0020
0020
0020
0020
0020
0020
0020
0020
0020
0000
0000
0000
0000
0000
ENDCHAR

STARTCHAR A1B9
ENCODING 41401
SWIDTH 960 0
DWIDTH 16 0
BBX 16 16 0 -4
BITMAP
0000
0000
0000
0000
0000
0400
0400
0400
0400
0400
0400
0400
0400
0400
3C00
0000
ENDCHAR

STARTCHAR A1BA
ENCODING 41402
SWIDTH 960 0
DWIDTH 16 0
BBX 16 16 0 -4
BITMAP
0000
007C
0044
005C
0050
0050
0050
0050
0050
0070
0000
0000
0000
0000
0000
0000
ENDCHAR

STARTCHAR A1BB
ENCODING 41403
SWIDTH 960 0
DWIDTH 16 0
BBX 16 16 0 -4
BITMAP
0000
0000
0000
0000
0000
0000
0000
0700
0500
0500
0500
0500
3D00
2100
3F00
0000
ENDCHAR

STARTCHAR A1BC
ENCODING 41404
SWIDTH 960 0
DWIDTH 16 0
BBX 16 16 0 -4
BITMAP
0000
003C
0038
0030
0030
0020
0020
0020
0020
0020
0020
0030
0030
0038
003C
0000
ENDCHAR

STARTCHAR A1BD
ENCODING 41405
SWIDTH 960 0
DWIDTH 16 0
BBX 16 16 0 -4
BITMAP
0000
3C00
1C00
0C00
0C00
0400
0400
0400
0400
0400
0400
0C00
0C00
1C00
3C00
0000
ENDCHAR

STARTCHAR A1BE
ENCODING 41406
SWIDTH 960 0
DWIDTH 16 0
BBX 16 16 0 -4
BITMAP
0000
0000
0000
0100
0100
0100
0FE0
0100
0100
0100
0000
0FE0
0000
0000
0000
0000
ENDCHAR

STARTCHAR A1BF
ENCODING 41407
SWIDTH 960 0
DWIDTH 16 0
BBX 16 16 0 -4
BITMAP
0000
0000
0000
0000
0000
0440
0280
0100
0280
0440
0000
0000
0000
0000
0000
0000
ENDCHAR

STARTCHAR A1C0
ENCODING 41408
SWIDTH 960 0
DWIDTH 16 0
BBX 16 16 0 -4
BITMAP
0000
0000
0000
0180
0180
0000
0000
0FF0
0000
0000
0180
0180
0000
0000
0000
0000
ENDCHAR

STARTCHAR A1C1
ENCODING 41409
SWIDTH 960 0
DWIDTH 16 0
BBX 16 16 0 -4
BITMAP
0000
0000
0000
0000
0400
0200
0FF0
0100
0080
0FF0
0040
0020
0000
0000
0000
0000
ENDCHAR

STARTCHAR A1C2
ENCODING 41410
SWIDTH 960 0
DWIDTH 16 0
BBX 16 16 0 -4
BITMAP
0000
0000
0000
0000
0060
0180
0600
0180
0060
0000
07E0
0000
0000
0000
0000
0000
ENDCHAR

STARTCHAR A1C3
ENCODING 41411
SWIDTH 960 0
DWIDTH 16 0
BBX 16 16 0 -4
BITMAP
0000
0000
0000
0000
0600
0180
0060
0180
0600
0000
07E0
0000
0000
0000
0000
0000
ENDCHAR

STARTCHAR A1C4
ENCODING 41412
SWIDTH 960 0
DWIDTH 16 0
BBX 16 16 0 -4
BITMAP
0000
0000
0000
0000
0000
0000
0EE0
1110
1110
1110
0EE0
0000
0000
0000
0000
0000
ENDCHAR

STARTCHAR A1C5
ENCODING 41413
SWIDTH 960 0
DWIDTH 16 0
BBX 16 16 0 -4
BITMAP
0000
0000
0000
0000
0180
0180
0000
0000
0000
0000
0C30
0C30
0000
0000
0000
0000
ENDCHAR

STARTCHAR A1C6
ENCODING 41414
SWIDTH 960 0
DWIDTH 16 0
BBX 16 16 0 -4
BITMAP
0000
0000
1800
2400
2400
1800
0000
0000
0000
0000
0000
0000
0000
0000
0000
0000
ENDCHAR

STARTCHAR A1C7
ENCODING 41415
SWIDTH 960 0
DWIDTH 16 0
BBX 16 16 0 -4
BITMAP
0000
0000
1800
1800
1000
2000
0000
0000
0000
0000
0000
0000
0000
0000
0000
0000
ENDCHAR

STARTCHAR A1C8
ENCODING 41416
SWIDTH 960 0
DWIDTH 16 0
BBX 16 16 0 -4
BITMAP
0000
0000
1B00
1B00
1200
2400
0000
0000
0000
0000
0000
0000
0000
0000
0000
0000
ENDCHAR

STARTCHAR A1C9
ENCODING 41417
SWIDTH 960 0
DWIDTH 16 0
BBX 16 16 0 -4
BITMAP
0000
1800
2400
2400
18E0
0110
0200
0200
0200
0200
0200
0210
0210
0110
00E0
0000
ENDCHAR

STARTCHAR A1CA
ENCODING 41418
SWIDTH 960 0
DWIDTH 16 0
BBX 16 16 0 -4
BITMAP
0000
0180
0240
0240
0180
0000
0100
0100
0280
0280
0440
07C0
0820
0820
1C70
0000
ENDCHAR

STARTCHAR A1CB
ENCODING 41419
SWIDTH 960 0
DWIDTH 16 0
BBX 16 16 0 -4
BITMAP
0000
0000
0040
0040
01C0
02A0
0480
0480
0500
0500
0320
03C0
0200
0200
0000
0000
ENDCHAR

STARTCHAR A1CC
ENCODING 41420
SWIDTH 960 0
DWIDTH 16 0
BBX 16 16 0 -4
BITMAP
0000
0000
00C0
0120
0120
0100
0100
07C0
0100
0100
0100
0710
0A90
0C60
0000
0000
ENDCHAR

STARTCHAR A1CD
ENCODING 41421
SWIDTH 960 0
DWIDTH 16 0
BBX 16 16 0 -4
BITMAP
0000
0000
0E38
0410
0410
0220
0FF8
0140
0FF8
0080
0080
0080
0080
03E0
0000
0000
ENDCHAR

STARTCHAR A1CE
ENCODING 41422
SWIDTH 960 0
DWIDTH 16 0
BBX 16 16 0 -4
BITMAP
0000
0000
0100
0380
0540
0920
0100
0100
0100
0380
0440
0440
0440
0380
0000
0000
ENDCHAR

STARTCHAR A1CF
ENCODING 41423
SWIDTH 960 0
DWIDTH 16 0
BBX 16 16 0 -4
BITMAP
0000
0000
0380
0440
0440
0440
0380
0100
0100
0FE0
0100
0100
0100
0100
0000
0000
ENDCHAR

STARTCHAR A1D0
ENCODING 41424
SWIDTH 960 0
DWIDTH 16 0
BBX 16 16 0 -4
BITMAP
0000
0000
0000
0000
0000
0020
0040
0080
0100
0200
07E0
0000
0000
0000
0000
0000
ENDCHAR

STARTCHAR A1D1
ENCODING 41425
SWIDTH 960 0
DWIDTH 16 0
BBX 16 16 0 -4
BITMAP
0000
0000
0000
0000
0000
0080
0080
0080
0080
0080
0FF8
0000
0000
0000
0000
0000
ENDCHAR

STARTCHAR A1D2
ENCODING 41426
SWIDTH 960 0
DWIDTH 16 0
BBX 16 16 0 -4
BITMAP
0000
0000
03C0
0420
0810
0810
0000
0000
0000
0000
0000
0000
0000
0000
0000
0000
ENDCHAR

STARTCHAR A1D3
ENCODING 41427
SWIDTH 960 0
DWIDTH 16 0
BBX 16 16 0 -4
BITMAP
0000
0000
0180
0240
0040
0040
0040
01C0
0240
0440
0480
0480
0300
0000
0000
0000
ENDCHAR

STARTCHAR A1D4
ENCODING 41428
SWIDTH 960 0
DWIDTH 16 0
BBX 16 16 0 -4
BITMAP
0000
0000
0000
0FF8
0410
0410
0220
0220
0140
0140
0080
0080
0000
0000
0000
0000
ENDCHAR

STARTCHAR A1D5
ENCODING 41429
SWIDTH 960 0
DWIDTH 16 0
BBX 16 16 0 -4
BITMAP
0000
0000
0000
0000
0000
0FF0
0000
0FF0
0000
0FF0
0000
0000
0000
0000
0000
0000
ENDCHAR

STARTCHAR A1D6
ENCODING 41430
SWIDTH 960 0
DWIDTH 16 0
BBX 16 16 0 -4
BITMAP
0000
0000
0600
0600
0000
0000
0FF0
0000
0000
0FF0
0000
0000
0060
0060
0000
0000
ENDCHAR

STARTCHAR A1D7
ENCODING 41431
SWIDTH 960 0
DWIDTH 16 0
BBX 16 16 0 -4
BITMAP
0000
0180
0240
0240
0200
0100
0180
0240
0240
0140
0080
0040
0240
0240
0180
0000
ENDCHAR

STARTCHAR A1D8
ENCODING 41432
SWIDTH 960 0
DWIDTH 16 0
BBX 16 16 0 -4
BITMAP
0000
0000
2184
1188
0810
0420
0240
318C
318C
0240
0420
0810
1188
2184
0000
0000
ENDCHAR

STARTCHAR A1D9
ENCODING 41433
SWIDTH 960 0
DWIDTH 16 0
BBX 16 16 0 -4
BITMAP
0000
0100
0100
0280
0280
0440
783C
2008
1010
0820
0920
1290
1C70
1010
0000
0000
ENDCHAR

STARTCHAR A1DA
ENCODING 41434
SWIDTH 960 0
DWIDTH 16 0
BBX 16 16 0 -4
BITMAP
0000
0100
0100
0380
0380
07C0
7FFC
3FF8
1FF0
0FE0
0FE0
1EF0
1C70
1010
0000
0000
ENDCHAR

STARTCHAR A1DB
ENCODING 41435
SWIDTH 960 0
DWIDTH 16 0
BBX 16 16 0 -4
BITMAP
0000
0000
03C0
0C30
1008
1008
2004
2004
2004
2004
1008
1008
0C30
03C0
0000
0000
ENDCHAR

STARTCHAR A1DC
ENCODING 41436
SWIDTH 960 0
DWIDTH 16 0
BBX 16 16 0 -4
BITMAP
0000
0000
03C0
0FF0
1FF8
1FF8
3FFC
3FFC
3FFC
3FFC
1FF8
1FF8
0FF0
03C0
0000
0000
ENDCHAR

STARTCHAR A1DD
ENCODING 41437
SWIDTH 960 0
DWIDTH 16 0
BBX 16 16 0 -4
BITMAP
0000
0000
03C0
0C30
1008
13C8
2424
2424
2424
2424
13C8
1008
0C30
03C0
0000
0000
ENDCHAR

STARTCHAR A1DE
ENCODING 41438
SWIDTH 960 0
DWIDTH 16 0
BBX 16 16 0 -4
BITMAP
0000
0000
0180
0240
0420
0810
1008
2004
2004
1008
0810
0420
0240
0180
0000
0000
ENDCHAR

STARTCHAR A1DF
ENCODING 41439
SWIDTH 960 0
DWIDTH 16 0
BBX 16 16 0 -4
BITMAP
0000
0000
0180
03C0
07E0
0FF0
1FF8
3FFC
3FFC
1FF8
0FF0
07E0
03C0
0180
0000
0000
ENDCHAR

STARTCHAR A1E0
ENCODING 41440
SWIDTH 960 0
DWIDTH 16 0
BBX 16 16 0 -4
BITMAP
0000
0000
3FFC
2004
2004
2004
2004
2004
2004
2004
2004
2004
2004
3FFC
0000
0000
ENDCHAR

STARTCHAR A1E1
ENCODING 41441
SWIDTH 960 0
DWIDTH 16 0
BBX 16 16 0 -4
BITMAP
0000
0000
3FFC
3FFC
3FFC
3FFC
3FFC
3FFC
3FFC
3FFC
3FFC
3FFC
3FFC
3FFC
0000
0000
ENDCHAR

STARTCHAR A1E2
ENCODING 41442
SWIDTH 960 0
DWIDTH 16 0
BBX 16 16 0 -4
BITMAP
0000
0000
0000
0100
0100
0280
0280
0440
0440
0820
0820
1010
1FF0
0000
0000
0000
ENDCHAR

STARTCHAR A1E3
ENCODING 41443
SWIDTH 960 0
DWIDTH 16 0
BBX 16 16 0 -4
BITMAP
0000
0000
0000
0100
0100
0380
0380
07C0
07C0
0FE0
0FE0
1FF0
1FF0
0000
0000
0000
ENDCHAR

STARTCHAR A1E4
ENCODING 41444
SWIDTH 960 0
DWIDTH 16 0
BBX 16 16 0 -4
BITMAP
0000
0000
0000
1FF0
1010
0820
0820
0440
0440
0280
0280
0100
0100
0000
0000
0000
ENDCHAR

STARTCHAR A1E5
ENCODING 41445
SWIDTH 960 0
DWIDTH 16 0
BBX 16 16 0 -4
BITMAP
0000
0000
0000
1FF0
1FF0
0FE0
0FE0
07C0
07C0
0380
0380
0100
0100
0000
0000
0000
ENDCHAR

STARTCHAR A1E6
ENCODING 41446
SWIDTH 960 0
DWIDTH 16 0
BBX 16 16 0 -4
BITMAP
0000
0000
0000
0000
0000
0010
0018
3FFC
0018
0010
0000
0000
0000
0000
0000
0000
ENDCHAR

STARTCHAR A1E7
ENCODING 41447
SWIDTH 960 0
DWIDTH 16 0
BBX 16 16 0 -4
BITMAP
0000
0000
0000
0000
0000
0800
1800
3FFC
1800
0800
0000
0000
0000
0000
0000
0000
ENDCHAR

STARTCHAR A1E8
ENCODING 41448
SWIDTH 960 0
DWIDTH 16 0
BBX 16 16 0 -4
BITMAP
0000
0100
0380
07C0
0100
0100
0100
0100
0100
0100
0100
0100
0100
0100
0100
0000
ENDCHAR

STARTCHAR A1E9
ENCODING 41449
SWIDTH 960 0
DWIDTH 16 0
BBX 16 16 0 -4
BITMAP
0000
0100
0100
0100
0100
0100
0100
0100
0100
0100
0100
0100
07C0
0380
0100
0000
ENDCHAR

STARTCHAR A1EA
ENCODING 41450
SWIDTH 960 0
DWIDTH 16 0
BBX 16 16 0 -4
BITMAP
0000
0000
0000
0000
0000
1008
300C
7FFE
300C
1008
0000
0000
0000
0000
0000
0000
ENDCHAR

STARTCHAR A1EB
ENCODING 41451
SWIDTH 960 0
DWIDTH 16 0
BBX 16 16 0 -4
BITMAP
0000
0000
0000
0000
0000
0000
3FFC
0000
0000
3FFC
0000
0000
0000
0000
0000
0000
ENDCHAR

STARTCHAR A1EC
ENCODING 41452
SWIDTH 960 0
DWIDTH 16 0
BBX 16 16 0 -4
BITMAP
0000
0000
0000
0000
00C6
0318
0C60
3180
0C60
0318
00C6
0000
0000
0000
0000
0000
ENDCHAR

STARTCHAR A1ED
ENCODING 41453
SWIDTH 960 0
DWIDTH 16 0
BBX 16 16 0 -4
BITMAP
0000
0000
0000
0000
6300
18C0
0630
018C
0630
18C0
6300
0000
0000
0000
0000
0000
ENDCHAR

STARTCHAR A1EE
ENCODING 41454
SWIDTH 960 0
DWIDTH 16 0
BBX 16 16 0 -4
BITMAP
0000
0000
00FE
0080
0080
0100
0100
0100
1200
1200
2A00
2C00
0400
0400
0000
0000
ENDCHAR

STARTCHAR A1EF
ENCODING 41455
SWIDTH 960 0
DWIDTH 16 0
BBX 16 16 0 -4
BITMAP
0000
0000
0000
0000
0000
0000
1878
2084
2104
1E18
0000
0000
0000
0000
0000
0000
ENDCHAR

STARTCHAR A1F0
ENCODING 41456
SWIDTH 960 0
DWIDTH 16 0
BBX 16 16 0 -4
BITMAP
0000
0000
0000
0000
0000
0000
1E78
2180
2180
1E78
0000
0000
0000
0000
0000
0000
ENDCHAR

STARTCHAR A1F1
ENCODING 41457
SWIDTH 960 0
DWIDTH 16 0
BBX 16 16 0 -4
BITMAP
0000
0000
0000
0000
0C30
0C30
0000
0000
0000
0000
0180
0180
0000
0000
0000
0000
ENDCHAR

STARTCHAR A1F2
ENCODING 41458
SWIDTH 960 0
DWIDTH 16 0
BBX 16 16 0 -4
BITMAP
0000
0180
0240
0240
0200
0200
0200
0100
0100
0080
0080
0080
0480
0480
0300
0000
ENDCHAR

STARTCHAR A1F3
ENCODING 41459
SWIDTH 960 0
DWIDTH 16 0
BBX 16 16 0 -4
BITMAP
0000
0630
0948
0948
0840
0840
0840
0420
0420
0210
0210
0210
1290
1290
0C60
0000
ENDCHAR

STARTCHAR A1F4
ENCODING 41460
SWIDTH 960 0
DWIDTH 16 0
BBX 16 16 0 -4
BITMAP
0000
0000
0000
0000
0000
07F8
0800
0800
0FF8
0800
0800
07F8
0000
0000
0000
0000
ENDCHAR

STARTCHAR A1F5
ENCODING 41461
SWIDTH 960 0
DWIDTH 16 0
BBX 16 16 0 -4
BITMAP
0000
0000
0000
0000
0000
0FF0
0008
0008
0FF8
0008
0008
0FF0
0000
0000
0000
0000
ENDCHAR

STARTCHAR A1F6
ENCODING 41462
SWIDTH 960 0
DWIDTH 16 0
BBX 16 16 0 -4
BITMAP
0000
0000
0000
0000
07F8
0800
0800
0800
0800
07F8
0000
0000
0FF8
0000
0000
0000
ENDCHAR

STARTCHAR A1F7
ENCODING 41463
SWIDTH 960 0
DWIDTH 16 0
BBX 16 16 0 -4
BITMAP
0000
0000
0000
0000
0FF0
0008
0008
0008
0008
0FF0
0000
0000
0FF8
0000
0000
0000
ENDCHAR

STARTCHAR A1F8
ENCODING 41464
SWIDTH 960 0
DWIDTH 16 0
BBX 16 16 0 -4
BITMAP
0000
0000
0000
0000
0000
07F8
0800
0800
0800
0800
07F8
0000
0000
0000
0000
0000
ENDCHAR

STARTCHAR A1F9
ENCODING 41465
SWIDTH 960 0
DWIDTH 16 0
BBX 16 16 0 -4
BITMAP
0000
0000
0000
0000
0000
0FF0
0008
0008
0008
0008
0FF0
0000
0000
0000
0000
0000
ENDCHAR

STARTCHAR A1FA
ENCODING 41466
SWIDTH 960 0
DWIDTH 16 0
BBX 16 16 0 -4
BITMAP
0000
0000
0420
0420
0420
0420
0420
0420
0420
0420
0420
0420
03C0
0000
0000
0000
ENDCHAR

STARTCHAR A1FB
ENCODING 41467
SWIDTH 960 0
DWIDTH 16 0
BBX 16 16 0 -4
BITMAP
0000
0000
0000
03C0
0420
0420
0420
0420
0420
0420
0420
0420
0420
0420
0000
0000
ENDCHAR

STARTCHAR A1FC
ENCODING 41468
SWIDTH 960 0
DWIDTH 16 0
BBX 16 16 0 -4
BITMAP
0000
0000
0000
0100
0100
0100
0280
0280
0280
0440
0440
0440
0820
0820
0000
0000
ENDCHAR

STARTCHAR A1FD
ENCODING 41469
SWIDTH 960 0
DWIDTH 16 0
BBX 16 16 0 -4
BITMAP
0000
0000
0820
0820
0820
0440
0440
0440
0280
0280
0280
0100
0100
0000
0000
0000
ENDCHAR

STARTCHAR A1FE
ENCODING 41470
SWIDTH 960 0
DWIDTH 16 0
BBX 16 16 0 -4
BITMAP
0000
0000
0000
0000
0000
0000
1FF0
0010
0010
0010
0010
0000
0000
0000
0000
0000
ENDCHAR

STARTCHAR A2A1
ENCODING 41633
SWIDTH 960 0
DWIDTH 16 0
BBX 16 16 0 -4
BITMAP
0000
0000
0000
0040
0020
3FF0
0008
0004
0008
3FF0
0020
0040
0000
0000
0000
0000
ENDCHAR

STARTCHAR A2A2
ENCODING 41634
SWIDTH 960 0
DWIDTH 16 0
BBX 16 16 0 -4
BITMAP
0000
0000
0000
0420
0810
1FF8
2004
4002
2004
1FF8
0810
0420
0000
0000
0000
0000
ENDCHAR

STARTCHAR A2A3
ENCODING 41635
SWIDTH 960 0
DWIDTH 16 0
BBX 16 16 0 -4
BITMAP
0000
1010
1010
0820
0FE0
0440
0440
0280
0280
0100
0100
0000
0000
0000
0000
0000
ENDCHAR

STARTCHAR A2A4
ENCODING 41636
SWIDTH 960 0
DWIDTH 16 0
BBX 16 16 0 -4
BITMAP
0000
07E0
0020
0020
0020
0020
07E0
0020
0020
0020
0020
07E0
0000
0000
0000
0000
ENDCHAR

STARTCHAR A2A5
ENCODING 41637
SWIDTH 960 0
DWIDTH 16 0
BBX 16 16 0 -4
BITMAP
0000
0000
0180
0180
0100
0200
0000
0000
0000
0000
0000
0000
0000
0000
0000
0000
ENDCHAR

STARTCHAR A2A6
ENCODING 41638
SWIDTH 960 0
DWIDTH 16 0
BBX 16 16 0 -4
BITMAP
0000
0000
0000
0320
04C0
0000
0000
0000
0000
0000
0000
0000
0000
0000
0000
0000
ENDCHAR

STARTCHAR A2A7
ENCODING 41639
SWIDTH 960 0
DWIDTH 16 0
BBX 16 16 0 -4
BITMAP
0000
0000
0220
0140
0080
0000
0000
0000
0000
0000
0000
0000
0000
0000
0000
0000
ENDCHAR

STARTCHAR A2A8
ENCODING 41640
SWIDTH 960 0
DWIDTH 16 0
BBX 16 16 0 -4
BITMAP
0000
0000
0220
0220
01C0
0000
0000
0000
0000
0000
0000
0000
0000
0000
0000
0000
ENDCHAR

STARTCHAR A2A9
ENCODING 41641
SWIDTH 960 0
DWIDTH 16 0
BBX 16 16 0 -4
BITMAP
0000
0000
0360
0360
0240
0480
0000
0000
0000
0000
0000
0000
0000
0000
0000
0000
ENDCHAR

STARTCHAR A2AA
ENCODING 41642
SWIDTH 960 0
DWIDTH 16 0
BBX 16 16 0 -4
BITMAP
0000
0000
0180
0240
0240
0180
0000
0000
0000
0000
0000
0000
0000
0000
0000
0000
ENDCHAR

STARTCHAR A2AB
ENCODING 41643
SWIDTH 960 0
DWIDTH 16 0
BBX 16 16 0 -4
BITMAP
0000
0000
0180
0180
0000
0000
0000
0000
0000
0000
0000
0000
0000
0000
0000
0000
ENDCHAR

STARTCHAR A2AC
ENCODING 41644
SWIDTH 960 0
DWIDTH 16 0
BBX 16 16 0 -4
BITMAP
0000
0000
0000
0000
0000
0000
0200
0200
0300
0180
00C0
00C0
00C0
0380
0000
0000
ENDCHAR

STARTCHAR A2AD
ENCODING 41645
SWIDTH 960 0
DWIDTH 16 0
BBX 16 16 0 -4
BITMAP
0000
0000
0000
0000
0000
0000
0000
0000
0080
0100
0100
0300
0340
0180
0000
0000
ENDCHAR

STARTCHAR A2AE
ENCODING 41646
SWIDTH 960 0
DWIDTH 16 0
BBX 16 16 0 -4
BITMAP
0000
0000
0000
0180
0180
0000
0000
0180
0180
0180
0180
0180
0180
0180
0000
0000
ENDCHAR

STARTCHAR A2AF
ENCODING 41647
SWIDTH 960 0
DWIDTH 16 0
BBX 16 16 0 -4
BITMAP
0000
0000
0180
0180
0000
0000
0080
0080
0180
0200
0200
0240
0180
0000
0000
0000
ENDCHAR

STARTCHAR A2B0
ENCODING 41648
SWIDTH 960 0
DWIDTH 16 0
BBX 16 16 0 -4
BITMAP
0000
0000
0000
0000
0380
0100
0100
0000
0000
0100
0100
0380
0000
0000
0000
0000
ENDCHAR

STARTCHAR A2B1
ENCODING 41649
SWIDTH 960 0
DWIDTH 16 0
BBX 16 16 0 -4
BITMAP
0000
0060
0090
0090
0080
0080
01C0
02A0
02A0
01C0
0080
0080
0480
0480
0300
0000
ENDCHAR

STARTCHAR A2B2
ENCODING 41650
SWIDTH 960 0
DWIDTH 16 0
BBX 16 16 0 -4
BITMAP
0000
0000
0000
0FE0
0420
0220
0100
0080
0080
0100
0220
0420
0FE0
0000
0000
0000
ENDCHAR

STARTCHAR A2B3
ENCODING 41651
SWIDTH 960 0
DWIDTH 16 0
BBX 16 16 0 -4
BITMAP
0000
0000
0000
0FF0
0240
0240
0240
0240
0240
0240
0240
0240
0240
0000
0000
0000
ENDCHAR

STARTCHAR A2B4
ENCODING 41652
SWIDTH 960 0
DWIDTH 16 0
BBX 16 16 0 -4
BITMAP
0000
0000
0000
0000
0810
05A0
0240
0420
0420
0240
05A0
0810
0000
0000
0000
0000
ENDCHAR

STARTCHAR A2B5
ENCODING 41653
SWIDTH 960 0
DWIDTH 16 0
BBX 16 16 0 -4
BITMAP
0000
1000
2800
13F8
0108
0108
0100
0100
01E0
0100
0100
0100
0100
0100
0380
0000
ENDCHAR

STARTCHAR A2B6
ENCODING 41654
SWIDTH 960 0
DWIDTH 16 0
BBX 16 16 0 -4
BITMAP
0000
0000
0080
3080
4900
4900
4A00
3200
0400
058C
0A52
0A52
1252
118C
0000
0000
ENDCHAR

STARTCHAR A2B7
ENCODING 41655
SWIDTH 960 0
DWIDTH 16 0
BBX 16 16 0 -4
BITMAP
0000
0000
0000
0010
0070
0190
0610
1810
0610
0190
0070
0010
0000
0000
0000
0000
ENDCHAR

STARTCHAR A2B8
ENCODING 41656
SWIDTH 960 0
DWIDTH 16 0
BBX 16 16 0 -4
BITMAP
0000
0000
0000
0010
0070
01F0
07F0
1FF0
07F0
01F0
0070
0010
0000
0000
0000
0000
ENDCHAR

STARTCHAR A2B9
ENCODING 41657
SWIDTH 960 0
DWIDTH 16 0
BBX 16 16 0 -4
BITMAP
0000
0000
0000
0800
0E00
0980
0860
0818
0860
0980
0E00
0800
0000
0000
0000
0000
ENDCHAR

STARTCHAR A2BA
ENCODING 41658
SWIDTH 960 0
DWIDTH 16 0
BBX 16 16 0 -4
BITMAP
0000
0000
0000
0800
0E00
0F80
0FE0
0FF8
0FE0
0F80
0E00
0800
0000
0000
0000
0000
ENDCHAR

STARTCHAR A2BB
ENCODING 41659
SWIDTH 960 0
DWIDTH 16 0
BBX 16 16 0 -4
BITMAP
0000
0100
0100
0280
0440
0820
0820
1010
1110
1390
0D60
0100
0100
0380
0000
0000
ENDCHAR

STARTCHAR A2BC
ENCODING 41660
SWIDTH 960 0
DWIDTH 16 0
BBX 16 16 0 -4
BITMAP
0000
0100
0100
0380
07C0
0FE0
0FE0
1FF0
1FF0
1FF0
0D60
0100
0100
0380
0000
0000
ENDCHAR

STARTCHAR A2BD
ENCODING 41661
SWIDTH 960 0
DWIDTH 16 0
BBX 16 16 0 -4
BITMAP
0000
0000
0000
0630
0948
0888
0808
0808
0410
0410
0220
0140
0080
0080
0000
0000
ENDCHAR

STARTCHAR A2BE
ENCODING 41662
SWIDTH 960 0
DWIDTH 16 0
BBX 16 16 0 -4
BITMAP
0000
0000
0000
0630
0F78
0FF8
0FF8
0FF8
07F0
07F0
03E0
01C0
0080
0080
0000
0000
ENDCHAR

STARTCHAR A2BF
ENCODING 41663
SWIDTH 960 0
DWIDTH 16 0
BBX 16 16 0 -4
BITMAP
0000
0000
01C0
0220
0220
0220
0E38
1004
1084
11C4
0EB8
0080
0080
01C0
0000
0000
ENDCHAR

STARTCHAR A2C0
ENCODING 41664
SWIDTH 960 0
DWIDTH 16 0
BBX 16 16 0 -4
BITMAP
0000
0000
01C0
03E0
03E0
03E0
0DD8
1FFC
1FFC
1FFC
0EB8
0080
0080
01C0
0000
0000
ENDCHAR

STARTCHAR A2C1
ENCODING 41665
SWIDTH 960 0
DWIDTH 16 0
BBX 16 16 0 -4
BITMAP
0000
0000
03C0
0C30
1008
1008
2184
23C4
23C4
2184
1008
1008
0C30
03C0
0000
0000
ENDCHAR

STARTCHAR A2C2
ENCODING 41666
SWIDTH 960 0
DWIDTH 16 0
BBX 16 16 0 -4
BITMAP
0000
0000
0180
0240
0420
0810
1188
23C4
23C4
1188
0810
0420
0240
0180
0000
0000
ENDCHAR

STARTCHAR A2C3
ENCODING 41667
SWIDTH 960 0
DWIDTH 16 0
BBX 16 16 0 -4
BITMAP
0000
0000
3FFC
2004
2004
2004
23C4
23C4
23C4
23C4
2004
2004
2004
3FFC
0000
0000
ENDCHAR

STARTCHAR A2C4
ENCODING 41668
SWIDTH 960 0
DWIDTH 16 0
BBX 16 16 0 -4
BITMAP
0000
0000
03C0
0F30
1F08
1F08
3F04
3F04
3F04
3F04
1F08
1F08
0F30
03C0
0000
0000
ENDCHAR

STARTCHAR A2C5
ENCODING 41669
SWIDTH 960 0
DWIDTH 16 0
BBX 16 16 0 -4
BITMAP
0000
0000
03C0
0CF0
10F8
10F8
20FC
20FC
20FC
20FC
10F8
10F8
0CF0
03C0
0000
0000
ENDCHAR

STARTCHAR A2C6
ENCODING 41670
SWIDTH 960 0
DWIDTH 16 0
BBX 16 16 0 -4
BITMAP
0000
0000
3FFC
2004
2924
2004
2004
324C
2004
2004
2924
2004
2004
3FFC
0000
0000
ENDCHAR

STARTCHAR A2C7
ENCODING 41671
SWIDTH 960 0
DWIDTH 16 0
BBX 16 16 0 -4
BITMAP
0000
0000
3FFC
2004
2004
2004
3FFC
2004
2004
2004
3FFC
2004
2004
2004
3FFC
0000
ENDCHAR

STARTCHAR A2C8
ENCODING 41672
SWIDTH 960 0
DWIDTH 16 0
BBX 16 16 0 -4
BITMAP
0000
0000
3FFE
2222
2222
2222
2222
2222
2222
2222
2222
2222
2222
3FFE
0000
0000
ENDCHAR

STARTCHAR A2C9
ENCODING 41673
SWIDTH 960 0
DWIDTH 16 0
BBX 16 16 0 -4
BITMAP
0000
0000
3FFC
210C
2214
2424
2844
3084
210C
2214
2424
2844
3084
3FFC
0000
0000
ENDCHAR

STARTCHAR A2CA
ENCODING 41674
SWIDTH 960 0
DWIDTH 16 0
BBX 16 16 0 -4
BITMAP
0000
0000
3FFC
3084
2844
2424
2214
210C
3084
2844
2424
2214
210C
3FFC
0000
0000
ENDCHAR

STARTCHAR A2CB
ENCODING 41675
SWIDTH 960 0
DWIDTH 16 0
BBX 16 16 0 -4
BITMAP
0000
0000
3FFE
2222
2222
2222
3FFE
2222
2222
2222
3FFE
2222
2222
2222
3FFE
0000
ENDCHAR

STARTCHAR A2CC
ENCODING 41676
SWIDTH 960 0
DWIDTH 16 0
BBX 16 16 0 -4
BITMAP
0000
0000
3FFC
318C
2A54
2424
2A54
318C
318C
2A54
2424
2A54
318C
3FFC
0000
0000
ENDCHAR

STARTCHAR A2CD
ENCODING 41677
SWIDTH 960 0
DWIDTH 16 0
BBX 16 16 0 -4
BITMAP
0000
0000
0080
0490
0510
0920
0920
08A0
0490
0490
14A8
2524
2004
1008
0FF0
0000
ENDCHAR

STARTCHAR A2CE
ENCODING 41678
SWIDTH 960 0
DWIDTH 16 0
BBX 16 16 0 -4
BITMAP
0000
0000
07E0
1818
23C4
2664
3A5C
03C0
0660
0A50
1188
1008
27E4
381C
0000
0000
ENDCHAR

STARTCHAR A2CF
ENCODING 41679
SWIDTH 960 0
DWIDTH 16 0
BBX 16 16 0 -4
BITMAP
0000
0000
07E0
1FF8
3A5C
324C
324C
03C0
0660
0C30
1C38
1E78
3FFC
381C
0000
0000
ENDCHAR

STARTCHAR A2D0
ENCODING 41680
SWIDTH 960 0
DWIDTH 16 0
BBX 16 16 0 -4
BITMAP
0000
0000
0000
3FCE
403A
3F0A
040A
070A
040A
070A
043A
03CE
0000
0000
0000
0000
ENDCHAR

STARTCHAR A2D1
ENCODING 41681
SWIDTH 960 0
DWIDTH 16 0
BBX 16 16 0 -4
BITMAP
0000
0000
0000
73FC
5C02
50FC
5020
50E0
5020
50E0
5C20
73C0
0000
0000
0000
0000
ENDCHAR

STARTCHAR A2D2
ENCODING 41682
SWIDTH 960 0
DWIDTH 16 0
BBX 16 16 0 -4
BITMAP
0000
0000
0000
0790
0890
0890
0890
0890
0790
0090
0090
0090
0090
0000
0000
0000
ENDCHAR

STARTCHAR A2D3
ENCODING 41683
SWIDTH 960 0
DWIDTH 16 0
BBX 16 16 0 -4
BITMAP
0000
0000
0100
0100
0100
0FE0
0100
0100
0100
0100
0100
0100
0100
0100
0000
0000
ENDCHAR

STARTCHAR A2D4
ENCODING 41684
SWIDTH 960 0
DWIDTH 16 0
BBX 16 16 0 -4
BITMAP
0000
0100
0100
0100
0FE0
0100
0100
0FE0
0100
0100
0100
0100
0100
0100
0100
0000
ENDCHAR

STARTCHAR A2D5
ENCODING 41685
SWIDTH 960 0
DWIDTH 16 0
BBX 16 16 0 -4
BITMAP
0000
0000
0100
0380
0540
0100
0100
0100
0100
0100
0100
0540
0380
0100
0000
0000
ENDCHAR

STARTCHAR A2D6
ENCODING 41686
SWIDTH 960 0
DWIDTH 16 0
BBX 16 16 0 -4
BITMAP
0000
0000
0000
0000
00F0
0030
0050
0090
0100
0200
0400
0800
0000
0000
0000
0000
ENDCHAR

STARTCHAR A2D7
ENCODING 41687
SWIDTH 960 0
DWIDTH 16 0
BBX 16 16 0 -4
BITMAP
0000
0000
0000
0000
0010
0020
0040
0080
0900
0A00
0C00
0F00
0000
0000
0000
0000
ENDCHAR

STARTCHAR A2D8
ENCODING 41688
SWIDTH 960 0
DWIDTH 16 0
BBX 16 16 0 -4
BITMAP
0000
0000
0000
0F00
0C00
0A00
0900
0080
0040
0020
0010
0000
0000
0000
0000
0000
ENDCHAR

STARTCHAR A2D9
ENCODING 41689
SWIDTH 960 0
DWIDTH 16 0
BBX 16 16 0 -4
BITMAP
0000
0000
0000
0800
0400
0200
0100
0090
0050
0030
00F0
0000
0000
0000
0000
0000
ENDCHAR

STARTCHAR A2DA
ENCODING 41690
SWIDTH 960 0
DWIDTH 16 0
BBX 16 16 0 -4
BITMAP
0000
0000
0200
0200
0200
0200
0200
0380
0240
0240
0240
0280
0300
0000
0000
0000
ENDCHAR

STARTCHAR A2DB
ENCODING 41691
SWIDTH 960 0
DWIDTH 16 0
BBX 16 16 0 -4
BITMAP
0000
0080
0080
0080
0080
0080
0080
0080
0080
0080
0080
0080
0380
0780
0700
0000
ENDCHAR

STARTCHAR A2DC
ENCODING 41692
SWIDTH 960 0
DWIDTH 16 0
BBX 16 16 0 -4
BITMAP
0000
0100
0100
0180
0180
0140
0120
0120
0120
0140
0100
0100
0700
0F00
0E00
0000
ENDCHAR

STARTCHAR A2DD
ENCODING 41693
SWIDTH 960 0
DWIDTH 16 0
BBX 16 16 0 -4
BITMAP
0000
0000
03F8
0208
0208
03F8
0208
0208
0208
0208
0208
0208
0E38
1E78
1C70
0000
ENDCHAR

STARTCHAR A2DE
ENCODING 41694
SWIDTH 960 0
DWIDTH 16 0
BBX 16 16 0 -4
BITMAP
0000
0000
03C0
0C30
1008
1228
2240
2280
3F9C
0244
0244
1228
1008
0C30
03C0
0000
ENDCHAR

STARTCHAR A2DF
ENCODING 41695
SWIDTH 960 0
DWIDTH 16 0
BBX 16 16 0 -4
BITMAP
0000
1008
2004
2FE4
4082
4382
5C72
4002
4002
5FF2
4102
4102
2104
2104
1008
0000
ENDCHAR

STARTCHAR A2E0
ENCODING 41696
SWIDTH 960 0
DWIDTH 16 0
BBX 16 16 0 -4
BITMAP
0000
6700
2200
3200
3200
2A00
2A60
2690
2690
2296
7266
0000
0000
0000
0000
0000
ENDCHAR

STARTCHAR A2E1
ENCODING 41697
SWIDTH 960 0
DWIDTH 16 0
BBX 16 16 0 -4
BITMAP
0000
1A00
2600
4200
4200
4000
4060
4090
4090
2296
1C66
0000
0000
0000
0000
0000
ENDCHAR

STARTCHAR A2E2
ENCODING 41698
SWIDTH 960 0
DWIDTH 16 0
BBX 16 16 0 -4
BITMAP
0000
7D04
1104
118C
118C
118C
1154
1154
1154
1124
1124
0000
0000
0000
0000
0000
ENDCHAR

STARTCHAR A2E3
ENCODING 41699
SWIDTH 960 0
DWIDTH 16 0
BBX 16 16 0 -4
BITMAP
0000
0000
0000
0000
0000
71F0
08A8
38A8
48A8
48A8
3AAA
0000
0000
0000
0000
0000
ENDCHAR

STARTCHAR A2E4
ENCODING 41700
SWIDTH 960 0
DWIDTH 16 0
BBX 16 16 0 -4
BITMAP
0000
0000
0000
0000
0000
71F0
48A8
48A8
48A8
48A8
72AA
4000
4000
4000
4000
0000
ENDCHAR

STARTCHAR A2E5
ENCODING 41701
SWIDTH 960 0
DWIDTH 16 0
BBX 16 16 0 -4
BITMAP
0000
7F04
0804
0804
0804
08C4
0924
09E4
0904
0904
08E4
0000
0000
0000
0000
0000
ENDCHAR

STARTCHAR A3A1
ENCODING 41889
SWIDTH 960 0
DWIDTH 16 0
BBX 16 16 0 -4
BITMAP
0000
0000
0180
0180
0180
0180
0180
0180
0180
0180
0000
0000
0180
0180
0000
0000
ENDCHAR

STARTCHAR A3A2
ENCODING 41890
SWIDTH 960 0
DWIDTH 16 0
BBX 16 16 0 -4
BITMAP
0000
0360
0360
0240
0240
0480
0480
0000
0000
0000
0000
0000
0000
0000
0000
0000
ENDCHAR

STARTCHAR A3A3
ENCODING 41891
SWIDTH 960 0
DWIDTH 16 0
BBX 16 16 0 -4
BITMAP
0000
0440
0440
0440
0478
07C0
3C40
0440
0478
07C0
3C40
0440
0440
0440
0440
0000
ENDCHAR

STARTCHAR A3A4
ENCODING 41892
SWIDTH 960 0
DWIDTH 16 0
BBX 16 16 0 -4
BITMAP
0000
0140
0140
03E0
0550
0540
0540
03E0
0150
0150
0150
0550
03E0
0140
0140
0000
ENDCHAR

STARTCHAR A3A5
ENCODING 41893
SWIDTH 960 0
DWIDTH 16 0
BBX 16 16 0 -4
BITMAP
0000
0000
0020
0420
0A40
0A40
0A80
0480
0120
0150
0250
0250
0420
0400
0000
0000
ENDCHAR

STARTCHAR A3A6
ENCODING 41894
SWIDTH 960 0
DWIDTH 16 0
BBX 16 16 0 -4
BITMAP
0000
0000
0300
0480
0480
0480
0300
0220
0520
0940
08C0
0840
08B0
0700
0000
0000
ENDCHAR

STARTCHAR A3A7
ENCODING 41895
SWIDTH 960 0
DWIDTH 16 0
BBX 16 16 0 -4
BITMAP
0000
0000
0180
0180
0100
0200
0000
0000
0000
0000
0000
0000
0000
0000
0000
0000
ENDCHAR

STARTCHAR A3A8
ENCODING 41896
SWIDTH 960 0
DWIDTH 16 0
BBX 16 16 0 -4
BITMAP
0000
0004
0008
0008
0010
0010
0010
0010
0010
0010
0010
0010
0008
0008
0004
0000
ENDCHAR

STARTCHAR A3A9
ENCODING 41897
SWIDTH 960 0
DWIDTH 16 0
BBX 16 16 0 -4
BITMAP
0000
2000
1000
1000
0800
0800
0800
0800
0800
0800
0800
0800
1000
1000
2000
0000
ENDCHAR

STARTCHAR A3AA
ENCODING 41898
SWIDTH 960 0
DWIDTH 16 0
BBX 16 16 0 -4
BITMAP
0000
0000
0000
0000
01C0
0490
07F0
01C0
07F0
0490
01C0
0000
0000
0000
0000
0000
ENDCHAR

STARTCHAR A3AB
ENCODING 41899
SWIDTH 960 0
DWIDTH 16 0
BBX 16 16 0 -4
BITMAP
0000
0000
0000
0000
0080
0080
0080
0080
0FF8
0080
0080
0080
0080
0000
0000
0000
ENDCHAR

STARTCHAR A3AC
ENCODING 41900
SWIDTH 960 0
DWIDTH 16 0
BBX 16 16 0 -4
BITMAP
0000
0000
0000
0000
0000
0000
0000
0000
0000
0000
3000
3000
1000
1000
2000
0000
ENDCHAR

STARTCHAR A3AD
ENCODING 41901
SWIDTH 960 0
DWIDTH 16 0
BBX 16 16 0 -4
BITMAP
0000
0000
0000
0000
0000
0000
0000
0000
0FF0
0000
0000
0000
0000
0000
0000
0000
ENDCHAR

STARTCHAR A3AE
ENCODING 41902
SWIDTH 960 0
DWIDTH 16 0
BBX 16 16 0 -4
BITMAP
0000
0000
0000
0000
0000
0000
0000
0000
0000
0000
3000
3000
0000
0000
0000
0000
ENDCHAR

STARTCHAR A3AF
ENCODING 41903
SWIDTH 960 0
DWIDTH 16 0
BBX 16 16 0 -4
BITMAP
0000
0000
0000
0008
0010
0020
0040
0080
0100
0200
0400
0800
1000
0000
0000
0000
ENDCHAR

STARTCHAR A3B0
ENCODING 41904
SWIDTH 960 0
DWIDTH 16 0
BBX 16 16 0 -4
BITMAP
0000
0000
03C0
0420
0420
0420
0420
0420
0420
0420
0420
0420
0420
03C0
0000
0000
ENDCHAR

STARTCHAR A3B1
ENCODING 41905
SWIDTH 960 0
DWIDTH 16 0
BBX 16 16 0 -4
BITMAP
0000
0000
0100
0300
0100
0100
0100
0100
0100
0100
0100
0100
0100
0380
0000
0000
ENDCHAR

STARTCHAR A3B2
ENCODING 41906
SWIDTH 960 0
DWIDTH 16 0
BBX 16 16 0 -4
BITMAP
0000
0000
03C0
0420
0420
0020
0020
0040
0080
0100
0200
0420
0420
07E0
0000
0000
ENDCHAR

STARTCHAR A3B3
ENCODING 41907
SWIDTH 960 0
DWIDTH 16 0
BBX 16 16 0 -4
BITMAP
0000
0000
03C0
0420
0420
0020
0020
01C0
0020
0020
0020
0420
0420
03C0
0000
0000
ENDCHAR

STARTCHAR A3B4
ENCODING 41908
SWIDTH 960 0
DWIDTH 16 0
BBX 16 16 0 -4
BITMAP
0000
0000
0080
0080
0180
0180
0280
0480
0480
07E0
0080
0080
0080
01C0
0000
0000
ENDCHAR

STARTCHAR A3B5
ENCODING 41909
SWIDTH 960 0
DWIDTH 16 0
BBX 16 16 0 -4
BITMAP
0000
0000
07E0
0400
0400
0400
0400
07C0
0020
0020
0020
0420
0420
03C0
0000
0000
ENDCHAR

STARTCHAR A3B6
ENCODING 41910
SWIDTH 960 0
DWIDTH 16 0
BBX 16 16 0 -4
BITMAP
0000
0000
03C0
0420
0420
0400
0400
07C0
0420
0420
0420
0420
0420
03C0
0000
0000
ENDCHAR

STARTCHAR A3B7
ENCODING 41911
SWIDTH 960 0
DWIDTH 16 0
BBX 16 16 0 -4
BITMAP
0000
0000
07E0
0420
0420
0020
0040
0040
0080
0080
0080
0100
0100
0100
0000
0000
ENDCHAR

STARTCHAR A3B8
ENCODING 41912
SWIDTH 960 0
DWIDTH 16 0
BBX 16 16 0 -4
BITMAP
0000
0000
03C0
0420
0420
0420
0420
03C0
0420
0420
0420
0420
0420
03C0
0000
0000
ENDCHAR

STARTCHAR A3B9
ENCODING 41913
SWIDTH 960 0
DWIDTH 16 0
BBX 16 16 0 -4
BITMAP
0000
0000
03C0
0420
0420
0420
0420
03E0
0020
0020
0020
0420
0420
03C0
0000
0000
ENDCHAR

STARTCHAR A3BA
ENCODING 41914
SWIDTH 960 0
DWIDTH 16 0
BBX 16 16 0 -4
BITMAP
0000
0000
0000
0000
0180
0180
0000
0000
0000
0000
0000
0180
0180
0000
0000
0000
ENDCHAR

STARTCHAR A3BB
ENCODING 41915
SWIDTH 960 0
DWIDTH 16 0
BBX 16 16 0 -4
BITMAP
0000
0000
0000
0000
0180
0180
0000
0000
0000
0000
0000
0180
0180
0080
0100
0000
ENDCHAR

STARTCHAR A3BC
ENCODING 41916
SWIDTH 960 0
DWIDTH 16 0
BBX 16 16 0 -4
BITMAP
0000
0000
0000
0000
0040
0080
0100
0200
0400
0200
0100
0080
0040
0000
0000
0000
ENDCHAR

STARTCHAR A3BD
ENCODING 41917
SWIDTH 960 0
DWIDTH 16 0
BBX 16 16 0 -4
BITMAP
0000
0000
0000
0000
0000
0000
0FF0
0000
0000
0FF0
0000
0000
0000
0000
0000
0000
ENDCHAR

STARTCHAR A3BE
ENCODING 41918
SWIDTH 960 0
DWIDTH 16 0
BBX 16 16 0 -4
BITMAP
0000
0000
0000
0000
0400
0200
0100
0080
0040
0080
0100
0200
0400
0000
0000
0000
ENDCHAR

STARTCHAR A3BF
ENCODING 41919
SWIDTH 960 0
DWIDTH 16 0
BBX 16 16 0 -4
BITMAP
0000
0380
0440
0440
0440
0040
0080
0100
0100
0100
0000
0000
0100
0380
0100
0000
ENDCHAR

STARTCHAR A3C0
ENCODING 41920
SWIDTH 960 0
DWIDTH 16 0
BBX 16 16 0 -4
BITMAP
0000
0000
03C0
0C30
1010
1348
24C8
2448
2448
24C8
1330
1000
0C30
03C0
0000
0000
ENDCHAR

STARTCHAR A3C1
ENCODING 41921
SWIDTH 960 0
DWIDTH 16 0
BBX 16 16 0 -4
BITMAP
0000
0000
0180
0180
0180
0240
0240
0240
0420
07E0
0420
0810
0810
3E7C
0000
0000
ENDCHAR

STARTCHAR A3C2
ENCODING 41922
SWIDTH 960 0
DWIDTH 16 0
BBX 16 16 0 -4
BITMAP
0000
0000
0FE0
0410
0410
0410
0420
07C0
0420
0410
0410
0410
0410
0FE0
0000
0000
ENDCHAR

STARTCHAR A3C3
ENCODING 41923
SWIDTH 960 0
DWIDTH 16 0
BBX 16 16 0 -4
BITMAP
0000
0000
01D0
0630
0410
0800
0800
0800
0800
0800
0810
0410
0620
01C0
0000
0000
ENDCHAR

STARTCHAR A3C4
ENCODING 41924
SWIDTH 960 0
DWIDTH 16 0
BBX 16 16 0 -4
BITMAP
0000
0000
0F80
0460
0410
0410
0408
0408
0408
0408
0410
0410
0460
0F80
0000
0000
ENDCHAR

STARTCHAR A3C5
ENCODING 41925
SWIDTH 960 0
DWIDTH 16 0
BBX 16 16 0 -4
BITMAP
0000
0000
0FE0
0420
0420
0400
0440
07C0
0440
0400
0400
0420
0420
0FE0
0000
0000
ENDCHAR

STARTCHAR A3C6
ENCODING 41926
SWIDTH 960 0
DWIDTH 16 0
BBX 16 16 0 -4
BITMAP
0000
0000
0FE0
0420
0420
0400
0440
07C0
0440
0400
0400
0400
0400
0F00
0000
0000
ENDCHAR

STARTCHAR A3C7
ENCODING 41927
SWIDTH 960 0
DWIDTH 16 0
BBX 16 16 0 -4
BITMAP
0000
0000
03D0
0430
0810
0800
0800
0800
08F0
0810
0810
0810
0420
03C0
0000
0000
ENDCHAR

STARTCHAR A3C8
ENCODING 41928
SWIDTH 960 0
DWIDTH 16 0
BBX 16 16 0 -4
BITMAP
0000
0000
1C70
0820
0820
0820
0820
0FE0
0820
0820
0820
0820
0820
1C70
0000
0000
ENDCHAR

STARTCHAR A3C9
ENCODING 41929
SWIDTH 960 0
DWIDTH 16 0
BBX 16 16 0 -4
BITMAP
0000
0000
01C0
0080
0080
0080
0080
0080
0080
0080
0080
0080
0080
01C0
0000
0000
ENDCHAR

STARTCHAR A3CA
ENCODING 41930
SWIDTH 960 0
DWIDTH 16 0
BBX 16 16 0 -4
BITMAP
0000
0000
01C0
0080
0080
0080
0080
0080
0080
0080
0080
0880
0880
0880
0700
0000
ENDCHAR

STARTCHAR A3CB
ENCODING 41931
SWIDTH 960 0
DWIDTH 16 0
BBX 16 16 0 -4
BITMAP
0000
0000
1C70
0820
0840
0880
0900
0A00
0D00
0880
0840
0820
0810
1C38
0000
0000
ENDCHAR

STARTCHAR A3CC
ENCODING 41932
SWIDTH 960 0
DWIDTH 16 0
BBX 16 16 0 -4
BITMAP
0000
0000
0E00
0400
0400
0400
0400
0400
0400
0400
0400
0410
0410
0FF0
0000
0000
ENDCHAR

STARTCHAR A3CD
ENCODING 41933
SWIDTH 960 0
DWIDTH 16 0
BBX 16 16 0 -4
BITMAP
0000
0000
180C
0808
0C18
0C18
0C18
0A28
0A28
0948
0948
0888
0888
1C9C
0000
0000
ENDCHAR

STARTCHAR A3CE
ENCODING 41934
SWIDTH 960 0
DWIDTH 16 0
BBX 16 16 0 -4
BITMAP
0000
0000
0C38
0610
0610
0510
0510
0490
0490
0450
0450
0430
0430
0E10
0000
0000
ENDCHAR

STARTCHAR A3CF
ENCODING 41935
SWIDTH 960 0
DWIDTH 16 0
BBX 16 16 0 -4
BITMAP
0000
0000
0380
0C60
0820
1010
1010
1010
1010
1010
1010
0820
0C60
0380
0000
0000
ENDCHAR

STARTCHAR A3D0
ENCODING 41936
SWIDTH 960 0
DWIDTH 16 0
BBX 16 16 0 -4
BITMAP
0000
0000
0FC0
0420
0410
0410
0410
0420
07C0
0400
0400
0400
0400
0E00
0000
0000
ENDCHAR

STARTCHAR A3D1
ENCODING 41937
SWIDTH 960 0
DWIDTH 16 0
BBX 16 16 0 -4
BITMAP
0000
0000
0380
0C60
0820
1010
1010
1010
1010
1010
1190
0A60
0C20
03D0
000C
0000
ENDCHAR

STARTCHAR A3D2
ENCODING 41938
SWIDTH 960 0
DWIDTH 16 0
BBX 16 16 0 -4
BITMAP
0000
0000
1FC0
0820
0820
0820
0820
0840
0F80
0840
0840
0820
0820
1C30
0000
0000
ENDCHAR

STARTCHAR A3D3
ENCODING 41939
SWIDTH 960 0
DWIDTH 16 0
BBX 16 16 0 -4
BITMAP
0000
0000
0380
0440
0820
0820
0800
0700
00C0
0020
0820
0820
0440
0380
0000
0000
ENDCHAR

STARTCHAR A3D4
ENCODING 41940
SWIDTH 960 0
DWIDTH 16 0
BBX 16 16 0 -4
BITMAP
0000
0000
1FF0
1110
1110
0100
0100
0100
0100
0100
0100
0100
0100
0380
0000
0000
ENDCHAR

STARTCHAR A3D5
ENCODING 41941
SWIDTH 960 0
DWIDTH 16 0
BBX 16 16 0 -4
BITMAP
0000
0000
1E78
0810
0810
0810
0810
0810
0810
0810
0810
0810
0420
03C0
0000
0000
ENDCHAR

STARTCHAR A3D6
ENCODING 41942
SWIDTH 960 0
DWIDTH 16 0
BBX 16 16 0 -4
BITMAP
0000
0000
1C38
0810
0810
0420
0420
0420
0240
0240
0240
0180
0180
0180
0000
0000
ENDCHAR

STARTCHAR A3D7
ENCODING 41943
SWIDTH 960 0
DWIDTH 16 0
BBX 16 16 0 -4
BITMAP
0000
0000
1DDC
0888
0888
0888
0888
0550
0550
0550
0550
0220
0220
0220
0000
0000
ENDCHAR

STARTCHAR A3D8
ENCODING 41944
SWIDTH 960 0
DWIDTH 16 0
BBX 16 16 0 -4
BITMAP
0000
0000
1E70
0420
0440
0240
0280
0100
0180
0280
0440
0440
0820
1C70
0000
0000
ENDCHAR

STARTCHAR A3D9
ENCODING 41945
SWIDTH 960 0
DWIDTH 16 0
BBX 16 16 0 -4
BITMAP
0000
0000
1E3C
0410
0410
0220
0220
0140
0140
0080
0080
0080
0080
01C0
0000
0000
ENDCHAR

STARTCHAR A3DA
ENCODING 41946
SWIDTH 960 0
DWIDTH 16 0
BBX 16 16 0 -4
BITMAP
0000
0000
0FE0
0840
0840
0080
0080
0100
0100
0200
0200
0420
0420
0FE0
0000
0000
ENDCHAR

STARTCHAR A3DB
ENCODING 41947
SWIDTH 960 0
DWIDTH 16 0
BBX 16 16 0 -4
BITMAP
0000
003C
0020
0020
0020
0020
0020
0020
0020
0020
0020
0020
0020
0020
003C
0000
ENDCHAR

STARTCHAR A3DC
ENCODING 41948
SWIDTH 960 0
DWIDTH 16 0
BBX 16 16 0 -4
BITMAP
0000
0000
1DDC
0888
0888
3FFE
0490
0550
3FFE
0550
0550
0220
0220
0220
0000
0000
ENDCHAR

STARTCHAR A3DD
ENCODING 41949
SWIDTH 960 0
DWIDTH 16 0
BBX 16 16 0 -4
BITMAP
0000
3C00
0400
0400
0400
0400
0400
0400
0400
0400
0400
0400
0400
0400
3C00
0000
ENDCHAR

STARTCHAR A3DE
ENCODING 41950
SWIDTH 960 0
DWIDTH 16 0
BBX 16 16 0 -4
BITMAP
0000
0100
0280
0440
0000
0000
0000
0000
0000
0000
0000
0000
0000
0000
0000
0000
ENDCHAR

STARTCHAR A3DF
ENCODING 41951
SWIDTH 960 0
DWIDTH 16 0
BBX 16 16 0 -4
BITMAP
0000
0000
0000
0000
0000
0000
0000
0000
0000
0000
0000
0000
0000
0000
7FFE
0000
ENDCHAR

STARTCHAR A3E0
ENCODING 41952
SWIDTH 960 0
DWIDTH 16 0
BBX 16 16 0 -4
BITMAP
0000
0000
3000
3000
1800
0800
0000
0000
0000
0000
0000
0000
0000
0000
0000
0000
ENDCHAR

STARTCHAR A3E1
ENCODING 41953
SWIDTH 960 0
DWIDTH 16 0
BBX 16 16 0 -4
BITMAP
0000
0000
0000
0000
0000
0000
0780
0040
0040
03C0
0440
0440
0440
03B0
0000
0000
ENDCHAR

STARTCHAR A3E2
ENCODING 41954
SWIDTH 960 0
DWIDTH 16 0
BBX 16 16 0 -4
BITMAP
0000
0000
0600
0200
0200
0200
03C0
0220
0220
0220
0220
0220
0220
03C0
0000
0000
ENDCHAR

STARTCHAR A3E3
ENCODING 41955
SWIDTH 960 0
DWIDTH 16 0
BBX 16 16 0 -4
BITMAP
0000
0000
0000
0000
0000
0000
0380
0440
0400
0400
0400
0440
0440
0380
0000
0000
ENDCHAR

STARTCHAR A3E4
ENCODING 41956
SWIDTH 960 0
DWIDTH 16 0
BBX 16 16 0 -4
BITMAP
0000
0000
0040
0040
0040
0040
03C0
0440
0440
0440
0440
0440
0440
03B0
0000
0000
ENDCHAR

STARTCHAR A3E5
ENCODING 41957
SWIDTH 960 0
DWIDTH 16 0
BBX 16 16 0 -4
BITMAP
0000
0000
0000
0000
0000
0000
0380
0440
0440
07C0
0400
0440
0440
0380
0000
0000
ENDCHAR

STARTCHAR A3E6
ENCODING 41958
SWIDTH 960 0
DWIDTH 16 0
BBX 16 16 0 -4
BITMAP
0000
0000
0180
0240
0200
0200
0780
0200
0200
0200
0200
0200
0200
0700
0000
0000
ENDCHAR

STARTCHAR A3E7
ENCODING 41959
SWIDTH 960 0
DWIDTH 16 0
BBX 16 16 0 -4
BITMAP
0000
0000
0000
0000
0000
03A0
0440
0440
0380
0400
0400
07C0
0820
0820
07C0
0000
ENDCHAR

STARTCHAR A3E8
ENCODING 41960
SWIDTH 960 0
DWIDTH 16 0
BBX 16 16 0 -4
BITMAP
0000
0000
0400
0C00
0400
0400
05C0
0620
0420
0420
0420
0420
0420
0E70
0000
0000
ENDCHAR

STARTCHAR A3E9
ENCODING 41961
SWIDTH 960 0
DWIDTH 16 0
BBX 16 16 0 -4
BITMAP
0000
0000
0100
0100
0000
0000
0100
0100
0100
0100
0100
0100
0100
0380
0000
0000
ENDCHAR

STARTCHAR A3EA
ENCODING 41962
SWIDTH 960 0
DWIDTH 16 0
BBX 16 16 0 -4
BITMAP
0000
0000
0080
0080
0000
0000
0080
0080
0080
0080
0080
0080
0080
0480
0300
0000
ENDCHAR

STARTCHAR A3EB
ENCODING 41963
SWIDTH 960 0
DWIDTH 16 0
BBX 16 16 0 -4
BITMAP
0000
0000
0400
0C00
0400
0400
0400
04F0
0440
0480
0580
0640
0420
0E70
0000
0000
ENDCHAR

STARTCHAR A3EC
ENCODING 41964
SWIDTH 960 0
DWIDTH 16 0
BBX 16 16 0 -4
BITMAP
0000
0000
0100
0300
0100
0100
0100
0100
0100
0100
0100
0100
0100
0380
0000
0000
ENDCHAR

STARTCHAR A3ED
ENCODING 41965
SWIDTH 960 0
DWIDTH 16 0
BBX 16 16 0 -4
BITMAP
0000
0000
0000
0000
0000
0000
2EE0
1110
1110
1110
1110
1110
1110
1110
0000
0000
ENDCHAR

STARTCHAR A3EE
ENCODING 41966
SWIDTH 960 0
DWIDTH 16 0
BBX 16 16 0 -4
BITMAP
0000
0000
0000
0000
0000
0000
0B80
0440
0440
0440
0440
0440
0440
0EE0
0000
0000
ENDCHAR

STARTCHAR A3EF
ENCODING 41967
SWIDTH 960 0
DWIDTH 16 0
BBX 16 16 0 -4
BITMAP
0000
0000
0000
0000
0000
0000
03C0
0420
0420
0420
0420
0420
0420
03C0
0000
0000
ENDCHAR

STARTCHAR A3F0
ENCODING 41968
SWIDTH 960 0
DWIDTH 16 0
BBX 16 16 0 -4
BITMAP
0000
0000
0000
0000
0000
0780
0440
0440
0440
0440
0440
0780
0400
0400
0400
0000
ENDCHAR

STARTCHAR A3F1
ENCODING 41969
SWIDTH 960 0
DWIDTH 16 0
BBX 16 16 0 -4
BITMAP
0000
0000
0000
0000
0000
03C0
0440
0440
0440
0440
0440
03C0
0040
0040
0040
0000
ENDCHAR

STARTCHAR A3F2
ENCODING 41970
SWIDTH 960 0
DWIDTH 16 0
BBX 16 16 0 -4
BITMAP
0000
0000
0000
0000
0000
0000
02C0
0300
0300
0200
0200
0200
0200
0700
0000
0000
ENDCHAR

STARTCHAR A3F3
ENCODING 41971
SWIDTH 960 0
DWIDTH 16 0
BBX 16 16 0 -4
BITMAP
0000
0000
0000
0000
0000
0000
0380
0440
0400
0300
0080
0040
0440
0380
0000
0000
ENDCHAR

STARTCHAR A3F4
ENCODING 41972
SWIDTH 960 0
DWIDTH 16 0
BBX 16 16 0 -4
BITMAP
0000
0000
0000
0100
0100
0100
0380
0100
0100
0100
0100
0100
0100
00C0
0000
0000
ENDCHAR

STARTCHAR A3F5
ENCODING 41973
SWIDTH 960 0
DWIDTH 16 0
BBX 16 16 0 -4
BITMAP
0000
0000
0000
0000
0000
0000
0420
0420
0420
0420
0420
0420
0460
03B0
0000
0000
ENDCHAR

STARTCHAR A3F6
ENCODING 41974
SWIDTH 960 0
DWIDTH 16 0
BBX 16 16 0 -4
BITMAP
0000
0000
0000
0000
0000
0000
0E70
0420
0420
0240
0240
0180
0180
0180
0000
0000
ENDCHAR

STARTCHAR A3F7
ENCODING 41975
SWIDTH 960 0
DWIDTH 16 0
BBX 16 16 0 -4
BITMAP
0000
0000
0000
0000
0000
0000
3BB8
1110
1110
0AA0
0AA0
0AA0
0440
0440
0000
0000
ENDCHAR

STARTCHAR A3F8
ENCODING 41976
SWIDTH 960 0
DWIDTH 16 0
BBX 16 16 0 -4
BITMAP
0000
0000
0000
0000
0000
0000
0E70
0420
0240
0180
0180
0240
0420
0E70
0000
0000
ENDCHAR

STARTCHAR A3F9
ENCODING 41977
SWIDTH 960 0
DWIDTH 16 0
BBX 16 16 0 -4
BITMAP
0000
0000
0000
0000
0000
0000
0770
0220
0220
0140
0140
0080
0080
0900
0600
0000
ENDCHAR

STARTCHAR A3FA
ENCODING 41978
SWIDTH 960 0
DWIDTH 16 0
BBX 16 16 0 -4
BITMAP
0000
0000
0000
0000
0000
0000
07E0
0420
0040
0080
0100
0200
0420
07E0
0000
0000
ENDCHAR

STARTCHAR A3FB
ENCODING 41979
SWIDTH 960 0
DWIDTH 16 0
BBX 16 16 0 -4
BITMAP
0000
000C
0010
0010
0010
0010
0010
0060
0010
0010
0010
0010
0010
0010
000C
0000
ENDCHAR

STARTCHAR A3FC
ENCODING 41980
SWIDTH 960 0
DWIDTH 16 0
BBX 16 16 0 -4
BITMAP
0000
0100
0100
0100
0100
0100
0100
0100
0100
0100
0100
0100
0100
0100
0100
0000
ENDCHAR

STARTCHAR A3FD
ENCODING 41981
SWIDTH 960 0
DWIDTH 16 0
BBX 16 16 0 -4
BITMAP
0000
3000
0800
0800
0800
0800
0800
0600
0800
0800
0800
0800
0800
0800
3000
0000
ENDCHAR

STARTCHAR A3FE
ENCODING 41982
SWIDTH 960 0
DWIDTH 16 0
BBX 16 16 0 -4
BITMAP
0000
7FFE
0000
0000
0000
0000
0000
0000
0000
0000
0000
0000
0000
0000
0000
0000
ENDCHAR

STARTCHAR A4A1
ENCODING 42145
SWIDTH 960 0
DWIDTH 16 0
BBX 16 16 0 -4
BITMAP
0000
0000
0000
0010
0FF8
0410
0010
0010
0010
0010
0010
0010
0000
0000
0000
0000
ENDCHAR

STARTCHAR A4A2
ENCODING 42146
SWIDTH 960 0
DWIDTH 16 0
BBX 16 16 0 -4
BITMAP
0000
0000
0000
0110
1FF8
0910
0110
0110
0110
0110
0110
0110
0000
0000
0000
0000
ENDCHAR

STARTCHAR A4A3
ENCODING 42147
SWIDTH 960 0
DWIDTH 16 0
BBX 16 16 0 -4
BITMAP
0000
0000
0000
0420
3E30
0420
0420
0420
0450
0450
0488
0504
0000
0000
0000
0000
ENDCHAR

STARTCHAR A4A4
ENCODING 42148
SWIDTH 960 0
DWIDTH 16 0
BBX 16 16 0 -4
BITMAP
0000
0000
0000
0000
0C00
0400
0400
0400
0400
0400
0420
03F0
0000
0000
0000
0000
ENDCHAR

STARTCHAR A4A5
ENCODING 42149
SWIDTH 960 0
DWIDTH 16 0
BBX 16 16 0 -4
BITMAP
0000
0000
0000
0004
61FE
2090
2010
2010
2028
2028
2044
1F82
0000
0000
0000
0000
ENDCHAR

STARTCHAR A4A6
ENCODING 42150
SWIDTH 960 0
DWIDTH 16 0
BBX 16 16 0 -4
BITMAP
0000
0000
0000
0000
6078
2000
21FE
2000
2078
2084
2084
1F78
0000
0000
0000
0000
ENDCHAR

STARTCHAR A4A7
ENCODING 42151
SWIDTH 960 0
DWIDTH 16 0
BBX 16 16 0 -4
BITMAP
0000
0000
0000
1820
0FF0
0800
0800
0800
0800
0800
0820
07F0
0000
0000
0000
0000
ENDCHAR

STARTCHAR A4A8
ENCODING 42152
SWIDTH 960 0
DWIDTH 16 0
BBX 16 16 0 -4
BITMAP
0000
0000
0000
6184
3EFE
2080
2080
2080
2080
2080
2084
1F7E
0000
0000
0000
0000
ENDCHAR

STARTCHAR A4A9
ENCODING 42153
SWIDTH 960 0
DWIDTH 16 0
BBX 16 16 0 -4
BITMAP
0000
0000
0000
0010
1FF8
0810
0010
1FF8
0800
0800
0810
07F8
0000
0000
0000
0000
ENDCHAR

STARTCHAR A4AA
ENCODING 42154
SWIDTH 960 0
DWIDTH 16 0
BBX 16 16 0 -4
BITMAP
0000
0000
0000
0204
7F7E
2204
0204
7E04
2004
2004
2004
1E04
0000
0000
0000
0000
ENDCHAR

STARTCHAR A4AB
ENCODING 42155
SWIDTH 960 0
DWIDTH 16 0
BBX 16 16 0 -4
BITMAP
0000
0000
0000
0244
7FFE
2244
0244
7F44
2044
2044
2044
1F7E
0040
0000
0000
0000
ENDCHAR

STARTCHAR A4AC
ENCODING 42156
SWIDTH 960 0
DWIDTH 16 0
BBX 16 16 0 -4
BITMAP
0000
0000
0000
0400
7ECC
2444
0444
7C7C
2044
2044
2044
1E7C
0044
0000
0000
0000
ENDCHAR

STARTCHAR A4AD
ENCODING 42157
SWIDTH 960 0
DWIDTH 16 0
BBX 16 16 0 -4
BITMAP
0000
0000
0000
0230
3F18
0210
0210
3F28
1028
1044
1044
0F82
0000
0000
0000
0000
ENDCHAR

STARTCHAR A4AE
ENCODING 42158
SWIDTH 960 0
DWIDTH 16 0
BBX 16 16 0 -4
BITMAP
0000
0000
0000
02C8
7F7C
2240
0248
7E7C
2040
2040
2048
1E3C
0000
0000
0000
0000
ENDCHAR

STARTCHAR A4AF
ENCODING 42159
SWIDTH 960 0
DWIDTH 16 0
BBX 16 16 0 -4
BITMAP
0000
0000
0000
0404
7DFE
0448
0448
7E48
2048
2048
2048
1DFE
0080
0000
0000
0000
ENDCHAR

STARTCHAR A4B0
ENCODING 42160
SWIDTH 960 0
DWIDTH 16 0
BBX 16 16 0 -4
BITMAP
0000
0000
0000
0200
7F78
2200
02FC
7E00
2078
2084
2084
1E78
0000
0000
0000
0000
ENDCHAR

STARTCHAR A4B1
ENCODING 42161
SWIDTH 960 0
DWIDTH 16 0
BBX 16 16 0 -4
BITMAP
0000
0000
0000
0C10
07F8
0410
0410
0410
0410
0410
0410
07F8
0400
0000
0000
0000
ENDCHAR

STARTCHAR A4B2
ENCODING 42162
SWIDTH 960 0
DWIDTH 16 0
BBX 16 16 0 -4
BITMAP
0000
0000
0000
0000
0C30
0410
0410
07F0
0410
0410
0410
07F0
0410
0000
0000
0000
ENDCHAR

STARTCHAR A4B3
ENCODING 42163
SWIDTH 960 0
DWIDTH 16 0
BBX 16 16 0 -4
BITMAP
0000
0000
0000
0000
33CC
1144
1144
1F7C
1144
1144
1144
1F7C
1144
0000
0000
0000
ENDCHAR

STARTCHAR A4B4
ENCODING 42164
SWIDTH 960 0
DWIDTH 16 0
BBX 16 16 0 -4
BITMAP
0000
0000
0000
0000
3330
1118
1110
1F10
1130
1128
1148
1F84
1106
0000
0000
0000
ENDCHAR

STARTCHAR A4B5
ENCODING 42165
SWIDTH 960 0
DWIDTH 16 0
BBX 16 16 0 -4
BITMAP
0000
0000
0000
0000
0100
0180
0100
0100
0280
0280
0440
0820
1010
0000
0000
0000
ENDCHAR

STARTCHAR A4B6
ENCODING 42166
SWIDTH 960 0
DWIDTH 16 0
BBX 16 16 0 -4
BITMAP
0000
0000
0000
0000
0420
0630
0420
0420
0420
0A50
0950
1088
2108
0000
0000
0000
ENDCHAR

STARTCHAR A4B7
ENCODING 42167
SWIDTH 960 0
DWIDTH 16 0
BBX 16 16 0 -4
BITMAP
0000
0000
0000
0080
03E0
0410
0808
0808
0808
0808
0410
03E0
0000
0000
0000
0000
ENDCHAR

STARTCHAR A4B8
ENCODING 42168
SWIDTH 960 0
DWIDTH 16 0
BBX 16 16 0 -4
BITMAP
0000
0000
0000
0020
1FF0
0820
0040
0080
0180
0240
0420
1818
0000
0000
0000
0000
ENDCHAR

STARTCHAR A4B9
ENCODING 42169
SWIDTH 960 0
DWIDTH 16 0
BBX 16 16 0 -4
BITMAP
0000
0000
0000
0108
3FFC
1108
0108
0210
0620
0950
1088
2104
0000
0000
0000
0000
ENDCHAR

STARTCHAR A4BA
ENCODING 42170
SWIDTH 960 0
DWIDTH 16 0
BBX 16 16 0 -4
BITMAP
0000
0000
0000
07F0
0000
0008
0FFC
0408
0030
00C0
0330
0C0C
0000
0000
0000
0000
ENDCHAR

STARTCHAR A4BB
ENCODING 42171
SWIDTH 960 0
DWIDTH 16 0
BBX 16 16 0 -4
BITMAP
0000
0000
0000
0010
0FF8
0410
0010
0FF0
0410
0010
0020
0020
0000
0000
0000
0000
ENDCHAR

STARTCHAR A4BC
ENCODING 42172
SWIDTH 960 0
DWIDTH 16 0
BBX 16 16 0 -4
BITMAP
0000
0000
0000
0C10
07F8
0400
0410
07F8
0400
0400
0410
03F8
0000
0000
0000
0000
ENDCHAR

STARTCHAR A4BD
ENCODING 42173
SWIDTH 960 0
DWIDTH 16 0
BBX 16 16 0 -4
BITMAP
0000
0000
0000
0010
0FF8
0220
0220
0220
0220
0220
0220
0FF8
0400
0000
0000
0000
ENDCHAR

STARTCHAR A4BE
ENCODING 42174
SWIDTH 960 0
DWIDTH 16 0
BBX 16 16 0 -4
BITMAP
0000
0000
0000
07E0
0000
0008
3FFC
1000
0000
07E0
0810
0810
0810
07E0
0000
0000
ENDCHAR

STARTCHAR A4BF
ENCODING 42175
SWIDTH 960 0
DWIDTH 16 0
BBX 16 16 0 -4
BITMAP
0000
0300
0180
0100
0100
0100
0120
01F0
0100
0100
0100
0100
0100
0100
0100
0000
ENDCHAR

STARTCHAR A4C0
ENCODING 42176
SWIDTH 960 0
DWIDTH 16 0
BBX 16 16 0 -4
BITMAP
0000
00C0
0660
0340
0240
0240
0240
03C0
0240
0240
0240
0240
0240
0240
0040
0000
ENDCHAR

STARTCHAR A4C1
ENCODING 42177
SWIDTH 960 0
DWIDTH 16 0
BBX 16 16 0 -4
BITMAP
0000
0300
0180
0100
0120
01F0
0100
0100
0120
01F0
0100
0100
0100
0100
0100
0000
ENDCHAR

STARTCHAR A4C2
ENCODING 42178
SWIDTH 960 0
DWIDTH 16 0
BBX 16 16 0 -4
BITMAP
0000
00C0
0660
0340
0240
0240
03C0
0240
0240
03C0
0240
0240
0240
0240
0040
0000
ENDCHAR

STARTCHAR A4C3
ENCODING 42179
SWIDTH 960 0
DWIDTH 16 0
BBX 16 16 0 -4
BITMAP
0000
00C0
0060
0040
0040
0040
0040
07C0
0240
0040
0040
0040
0040
0040
0040
0000
ENDCHAR

STARTCHAR A4C4
ENCODING 42180
SWIDTH 960 0
DWIDTH 16 0
BBX 16 16 0 -4
BITMAP
0000
0060
0330
01A0
0120
0120
0120
1F20
0920
0120
0120
0120
0120
0120
0020
0000
ENDCHAR

STARTCHAR A4C5
ENCODING 42181
SWIDTH 960 0
DWIDTH 16 0
BBX 16 16 0 -4
BITMAP
0000
00C0
0060
0040
0040
07C0
0240
0040
0040
07C0
0240
0040
0040
0040
0040
0000
ENDCHAR

STARTCHAR A4C6
ENCODING 42182
SWIDTH 960 0
DWIDTH 16 0
BBX 16 16 0 -4
BITMAP
0000
0030
0198
00D0
0090
0090
0F90
0490
0090
0F90
0490
0090
0090
0090
0010
0000
ENDCHAR

STARTCHAR A4C7
ENCODING 42183
SWIDTH 960 0
DWIDTH 16 0
BBX 16 16 0 -4
BITMAP
0000
0000
0000
0000
0300
0180
0100
0100
0100
0104
7FFE
2000
0000
0000
0000
0000
ENDCHAR

STARTCHAR A4C8
ENCODING 42184
SWIDTH 960 0
DWIDTH 16 0
BBX 16 16 0 -4
BITMAP
0000
0060
0030
0020
0020
0420
0424
043E
0420
0420
7FE0
2020
0020
0020
0020
0000
ENDCHAR

STARTCHAR A4C9
ENCODING 42185
SWIDTH 960 0
DWIDTH 16 0
BBX 16 16 0 -4
BITMAP
0000
000C
0066
0034
0024
0424
0424
043C
0424
0424
7FE4
2024
0024
0024
0004
0000
ENDCHAR

STARTCHAR A4CA
ENCODING 42186
SWIDTH 960 0
DWIDTH 16 0
BBX 16 16 0 -4
BITMAP
0000
0018
000C
0008
0008
0208
0208
0208
0208
0208
7FF8
2008
0008
0008
0008
0000
ENDCHAR

STARTCHAR A4CB
ENCODING 42187
SWIDTH 960 0
DWIDTH 16 0
BBX 16 16 0 -4
BITMAP
0000
0000
0000
0000
0660
0330
0220
0220
0220
0224
7FFE
2000
0000
0000
0000
0000
ENDCHAR

STARTCHAR A4CC
ENCODING 42188
SWIDTH 960 0
DWIDTH 16 0
BBX 16 16 0 -4
BITMAP
0000
0000
0000
0000
0000
0004
7FFE
2080
0080
0080
0080
0080
0080
0080
0080
0000
ENDCHAR

STARTCHAR A4CD
ENCODING 42189
SWIDTH 960 0
DWIDTH 16 0
BBX 16 16 0 -4
BITMAP
0000
0018
000C
0008
0008
0008
0008
7FE8
2408
0408
04F8
0448
0408
0408
0408
0000
ENDCHAR

STARTCHAR A4CE
ENCODING 42190
SWIDTH 960 0
DWIDTH 16 0
BBX 16 16 0 -4
BITMAP
0000
0018
00CC
0068
0048
0048
03C8
7C48
2848
0BC8
0948
0848
0848
0848
0008
0000
ENDCHAR

STARTCHAR A4CF
ENCODING 42191
SWIDTH 960 0
DWIDTH 16 0
BBX 16 16 0 -4
BITMAP
0000
0018
000C
0008
0008
0008
0008
01F8
7E08
2208
0208
0208
0208
0208
0208
0000
ENDCHAR

STARTCHAR A4D0
ENCODING 42192
SWIDTH 960 0
DWIDTH 16 0
BBX 16 16 0 -4
BITMAP
0000
0000
0000
0000
0000
0004
7FFE
2220
0220
0220
0220
0220
0220
0220
0220
0000
ENDCHAR

STARTCHAR A4D1
ENCODING 42193
SWIDTH 960 0
DWIDTH 16 0
BBX 16 16 0 -4
BITMAP
0000
0000
0000
0000
0000
0000
0004
7FFE
2000
0000
0000
0000
0000
0000
0000
0000
ENDCHAR

STARTCHAR A4D2
ENCODING 42194
SWIDTH 960 0
DWIDTH 16 0
BBX 16 16 0 -4
BITMAP
0000
0060
0030
0020
0020
0020
0020
03E0
7C20
2020
0020
0020
0020
0020
0020
0000
ENDCHAR

STARTCHAR A4D3
ENCODING 42195
SWIDTH 960 0
DWIDTH 16 0
BBX 16 16 0 -4
BITMAP
0000
0300
0180
0100
0100
0100
0100
0100
0100
0100
0100
0100
0100
0100
0100
0000
ENDCHAR

STARTCHAR A4D4
ENCODING 42196
SWIDTH 960 0
DWIDTH 16 0
BBX 16 16 0 -4
BITMAP
0000
0000
0000
0000
0000
0000
0000
0000
0000
0000
0000
0000
0000
0000
0000
0000
ENDCHAR

STARTCHAR A4D5
ENCODING 42197
SWIDTH 960 0
DWIDTH 16 0
BBX 16 16 0 -4
BITMAP
0000
0000
0000
0000
6180
2080
2080
2080
2080
2080
2084
1F7E
0000
0000
0000
0000
ENDCHAR

STARTCHAR A4D6
ENCODING 42198
SWIDTH 960 0
DWIDTH 16 0
BBX 16 16 0 -4
BITMAP
0000
0000
0000
0004
61FE
2080
2080
2080
2080
2080
2084
1F7E
0000
0000
0000
0000
ENDCHAR

STARTCHAR A4D7
ENCODING 42199
SWIDTH 960 0
DWIDTH 16 0
BBX 16 16 0 -4
BITMAP
0000
0000
0000
0000
6020
2030
2020
2020
2020
2050
2088
1F06
0000
0000
0000
0000
ENDCHAR

STARTCHAR A4D8
ENCODING 42200
SWIDTH 960 0
DWIDTH 16 0
BBX 16 16 0 -4
BITMAP
0000
0000
0000
0000
6010
2010
2028
2028
2044
2044
2082
1FFE
0000
0000
0000
0000
ENDCHAR

STARTCHAR A4D9
ENCODING 42201
SWIDTH 960 0
DWIDTH 16 0
BBX 16 16 0 -4
BITMAP
0000
0000
0000
0000
7F88
0888
0888
7888
4094
4094
40A2
78C2
0000
0000
0000
0000
ENDCHAR

STARTCHAR A4DA
ENCODING 42202
SWIDTH 960 0
DWIDTH 16 0
BBX 16 16 0 -4
BITMAP
0000
0000
0000
02C4
7F7E
2240
0240
7F40
2040
2040
2044
1F3E
0000
0000
0000
0000
ENDCHAR

STARTCHAR A4DB
ENCODING 42203
SWIDTH 960 0
DWIDTH 16 0
BBX 16 16 0 -4
BITMAP
0000
0000
0000
0000
7A48
0A4C
0A48
7BC8
4254
4254
4262
7BE2
0000
0000
0000
0000
ENDCHAR

STARTCHAR A4DC
ENCODING 42204
SWIDTH 960 0
DWIDTH 16 0
BBX 16 16 0 -4
BITMAP
0000
0000
0000
0210
7F10
2210
0228
7E28
2044
2044
2082
1FFE
0000
0000
0000
0000
ENDCHAR

STARTCHAR A4DD
ENCODING 42205
SWIDTH 960 0
DWIDTH 16 0
BBX 16 16 0 -4
BITMAP
0000
0000
0000
0200
7F7E
2200
0200
7F3C
2042
2042
2042
1F3C
0000
0000
0000
0000
ENDCHAR

STARTCHAR A4DE
ENCODING 42206
SWIDTH 960 0
DWIDTH 16 0
BBX 16 16 0 -4
BITMAP
0000
0000
0000
22C6
7F42
2242
2242
227E
2242
2242
2242
3F7E
2042
0000
0000
0000
ENDCHAR

STARTCHAR A4DF
ENCODING 42207
SWIDTH 960 0
DWIDTH 16 0
BBX 16 16 0 -4
BITMAP
0000
0000
0000
2230
7F18
2210
2210
2210
2228
2228
2244
3F82
2000
0000
0000
0000
ENDCHAR

STARTCHAR A4E0
ENCODING 42208
SWIDTH 960 0
DWIDTH 16 0
BBX 16 16 0 -4
BITMAP
0000
0000
0000
2210
7F10
2210
2228
2228
2228
2244
2244
3FFE
2000
0000
0000
0000
ENDCHAR

STARTCHAR A4E1
ENCODING 42209
SWIDTH 960 0
DWIDTH 16 0
BBX 16 16 0 -4
BITMAP
0000
0000
0410
0FF8
0410
0410
07F8
0400
0000
03E0
0410
0410
0410
03E0
0000
0000
ENDCHAR

STARTCHAR A4E2
ENCODING 42210
SWIDTH 960 0
DWIDTH 16 0
BBX 16 16 0 -4
BITMAP
0000
0000
0000
0004
637E
2124
2104
2104
3F04
2104
2104
3F04
2104
0000
0000
0000
ENDCHAR

STARTCHAR A4E3
ENCODING 42211
SWIDTH 960 0
DWIDTH 16 0
BBX 16 16 0 -4
BITMAP
0000
0000
0000
6364
213E
2120
3F20
2120
2120
2120
3F24
211E
0000
0000
0000
0000
ENDCHAR

STARTCHAR A4E4
ENCODING 42212
SWIDTH 960 0
DWIDTH 16 0
BBX 16 16 0 -4
BITMAP
0000
0000
0000
0004
6DBE
24C4
2484
3C84
2544
2544
2544
3D24
2624
0000
0000
0000
ENDCHAR

STARTCHAR A4E5
ENCODING 42213
SWIDTH 960 0
DWIDTH 16 0
BBX 16 16 0 -4
BITMAP
0000
0000
0000
0000
6D9E
24D0
2490
3C90
2490
2550
2550
3E30
242E
0000
0000
0000
ENDCHAR

STARTCHAR A4E6
ENCODING 42214
SWIDTH 960 0
DWIDTH 16 0
BBX 16 16 0 -4
BITMAP
0000
0000
0000
0000
667E
2224
2204
3E08
2208
2214
2214
3E22
2242
0000
0000
0000
ENDCHAR

STARTCHAR A4E7
ENCODING 42215
SWIDTH 960 0
DWIDTH 16 0
BBX 16 16 0 -4
BITMAP
0000
0000
0000
0004
637E
2120
2120
2124
3F3E
2120
2120
2120
3F24
211E
0000
0000
ENDCHAR

STARTCHAR A4E8
ENCODING 42216
SWIDTH 960 0
DWIDTH 16 0
BBX 16 16 0 -4
BITMAP
0000
0000
0C30
0410
07F0
0410
0410
07F0
0410
0000
03E0
0410
0410
03E0
0000
0000
ENDCHAR

STARTCHAR A4E9
ENCODING 42217
SWIDTH 960 0
DWIDTH 16 0
BBX 16 16 0 -4
BITMAP
0000
0000
66CC
2244
3E7C
2244
2244
3E7C
2244
0000
0FF0
1008
1008
0FF0
0000
0000
ENDCHAR

STARTCHAR A4EA
ENCODING 42218
SWIDTH 960 0
DWIDTH 16 0
BBX 16 16 0 -4
BITMAP
0000
0000
0000
0004
18FE
0C44
0804
0804
1404
1404
2204
2204
4104
0000
0000
0000
ENDCHAR

STARTCHAR A4EB
ENCODING 42219
SWIDTH 960 0
DWIDTH 16 0
BBX 16 16 0 -4
BITMAP
0000
0000
0000
0000
18C0
0C40
0840
0840
1440
1440
2240
2244
413E
0000
0000
0000
ENDCHAR

STARTCHAR A4EC
ENCODING 42220
SWIDTH 960 0
DWIDTH 16 0
BBX 16 16 0 -4
BITMAP
0000
0000
0000
0000
18C4
0C7E
0840
0840
1440
1440
2240
2244
413E
0000
0000
0000
ENDCHAR

STARTCHAR A4ED
ENCODING 42221
SWIDTH 960 0
DWIDTH 16 0
BBX 16 16 0 -4
BITMAP
0000
0000
0000
0000
1866
0C22
0822
083E
1422
1422
2222
223E
4122
0000
0000
0000
ENDCHAR

STARTCHAR A4EE
ENCODING 42222
SWIDTH 960 0
DWIDTH 16 0
BBX 16 16 0 -4
BITMAP
0000
0000
0000
0004
187E
0C24
0804
0808
1408
1418
2214
2222
4142
0000
0000
0000
ENDCHAR

STARTCHAR A4EF
ENCODING 42223
SWIDTH 960 0
DWIDTH 16 0
BBX 16 16 0 -4
BITMAP
0000
0000
0000
0080
0080
0140
0140
0220
0220
0410
0410
07F0
0000
0000
0000
0000
ENDCHAR

STARTCHAR A4F0
ENCODING 42224
SWIDTH 960 0
DWIDTH 16 0
BBX 16 16 0 -4
BITMAP
0000
0000
0000
0810
1C38
2244
2244
2244
2244
2244
2244
1C38
0000
0000
0000
0000
ENDCHAR

STARTCHAR A4F1
ENCODING 42225
SWIDTH 960 0
DWIDTH 16 0
BBX 16 16 0 -4
BITMAP
0000
0000
0000
0080
01C0
0220
0410
0410
0410
0410
0220
01C0
0000
0000
0000
0000
ENDCHAR

STARTCHAR A4F2
ENCODING 42226
SWIDTH 960 0
DWIDTH 16 0
BBX 16 16 0 -4
BITMAP
0000
0000
0000
0430
0E18
1110
1110
1110
1128
1128
1144
0E44
0000
0000
0000
0000
ENDCHAR

STARTCHAR A4F3
ENCODING 42227
SWIDTH 960 0
DWIDTH 16 0
BBX 16 16 0 -4
BITMAP
0000
0000
0000
0410
0E10
1128
1128
1128
1144
1144
1144
0E7C
0000
0000
0000
0000
ENDCHAR

STARTCHAR A4F4
ENCODING 42228
SWIDTH 960 0
DWIDTH 16 0
BBX 16 16 0 -4
BITMAP
0000
0000
0010
1FF8
0420
0420
1FF8
0800
0000
07E0
0810
0810
0810
07E0
0000
0000
ENDCHAR

STARTCHAR A4F5
ENCODING 42229
SWIDTH 960 0
DWIDTH 16 0
BBX 16 16 0 -4
BITMAP
0000
0000
0000
0F3C
0000
1FFE
0000
0618
0924
0924
0924
0924
0618
0000
0000
0000
ENDCHAR

STARTCHAR A4F6
ENCODING 42230
SWIDTH 960 0
DWIDTH 16 0
BBX 16 16 0 -4
BITMAP
0000
0000
0000
07F8
0000
0000
01E0
0210
0210
0210
0210
0210
01E0
0000
0000
0000
ENDCHAR

STARTCHAR A4F7
ENCODING 42231
SWIDTH 960 0
DWIDTH 16 0
BBX 16 16 0 -4
BITMAP
0000
0030
0018
0010
0014
001E
0910
0914
091E
0910
7FF0
2010
0010
0010
0010
0000
ENDCHAR

STARTCHAR A4F8
ENCODING 42232
SWIDTH 960 0
DWIDTH 16 0
BBX 16 16 0 -4
BITMAP
0000
000C
0006
0064
0034
0024
003C
0924
0924
093C
7FE4
2024
0024
0024
0004
0000
ENDCHAR

STARTCHAR A4F9
ENCODING 42233
SWIDTH 960 0
DWIDTH 16 0
BBX 16 16 0 -4
BITMAP
0000
0030
0018
0010
0010
0010
0910
0910
0910
0910
7FF0
2010
0010
0010
0010
0000
ENDCHAR

STARTCHAR A4FA
ENCODING 42234
SWIDTH 960 0
DWIDTH 16 0
BBX 16 16 0 -4
BITMAP
0000
0030
0018
0010
0010
00F0
0010
0010
00F0
0010
7FD0
2A10
0A10
0A10
0A10
0000
ENDCHAR

STARTCHAR A4FB
ENCODING 42235
SWIDTH 960 0
DWIDTH 16 0
BBX 16 16 0 -4
BITMAP
0000
000C
0006
0064
0034
0024
00E4
0024
00E4
0024
7FA4
2A24
0A24
0A24
0A24
0000
ENDCHAR

STARTCHAR A4FC
ENCODING 42236
SWIDTH 960 0
DWIDTH 16 0
BBX 16 16 0 -4
BITMAP
0000
0030
0018
0010
0010
0010
0010
0010
0010
7FF0
2910
0910
0910
0910
0910
0000
ENDCHAR

STARTCHAR A4FD
ENCODING 42237
SWIDTH 960 0
DWIDTH 16 0
BBX 16 16 0 -4
BITMAP
0000
0000
0000
0000
0000
0000
0380
0380
0380
0000
0000
0000
0000
0000
0000
0000
ENDCHAR

STARTCHAR A4FE
ENCODING 42238
SWIDTH 960 0
DWIDTH 16 0
BBX 16 16 0 -4
BITMAP
0000
0060
0030
0020
0020
0020
0E20
0E20
0E20
0020
0020
0020
0020
0020
0020
0000
ENDCHAR

STARTCHAR A5A1
ENCODING 42401
SWIDTH 960 0
DWIDTH 16 0
BBX 16 16 0 -4
BITMAP
0000
0000
0100
0100
0000
0000
0100
0300
0100
0100
0100
0100
0100
0380
0000
0000
ENDCHAR

STARTCHAR A5A2
ENCODING 42402
SWIDTH 960 0
DWIDTH 16 0
BBX 16 16 0 -4
BITMAP
0000
0000
0240
0240
0000
0000
0240
06C0
0240
0240
0240
0240
0240
07E0
0000
0000
ENDCHAR

STARTCHAR A5A3
ENCODING 42403
SWIDTH 960 0
DWIDTH 16 0
BBX 16 16 0 -4
BITMAP
0000
0000
0920
0920
0000
0000
0920
1B60
0920
0920
0920
0920
0920
1FF0
0000
0000
ENDCHAR

STARTCHAR A5A4
ENCODING 42404
SWIDTH 960 0
DWIDTH 16 0
BBX 16 16 0 -4
BITMAP
0000
0000
0800
0800
0000
0000
0BB8
1910
0910
08A0
08A0
08A0
0840
1C40
0000
0000
ENDCHAR

STARTCHAR A5A5
ENCODING 42405
SWIDTH 960 0
DWIDTH 16 0
BBX 16 16 0 -4
BITMAP
0000
0000
0000
0000
0000
0000
0EE0
0440
0440
0280
0280
0280
0100
0100
0000
0000
ENDCHAR

STARTCHAR A5A6
ENCODING 42406
SWIDTH 960 0
DWIDTH 16 0
BBX 16 16 0 -4
BITMAP
0000
0000
0010
0010
0000
0000
1DD0
08B0
0890
0510
0510
0510
0210
0238
0000
0000
ENDCHAR

STARTCHAR A5A7
ENCODING 42407
SWIDTH 960 0
DWIDTH 16 0
BBX 16 16 0 -4
BITMAP
0000
0000
0048
0048
0000
0000
7748
22D8
2248
1448
1448
1448
0848
08FC
0000
0000
ENDCHAR

STARTCHAR A5A8
ENCODING 42408
SWIDTH 960 0
DWIDTH 16 0
BBX 16 16 0 -4
BITMAP
0000
0000
0124
0124
0000
0000
7D24
2B6C
2924
2924
2924
2924
1124
13FE
0000
0000
ENDCHAR

STARTCHAR A5A9
ENCODING 42409
SWIDTH 960 0
DWIDTH 16 0
BBX 16 16 0 -4
BITMAP
0000
0000
0800
0800
0000
0000
0BB8
1910
08A0
0840
0840
08A0
0910
1FB8
0000
0000
ENDCHAR

STARTCHAR A5AA
ENCODING 42410
SWIDTH 960 0
DWIDTH 16 0
BBX 16 16 0 -4
BITMAP
0000
0000
0000
0000
0000
0000
0E70
0420
0240
0180
0080
0140
0220
0F70
0000
0000
ENDCHAR

STARTCHAR A5B0
ENCODING 42416
SWIDTH 960 0
DWIDTH 16 0
BBX 16 16 0 -4
BITMAP
0000
0000
0380
0100
0100
0100
0100
0100
0100
0100
0100
0100
0100
0380
0000
0000
ENDCHAR

STARTCHAR A5B1
ENCODING 42417
SWIDTH 960 0
DWIDTH 16 0
BBX 16 16 0 -4
BITMAP
0000
0000
07E0
0240
0240
0240
0240
0240
0240
0240
0240
0240
0240
07E0
0000
0000
ENDCHAR

STARTCHAR A5B2
ENCODING 42418
SWIDTH 960 0
DWIDTH 16 0
BBX 16 16 0 -4
BITMAP
0000
0000
1FF0
0920
0920
0920
0920
0920
0920
0920
0920
0920
0920
1FF0
0000
0000
ENDCHAR

STARTCHAR A5B3
ENCODING 42419
SWIDTH 960 0
DWIDTH 16 0
BBX 16 16 0 -4
BITMAP
0000
0000
1FB8
0910
0910
0910
08A0
08A0
08A0
08A0
0840
0840
0840
1C40
0000
0000
ENDCHAR

STARTCHAR A5B4
ENCODING 42420
SWIDTH 960 0
DWIDTH 16 0
BBX 16 16 0 -4
BITMAP
0000
0000
0EE0
0440
0440
0440
0280
0280
0280
0280
0100
0100
0100
0100
0000
0000
ENDCHAR

STARTCHAR A5B5
ENCODING 42421
SWIDTH 960 0
DWIDTH 16 0
BBX 16 16 0 -4
BITMAP
0000
0000
1DF8
0890
0890
0890
0510
0510
0510
0510
0210
0210
0210
0238
0000
0000
ENDCHAR

STARTCHAR A5B6
ENCODING 42422
SWIDTH 960 0
DWIDTH 16 0
BBX 16 16 0 -4
BITMAP
0000
0000
3BF8
1150
1150
1150
0A50
0A50
0A50
0A50
0450
0450
0450
04F8
0000
0000
ENDCHAR

STARTCHAR A5B7
ENCODING 42423
SWIDTH 960 0
DWIDTH 16 0
BBX 16 16 0 -4
BITMAP
0000
0000
3BFE
1154
1154
1154
0A54
0A54
0A54
0A54
0454
0454
0454
04FE
0000
0000
ENDCHAR

STARTCHAR A5B8
ENCODING 42424
SWIDTH 960 0
DWIDTH 16 0
BBX 16 16 0 -4
BITMAP
0000
0000
1FF8
0910
0910
08A0
08A0
0840
0840
08A0
08A0
0910
0910
1FF8
0000
0000
ENDCHAR

STARTCHAR A5B9
ENCODING 42425
SWIDTH 960 0
DWIDTH 16 0
BBX 16 16 0 -4
BITMAP
0000
0000
0E38
0410
0220
0220
0140
0080
0080
0140
0220
0220
0410
0E38
0000
0000
ENDCHAR

STARTCHAR A5C1
ENCODING 42433
SWIDTH 960 0
DWIDTH 16 0
BBX 16 16 0 -4
BITMAP
0000
0000
0000
0010
0030
0050
0050
0090
0110
03F0
0210
0410
0810
3E38
0000
0000
ENDCHAR

STARTCHAR A5C2
ENCODING 42434
SWIDTH 960 0
DWIDTH 16 0
BBX 16 16 0 -4
BITMAP
0000
0000
0000
07E0
0210
0210
0220
07C0
0420
0410
0810
0810
0820
1FC0
0000
0000
ENDCHAR

STARTCHAR A5C3
ENCODING 42435
SWIDTH 960 0
DWIDTH 16 0
BBX 16 16 0 -4
BITMAP
0000
0000
0000
07F0
0210
0210
0200
0200
0200
0400
0400
0400
0400
0E00
0000
0000
ENDCHAR

STARTCHAR A5C4
ENCODING 42436
SWIDTH 960 0
DWIDTH 16 0
BBX 16 16 0 -4
BITMAP
0000
0000
0000
0010
0030
0050
0050
0090
0110
0220
0220
0420
0820
1FE0
0000
0000
ENDCHAR

STARTCHAR A5C5
ENCODING 42437
SWIDTH 960 0
DWIDTH 16 0
BBX 16 16 0 -4
BITMAP
0000
0000
0000
07F0
0210
0200
0220
03E0
0240
0440
0400
0420
0420
0FE0
0000
0000
ENDCHAR

STARTCHAR A5C6
ENCODING 42438
SWIDTH 960 0
DWIDTH 16 0
BBX 16 16 0 -4
BITMAP
0000
0000
0000
07F0
0410
0020
0040
0040
0080
0100
0200
0220
0420
0FE0
0000
0000
ENDCHAR

STARTCHAR A5C7
ENCODING 42439
SWIDTH 960 0
DWIDTH 16 0
BBX 16 16 0 -4
BITMAP
0000
0000
0000
0E70
0420
0420
0420
0420
0FE0
0840
0840
0840
0840
1CE0
0000
0000
ENDCHAR

STARTCHAR A5C8
ENCODING 42440
SWIDTH 960 0
DWIDTH 16 0
BBX 16 16 0 -4
BITMAP
0000
0000
01C0
0220
0410
0410
0810
0A50
0BD0
0A50
0810
0820
0820
0440
0380
0000
ENDCHAR

STARTCHAR A5C9
ENCODING 42441
SWIDTH 960 0
DWIDTH 16 0
BBX 16 16 0 -4
BITMAP
0000
0000
0000
01C0
0080
0080
0080
0080
0100
0100
0100
0100
0100
0380
0000
0000
ENDCHAR

STARTCHAR A5CA
ENCODING 42442
SWIDTH 960 0
DWIDTH 16 0
BBX 16 16 0 -4
BITMAP
0000
0000
0000
0F78
0420
0440
0480
0500
0680
0C80
0880
0840
0840
1EE0
0000
0000
ENDCHAR

STARTCHAR A5CB
ENCODING 42443
SWIDTH 960 0
DWIDTH 16 0
BBX 16 16 0 -4
BITMAP
0000
0000
0000
0010
0030
0050
0050
0090
0110
0210
0210
0410
0810
3C38
0000
0000
ENDCHAR

STARTCHAR A5CC
ENCODING 42444
SWIDTH 960 0
DWIDTH 16 0
BBX 16 16 0 -4
BITMAP
0000
0000
0000
1C1E
0418
0428
0628
0A50
0A50
0990
1190
1120
1120
7878
0000
0000
ENDCHAR

STARTCHAR A5CD
ENCODING 42445
SWIDTH 960 0
DWIDTH 16 0
BBX 16 16 0 -4
BITMAP
0000
0000
0000
0638
0210
0210
0520
0520
0520
04A0
08C0
08C0
0840
1C40
0000
0000
ENDCHAR

STARTCHAR A5CE
ENCODING 42446
SWIDTH 960 0
DWIDTH 16 0
BBX 16 16 0 -4
BITMAP
0000
0000
0000
07F0
0410
0000
0220
0220
03E0
0440
0440
0000
0820
0FE0
0000
0000
ENDCHAR

STARTCHAR A5CF
ENCODING 42447
SWIDTH 960 0
DWIDTH 16 0
BBX 16 16 0 -4
BITMAP
0000
0000
01C0
0220
0410
0410
0810
0810
0810
0810
0820
0820
0440
0380
0000
0000
ENDCHAR

STARTCHAR A5D0
ENCODING 42448
SWIDTH 960 0
DWIDTH 16 0
BBX 16 16 0 -4
BITMAP
0000
0000
0000
0FF8
0410
0410
0410
0410
0410
0820
0820
0820
0820
1CF0
0000
0000
ENDCHAR

STARTCHAR A5D1
ENCODING 42449
SWIDTH 960 0
DWIDTH 16 0
BBX 16 16 0 -4
BITMAP
0000
0000
0000
0FE0
0410
0410
0410
0420
07C0
0800
0800
0800
0800
1C00
0000
0000
ENDCHAR

STARTCHAR A5D2
ENCODING 42450
SWIDTH 960 0
DWIDTH 16 0
BBX 16 16 0 -4
BITMAP
0000
0000
0000
07F0
0410
0210
0100
0080
0080
0100
0220
0420
0820
1FE0
0000
0000
ENDCHAR

STARTCHAR A5D3
ENCODING 42451
SWIDTH 960 0
DWIDTH 16 0
BBX 16 16 0 -4
BITMAP
0000
0000
0000
0FF0
0910
0910
0100
0100
0100
0200
0200
0200
0200
0700
0000
0000
ENDCHAR

STARTCHAR A5D4
ENCODING 42452
SWIDTH 960 0
DWIDTH 16 0
BBX 16 16 0 -4
BITMAP
0000
0000
0000
0460
0280
0300
0200
0200
0200
0400
0400
0400
0400
0E00
0000
0000
ENDCHAR

STARTCHAR A5D5
ENCODING 42453
SWIDTH 960 0
DWIDTH 16 0
BBX 16 16 0 -4
BITMAP
0000
0000
01C0
0080
03C0
04A0
0890
0890
0910
0910
0910
0520
03C0
0100
0380
0000
ENDCHAR

STARTCHAR A5D6
ENCODING 42454
SWIDTH 960 0
DWIDTH 16 0
BBX 16 16 0 -4
BITMAP
0000
0000
0000
0770
0220
0220
0140
0140
0080
0180
0240
0240
0420
0EF0
0000
0000
ENDCHAR

STARTCHAR A5D7
ENCODING 42455
SWIDTH 960 0
DWIDTH 16 0
BBX 16 16 0 -4
BITMAP
0000
0000
0000
1398
0920
0920
0920
0920
0920
0A40
0780
0200
0200
0700
0000
0000
ENDCHAR

STARTCHAR A5D8
ENCODING 42456
SWIDTH 960 0
DWIDTH 16 0
BBX 16 16 0 -4
BITMAP
0000
0000
0000
01C0
0220
0410
0410
0410
0420
0260
0280
0280
1290
1EF0
0000
0000
ENDCHAR

STARTCHAR A5E1
ENCODING 42465
SWIDTH 960 0
DWIDTH 16 0
BBX 16 16 0 -4
BITMAP
0000
0000
0000
0000
0000
0000
0390
0460
0840
0840
0840
0840
0460
0390
0000
0000
ENDCHAR

STARTCHAR A5E2
ENCODING 42466
SWIDTH 960 0
DWIDTH 16 0
BBX 16 16 0 -4
BITMAP
0000
0000
0000
00E0
0110
0110
0220
02C0
0220
0420
0420
0440
0B80
0800
0800
0000
ENDCHAR

STARTCHAR A5E3
ENCODING 42467
SWIDTH 960 0
DWIDTH 16 0
BBX 16 16 0 -4
BITMAP
0000
0000
0000
0000
0000
0000
0260
0580
0180
0100
0100
0300
0300
0300
0200
0000
ENDCHAR

STARTCHAR A5E4
ENCODING 42468
SWIDTH 960 0
DWIDTH 16 0
BBX 16 16 0 -4
BITMAP
0000
0000
0300
0480
0400
0200
0180
0240
0420
0420
0420
0440
0440
0380
0000
0000
ENDCHAR

STARTCHAR A5E5
ENCODING 42469
SWIDTH 960 0
DWIDTH 16 0
BBX 16 16 0 -4
BITMAP
0000
0000
0000
0000
0000
0000
01C0
0220
0200
0180
0400
0400
0440
0380
0000
0000
ENDCHAR

STARTCHAR A5E6
ENCODING 42470
SWIDTH 960 0
DWIDTH 16 0
BBX 16 16 0 -4
BITMAP
0000
0000
0120
0260
02C0
0100
0200
0200
0400
0400
0400
0380
0040
0040
0180
0000
ENDCHAR

STARTCHAR A5E7
ENCODING 42471
SWIDTH 960 0
DWIDTH 16 0
BBX 16 16 0 -4
BITMAP
0000
0000
0000
0000
0000
0000
0360
0490
0110
0110
0220
0220
0420
0040
0040
0000
ENDCHAR

STARTCHAR A5E8
ENCODING 42472
SWIDTH 960 0
DWIDTH 16 0
BBX 16 16 0 -4
BITMAP
0000
0000
00C0
0120
0220
0220
0420
07C0
0440
0840
0880
0880
0900
0600
0000
0000
ENDCHAR

STARTCHAR A5E9
ENCODING 42473
SWIDTH 960 0
DWIDTH 16 0
BBX 16 16 0 -4
BITMAP
0000
0000
0000
0000
0000
0000
0080
0180
0100
0100
0200
0200
0240
0180
0000
0000
ENDCHAR

STARTCHAR A5EA
ENCODING 42474
SWIDTH 960 0
DWIDTH 16 0
BBX 16 16 0 -4
BITMAP
0000
0000
0000
0000
0000
0000
0260
0280
0280
0300
0700
0520
0520
04C0
0000
0000
ENDCHAR

STARTCHAR A5EB
ENCODING 42475
SWIDTH 960 0
DWIDTH 16 0
BBX 16 16 0 -4
BITMAP
0000
0000
0180
01C0
0040
0040
0040
0080
0080
0180
0180
0240
0640
0660
0000
0000
ENDCHAR

STARTCHAR A5EC
ENCODING 42476
SWIDTH 960 0
DWIDTH 16 0
BBX 16 16 0 -4
BITMAP
0000
0000
0000
0000
0000
0000
0220
0220
0220
0440
0440
04C0
0B60
0800
0800
0000
ENDCHAR

STARTCHAR A5ED
ENCODING 42477
SWIDTH 960 0
DWIDTH 16 0
BBX 16 16 0 -4
BITMAP
0000
0000
0000
0000
0000
0000
0420
0220
0220
0240
0240
0480
0700
0400
0000
0000
ENDCHAR

STARTCHAR A5EE
ENCODING 42478
SWIDTH 960 0
DWIDTH 16 0
BBX 16 16 0 -4
BITMAP
0000
0000
00C0
0100
01E0
0200
0200
01C0
0200
0400
0400
0380
0040
0040
0180
0000
ENDCHAR

STARTCHAR A5EF
ENCODING 42479
SWIDTH 960 0
DWIDTH 16 0
BBX 16 16 0 -4
BITMAP
0000
0000
0000
0000
0000
0000
01C0
0220
0220
0420
0420
0440
0440
0380
0000
0000
ENDCHAR

STARTCHAR A5F0
ENCODING 42480
SWIDTH 960 0
DWIDTH 16 0
BBX 16 16 0 -4
BITMAP
0000
0000
0000
0000
0000
0000
07F0
0A40
0240
0240
0480
0480
0CA0
0C40
0000
0000
ENDCHAR

STARTCHAR A5F1
ENCODING 42481
SWIDTH 960 0
DWIDTH 16 0
BBX 16 16 0 -4
BITMAP
0000
0000
0000
0000
0000
0000
01C0
0220
0220
0420
0440
0440
0B80
0800
0800
0000
ENDCHAR

STARTCHAR A5F2
ENCODING 42482
SWIDTH 960 0
DWIDTH 16 0
BBX 16 16 0 -4
BITMAP
0000
0000
0000
0000
0000
0000
01E0
0680
0440
0840
0840
0880
0880
0700
0000
0000
ENDCHAR

STARTCHAR A5F3
ENCODING 42483
SWIDTH 960 0
DWIDTH 16 0
BBX 16 16 0 -4
BITMAP
0000
0000
0000
0000
0000
0000
03E0
0480
0080
0100
0100
0200
0240
0180
0000
0000
ENDCHAR

STARTCHAR A5F4
ENCODING 42484
SWIDTH 960 0
DWIDTH 16 0
BBX 16 16 0 -4
BITMAP
0000
0000
0000
0000
0000
0000
0620
0220
0220
0220
0420
0440
0440
0380
0000
0000
ENDCHAR

STARTCHAR A5F5
ENCODING 42485
SWIDTH 960 0
DWIDTH 16 0
BBX 16 16 0 -4
BITMAP
0000
0000
0000
0000
0000
0000
0040
04A0
04A0
0920
0940
0940
0780
0200
0200
0000
ENDCHAR

STARTCHAR A5F6
ENCODING 42486
SWIDTH 960 0
DWIDTH 16 0
BBX 16 16 0 -4
BITMAP
0000
0000
0000
0000
0000
0000
0220
0520
0140
0180
0100
0300
0540
0940
0880
0000
ENDCHAR

STARTCHAR A5F7
ENCODING 42487
SWIDTH 960 0
DWIDTH 16 0
BBX 16 16 0 -4
BITMAP
0000
0000
0080
0080
0080
0080
00A0
0510
0910
0920
0960
0780
0200
0200
0200
0000
ENDCHAR

STARTCHAR A5F8
ENCODING 42488
SWIDTH 960 0
DWIDTH 16 0
BBX 16 16 0 -4
BITMAP
0000
0000
0000
0000
0000
0000
0000
0420
0490
0890
0910
0910
0920
06C0
0000
0000
ENDCHAR

STARTCHAR A6A1
ENCODING 42657
SWIDTH 960 0
DWIDTH 16 0
BBX 16 16 0 -4
BITMAP
0000
0000
0000
0000
0000
0000
0000
0000
FFFF
0000
0000
0000
0000
0000
0000
0000
ENDCHAR

STARTCHAR A6A2
ENCODING 42658
SWIDTH 960 0
DWIDTH 16 0
BBX 16 16 0 -4
BITMAP
0080
0080
0080
0080
0080
0080
0080
0080
0080
0080
0080
0080
0080
0080
0080
0080
ENDCHAR

STARTCHAR A6A3
ENCODING 42659
SWIDTH 960 0
DWIDTH 16 0
BBX 16 16 0 -4
BITMAP
0000
0000
0000
0000
0000
0000
0000
0000
00FF
0080
0080
0080
0080
0080
0080
0080
ENDCHAR

STARTCHAR A6A4
ENCODING 42660
SWIDTH 960 0
DWIDTH 16 0
BBX 16 16 0 -4
BITMAP
0000
0000
0000
0000
0000
0000
0000
0000
FF80
0080
0080
0080
0080
0080
0080
0080
ENDCHAR

STARTCHAR A6A5
ENCODING 42661
SWIDTH 960 0
DWIDTH 16 0
BBX 16 16 0 -4
BITMAP
0080
0080
0080
0080
0080
0080
0080
0080
FF80
0000
0000
0000
0000
0000
0000
0000
ENDCHAR

STARTCHAR A6A6
ENCODING 42662
SWIDTH 960 0
DWIDTH 16 0
BBX 16 16 0 -4
BITMAP
0080
0080
0080
0080
0080
0080
0080
0080
00FF
0000
0000
0000
0000
0000
0000
0000
ENDCHAR

STARTCHAR A6A7
ENCODING 42663
SWIDTH 960 0
DWIDTH 16 0
BBX 16 16 0 -4
BITMAP
0080
0080
0080
0080
0080
0080
0080
0080
00FF
0080
0080
0080
0080
0080
0080
0080
ENDCHAR

STARTCHAR A6A8
ENCODING 42664
SWIDTH 960 0
DWIDTH 16 0
BBX 16 16 0 -4
BITMAP
0000
0000
0000
0000
0000
0000
0000
0000
FFFF
0080
0080
0080
0080
0080
0080
0080
ENDCHAR

STARTCHAR A6A9
ENCODING 42665
SWIDTH 960 0
DWIDTH 16 0
BBX 16 16 0 -4
BITMAP
0080
0080
0080
0080
0080
0080
0080
0080
FF80
0080
0080
0080
0080
0080
0080
0080
ENDCHAR

STARTCHAR A6AA
ENCODING 42666
SWIDTH 960 0
DWIDTH 16 0
BBX 16 16 0 -4
BITMAP
0080
0080
0080
0080
0080
0080
0080
0080
FFFF
0000
0000
0000
0000
0000
0000
0000
ENDCHAR

STARTCHAR A6AB
ENCODING 42667
SWIDTH 960 0
DWIDTH 16 0
BBX 16 16 0 -4
BITMAP
0080
0080
0080
0080
0080
0080
0080
0080
FFFF
0080
0080
0080
0080
0080
0080
0080
ENDCHAR

STARTCHAR A6AC
ENCODING 42668
SWIDTH 960 0
DWIDTH 16 0
BBX 16 16 0 -4
BITMAP
0000
0000
0000
0000
0000
0000
0000
FFFF
FFFF
0000
0000
0000
0000
0000
0000
0000
ENDCHAR

STARTCHAR A6AD
ENCODING 42669
SWIDTH 960 0
DWIDTH 16 0
BBX 16 16 0 -4
BITMAP
0180
0180
0180
0180
0180
0180
0180
0180
0180
0180
0180
0180
0180
0180
0180
0180
ENDCHAR

STARTCHAR A6AE
ENCODING 42670
SWIDTH 960 0
DWIDTH 16 0
BBX 16 16 0 -4
BITMAP
0000
0000
0000
0000
0000
0000
0000
01FF
01FF
0180
0180
0180
0180
0180
0180
0180
ENDCHAR

STARTCHAR A6AF
ENCODING 42671
SWIDTH 960 0
DWIDTH 16 0
BBX 16 16 0 -4
BITMAP
0000
0000
0000
0000
0000
0000
0000
FF80
FF80
0180
0180
0180
0180
0180
0180
0180
ENDCHAR

STARTCHAR A6B0
ENCODING 42672
SWIDTH 960 0
DWIDTH 16 0
BBX 16 16 0 -4
BITMAP
0180
0180
0180
0180
0180
0180
0180
FF80
FF80
0000
0000
0000
0000
0000
0000
0000
ENDCHAR

STARTCHAR A6B1
ENCODING 42673
SWIDTH 960 0
DWIDTH 16 0
BBX 16 16 0 -4
BITMAP
0180
0180
0180
0180
0180
0180
0180
01FF
01FF
0000
0000
0000
0000
0000
0000
0000
ENDCHAR

STARTCHAR A6B2
ENCODING 42674
SWIDTH 960 0
DWIDTH 16 0
BBX 16 16 0 -4
BITMAP
0180
0180
0180
0180
0180
0180
0180
01FF
01FF
0180
0180
0180
0180
0180
0180
0180
ENDCHAR

STARTCHAR A6B3
ENCODING 42675
SWIDTH 960 0
DWIDTH 16 0
BBX 16 16 0 -4
BITMAP
0000
0000
0000
0000
0000
0000
0000
FFFF
FFFF
0180
0180
0180
0180
0180
0180
0180
ENDCHAR

STARTCHAR A6B4
ENCODING 42676
SWIDTH 960 0
DWIDTH 16 0
BBX 16 16 0 -4
BITMAP
0180
0180
0180
0180
0180
0180
0180
FF80
FF80
0180
0180
0180
0180
0180
0180
0180
ENDCHAR

STARTCHAR A6B5
ENCODING 42677
SWIDTH 960 0
DWIDTH 16 0
BBX 16 16 0 -4
BITMAP
0180
0180
0180
0180
0180
0180
0180
FFFF
FFFF
0000
0000
0000
0000
0000
0000
0000
ENDCHAR

STARTCHAR A6B6
ENCODING 42678
SWIDTH 960 0
DWIDTH 16 0
BBX 16 16 0 -4
BITMAP
0180
0180
0180
0180
0180
0180
0180
FFFF
FFFF
0180
0180
0180
0180
0180
0180
0180
ENDCHAR

STARTCHAR A6B7
ENCODING 42679
SWIDTH 960 0
DWIDTH 16 0
BBX 16 16 0 -4
BITMAP
0180
0180
0180
0180
0180
0180
0180
0180
01FF
0180
0180
0180
0180
0180
0180
0180
ENDCHAR

STARTCHAR A6B8
ENCODING 42680
SWIDTH 960 0
DWIDTH 16 0
BBX 16 16 0 -4
BITMAP
0000
0000
0000
0000
0000
0000
0000
FFFF
FFFF
0080
0080
0080
0080
0080
0080
0080
ENDCHAR

STARTCHAR A6B9
ENCODING 42681
SWIDTH 960 0
DWIDTH 16 0
BBX 16 16 0 -4
BITMAP
0180
0180
0180
0180
0180
0180
0180
0180
FF80
0180
0180
0180
0180
0180
0180
0180
ENDCHAR

STARTCHAR A6BA
ENCODING 42682
SWIDTH 960 0
DWIDTH 16 0
BBX 16 16 0 -4
BITMAP
0080
0080
0080
0080
0080
0080
0080
FFFF
FFFF
0000
0000
0000
0000
0000
0000
0000
ENDCHAR

STARTCHAR A6BB
ENCODING 42683
SWIDTH 960 0
DWIDTH 16 0
BBX 16 16 0 -4
BITMAP
0080
0080
0080
0080
0080
0080
0080
FFFF
FFFF
0080
0080
0080
0080
0080
0080
0080
ENDCHAR

STARTCHAR A6BC
ENCODING 42684
SWIDTH 960 0
DWIDTH 16 0
BBX 16 16 0 -4
BITMAP
0080
0080
0080
0080
0080
0080
0080
00FF
00FF
0080
0080
0080
0080
0080
0080
0080
ENDCHAR

STARTCHAR A6BD
ENCODING 42685
SWIDTH 960 0
DWIDTH 16 0
BBX 16 16 0 -4
BITMAP
0000
0000
0000
0000
0000
0000
0000
0000
FFFF
0180
0180
0180
0180
0180
0180
0180
ENDCHAR

STARTCHAR A6BE
ENCODING 42686
SWIDTH 960 0
DWIDTH 16 0
BBX 16 16 0 -4
BITMAP
0080
0080
0080
0080
0080
0080
0080
FF80
FF80
0080
0080
0080
0080
0080
0080
0080
ENDCHAR

STARTCHAR A6BF
ENCODING 42687
SWIDTH 960 0
DWIDTH 16 0
BBX 16 16 0 -4
BITMAP
0180
0180
0180
0180
0180
0180
0180
0180
FFFF
0000
0000
0000
0000
0000
0000
0000
ENDCHAR

STARTCHAR A6C0
ENCODING 42688
SWIDTH 960 0
DWIDTH 16 0
BBX 16 16 0 -4
BITMAP
0180
0180
0180
0180
0180
0180
0180
0180
FFFF
0180
0180
0180
0180
0180
0180
0180
ENDCHAR

STARTCHAR A6C1
ENCODING 42689
SWIDTH 960 0
DWIDTH 16 0
BBX 16 16 0 -4
BITMAP
0000
0000
0000
0000
0000
0000
0000
0000
FF80
0180
0180
0180
0180
0180
0180
0180
ENDCHAR

STARTCHAR A6C2
ENCODING 42690
SWIDTH 960 0
DWIDTH 16 0
BBX 16 16 0 -4
BITMAP
0000
0000
0000
0000
0000
0000
0000
FF80
FF80
0080
0080
0080
0080
0080
0080
0080
ENDCHAR

STARTCHAR A6C3
ENCODING 42691
SWIDTH 960 0
DWIDTH 16 0
BBX 16 16 0 -4
BITMAP
0180
0180
0180
0180
0180
0180
0180
0180
FF80
0000
0000
0000
0000
0000
0000
0000
ENDCHAR

STARTCHAR A6C4
ENCODING 42692
SWIDTH 960 0
DWIDTH 16 0
BBX 16 16 0 -4
BITMAP
0080
0080
0080
0080
0080
0080
0080
FF80
FF80
0000
0000
0000
0000
0000
0000
0000
ENDCHAR

STARTCHAR A6C5
ENCODING 42693
SWIDTH 960 0
DWIDTH 16 0
BBX 16 16 0 -4
BITMAP
0180
0180
0180
0180
0180
0180
0180
0180
01FF
0000
0000
0000
0000
0000
0000
0000
ENDCHAR

STARTCHAR A6C6
ENCODING 42694
SWIDTH 960 0
DWIDTH 16 0
BBX 16 16 0 -4
BITMAP
0080
0080
0080
0080
0080
0080
0080
00FF
00FF
0000
0000
0000
0000
0000
0000
0000
ENDCHAR

STARTCHAR A6C7
ENCODING 42695
SWIDTH 960 0
DWIDTH 16 0
BBX 16 16 0 -4
BITMAP
0000
0000
0000
0000
0000
0000
0000
0000
01FF
0180
0180
0180
0180
0180
0180
0180
ENDCHAR

STARTCHAR A6C8
ENCODING 42696
SWIDTH 960 0
DWIDTH 16 0
BBX 16 16 0 -4
BITMAP
0000
0000
0000
0000
0000
0000
0000
00FF
00FF
0080
0080
0080
0080
0080
0080
0080
ENDCHAR

STARTCHAR A6C9
ENCODING 42697
SWIDTH 960 0
DWIDTH 16 0
BBX 16 16 0 -4
BITMAP
0180
0180
0180
0180
0180
0180
0180
0180
01FF
0080
0080
0080
0080
0080
0080
0080
ENDCHAR

STARTCHAR A6CA
ENCODING 42698
SWIDTH 960 0
DWIDTH 16 0
BBX 16 16 0 -4
BITMAP
0080
0080
0080
0080
0080
0080
0080
0080
01FF
0180
0180
0180
0180
0180
0180
0180
ENDCHAR

STARTCHAR A6CB
ENCODING 42699
SWIDTH 960 0
DWIDTH 16 0
BBX 16 16 0 -4
BITMAP
0180
0180
0180
0180
0180
0180
0180
01FF
01FF
0080
0080
0080
0080
0080
0080
0080
ENDCHAR

STARTCHAR A6CC
ENCODING 42700
SWIDTH 960 0
DWIDTH 16 0
BBX 16 16 0 -4
BITMAP
0080
0080
0080
0080
0080
0080
0080
01FF
01FF
0180
0180
0180
0180
0180
0180
0180
ENDCHAR

STARTCHAR A6CD
ENCODING 42701
SWIDTH 960 0
DWIDTH 16 0
BBX 16 16 0 -4
BITMAP
0180
0180
0180
0180
0180
0180
0180
0180
FF80
0080
0080
0080
0080
0080
0080
0080
ENDCHAR

STARTCHAR A6CE
ENCODING 42702
SWIDTH 960 0
DWIDTH 16 0
BBX 16 16 0 -4
BITMAP
0080
0080
0080
0080
0080
0080
0080
0080
FF80
0180
0180
0180
0180
0180
0180
0180
ENDCHAR

STARTCHAR A6CF
ENCODING 42703
SWIDTH 960 0
DWIDTH 16 0
BBX 16 16 0 -4
BITMAP
0180
0180
0180
0180
0180
0180
0180
FF80
FF80
0080
0080
0080
0080
0080
0080
0080
ENDCHAR

STARTCHAR A6D0
ENCODING 42704
SWIDTH 960 0
DWIDTH 16 0
BBX 16 16 0 -4
BITMAP
0080
0080
0080
0080
0080
0080
0080
FF80
FF80
0180
0180
0180
0180
0180
0180
0180
ENDCHAR

STARTCHAR A6D1
ENCODING 42705
SWIDTH 960 0
DWIDTH 16 0
BBX 16 16 0 -4
BITMAP
0000
0000
0000
0000
0000
0000
0000
FF80
FFFF
0080
0080
0080
0080
0080
0080
0080
ENDCHAR

STARTCHAR A6D2
ENCODING 42706
SWIDTH 960 0
DWIDTH 16 0
BBX 16 16 0 -4
BITMAP
0000
0000
0000
0000
0000
0000
0000
00FF
FFFF
0080
0080
0080
0080
0080
0080
0080
ENDCHAR

STARTCHAR A6D3
ENCODING 42707
SWIDTH 960 0
DWIDTH 16 0
BBX 16 16 0 -4
BITMAP
0000
0000
0000
0000
0000
0000
0000
FF80
FFFF
0180
0180
0180
0180
0180
0180
0180
ENDCHAR

STARTCHAR A6D4
ENCODING 42708
SWIDTH 960 0
DWIDTH 16 0
BBX 16 16 0 -4
BITMAP
0000
0000
0000
0000
0000
0000
0000
01FF
FFFF
0180
0180
0180
0180
0180
0180
0180
ENDCHAR

STARTCHAR A6D5
ENCODING 42709
SWIDTH 960 0
DWIDTH 16 0
BBX 16 16 0 -4
BITMAP
0080
0080
0080
0080
0080
0080
0080
FF80
FFFF
0000
0000
0000
0000
0000
0000
0000
ENDCHAR

STARTCHAR A6D6
ENCODING 42710
SWIDTH 960 0
DWIDTH 16 0
BBX 16 16 0 -4
BITMAP
0080
0080
0080
0080
0080
0080
0080
00FF
FFFF
0000
0000
0000
0000
0000
0000
0000
ENDCHAR

STARTCHAR A6D7
ENCODING 42711
SWIDTH 960 0
DWIDTH 16 0
BBX 16 16 0 -4
BITMAP
0180
0180
0180
0180
0180
0180
0180
FF80
FFFF
0000
0000
0000
0000
0000
0000
0000
ENDCHAR

STARTCHAR A6D8
ENCODING 42712
SWIDTH 960 0
DWIDTH 16 0
BBX 16 16 0 -4
BITMAP
0180
0180
0180
0180
0180
0180
0180
01FF
FFFF
0000
0000
0000
0000
0000
0000
0000
ENDCHAR

STARTCHAR A6D9
ENCODING 42713
SWIDTH 960 0
DWIDTH 16 0
BBX 16 16 0 -4
BITMAP
0080
0080
0080
0080
0080
0080
0080
FF80
FFFF
0080
0080
0080
0080
0080
0080
0080
ENDCHAR

STARTCHAR A6DA
ENCODING 42714
SWIDTH 960 0
DWIDTH 16 0
BBX 16 16 0 -4
BITMAP
0080
0080
0080
0080
0080
0080
0080
00FF
FFFF
0080
0080
0080
0080
0080
0080
0080
ENDCHAR

STARTCHAR A6DB
ENCODING 42715
SWIDTH 960 0
DWIDTH 16 0
BBX 16 16 0 -4
BITMAP
0180
0180
0180
0180
0180
0180
0180
0180
FFFF
0080
0080
0080
0080
0080
0080
0080
ENDCHAR

STARTCHAR A6DC
ENCODING 42716
SWIDTH 960 0
DWIDTH 16 0
BBX 16 16 0 -4
BITMAP
0080
0080
0080
0080
0080
0080
0080
0080
FFFF
0180
0180
0180
0180
0180
0180
0180
ENDCHAR

STARTCHAR A6DD
ENCODING 42717
SWIDTH 960 0
DWIDTH 16 0
BBX 16 16 0 -4
BITMAP
0180
0180
0180
0180
0180
0180
0180
FF80
FFFF
0080
0080
0080
0080
0080
0080
0080
ENDCHAR

STARTCHAR A6DE
ENCODING 42718
SWIDTH 960 0
DWIDTH 16 0
BBX 16 16 0 -4
BITMAP
0180
0180
0180
0180
0180
0180
0180
01FF
FFFF
0080
0080
0080
0080
0080
0080
0080
ENDCHAR

STARTCHAR A6DF
ENCODING 42719
SWIDTH 960 0
DWIDTH 16 0
BBX 16 16 0 -4
BITMAP
0080
0080
0080
0080
0080
0080
0080
FF80
FFFF
0180
0180
0180
0180
0180
0180
0180
ENDCHAR

STARTCHAR A6E0
ENCODING 42720
SWIDTH 960 0
DWIDTH 16 0
BBX 16 16 0 -4
BITMAP
0080
0080
0080
0080
0080
0080
0080
00FF
FFFF
0180
0180
0180
0180
0180
0180
0180
ENDCHAR

STARTCHAR A6E1
ENCODING 42721
SWIDTH 960 0
DWIDTH 16 0
BBX 16 16 0 -4
BITMAP
0180
0180
0180
0180
0180
0180
0180
FFFF
FFFF
0080
0080
0080
0080
0080
0080
0080
ENDCHAR

STARTCHAR A6E2
ENCODING 42722
SWIDTH 960 0
DWIDTH 16 0
BBX 16 16 0 -4
BITMAP
0080
0080
0080
0080
0080
0080
0080
FFFF
FFFF
0180
0180
0180
0180
0180
0180
0180
ENDCHAR

STARTCHAR A6E3
ENCODING 42723
SWIDTH 960 0
DWIDTH 16 0
BBX 16 16 0 -4
BITMAP
0180
0180
0180
0180
0180
0180
0180
FF80
FFFF
0180
0180
0180
0180
0180
0180
0180
ENDCHAR

STARTCHAR A6E4
ENCODING 42724
SWIDTH 960 0
DWIDTH 16 0
BBX 16 16 0 -4
BITMAP
0180
0180
0180
0180
0180
0180
0180
01FF
FFFF
0180
0180
0180
0180
0180
0180
0180
ENDCHAR

STARTCHAR A7A1
ENCODING 42913
SWIDTH 960 0
DWIDTH 16 0
BBX 16 16 0 -4
BITMAP
0000
0010
0028
0028
0028
0048
0950
0950
0960
0948
0EB0
1000
1000
1000
1000
0000
ENDCHAR

STARTCHAR A7A2
ENCODING 42914
SWIDTH 960 0
DWIDTH 16 0
BBX 16 16 0 -4
BITMAP
0000
0010
0028
0028
0028
1E48
1550
1550
1550
1560
15B8
0000
0000
0000
0000
0000
ENDCHAR

STARTCHAR A7A3
ENCODING 42915
SWIDTH 960 0
DWIDTH 16 0
BBX 16 16 0 -4
BITMAP
0000
0108
0314
0114
0114
0124
0F28
1128
1128
1130
0EDC
0000
0000
0000
0000
0000
ENDCHAR

STARTCHAR A7A4
ENCODING 42916
SWIDTH 960 0
DWIDTH 16 0
BBX 16 16 0 -4
BITMAP
0000
0080
0140
0140
0140
0240
0280
0280
0280
0100
06E0
0000
0000
0000
0000
0000
ENDCHAR

STARTCHAR A7A5
ENCODING 42917
SWIDTH 960 0
DWIDTH 16 0
BBX 16 16 0 -4
BITMAP
0000
0810
1828
0828
0828
0948
0A50
0C50
0A50
0920
08D8
0000
0000
0000
0000
0000
ENDCHAR

STARTCHAR A7A6
ENCODING 42918
SWIDTH 960 0
DWIDTH 16 0
BBX 16 16 0 -4
BITMAP
0000
0000
0000
0000
0000
0000
0738
0840
0840
0840
0738
0000
0000
0000
0000
0000
ENDCHAR

STARTCHAR A7A7
ENCODING 42919
SWIDTH 960 0
DWIDTH 16 0
BBX 16 16 0 -4
BITMAP
0000
000C
0002
000C
0002
000C
0000
3CF0
2AA8
2AA8
2AA8
2AA8
0000
0000
0000
0000
ENDCHAR

STARTCHAR A7A8
ENCODING 42920
SWIDTH 960 0
DWIDTH 16 0
BBX 16 16 0 -4
BITMAP
0000
0018
0004
0018
0004
0018
0000
1DE0
2150
2150
2150
1D50
0000
0000
0000
0000
ENDCHAR

STARTCHAR A7A9
ENCODING 42921
SWIDTH 960 0
DWIDTH 16 0
BBX 16 16 0 -4
BITMAP
0000
0060
0010
0060
0010
0060
0000
0F00
0A80
0A80
0A80
0A80
0000
0000
0000
0000
ENDCHAR

STARTCHAR A7AA
ENCODING 42922
SWIDTH 960 0
DWIDTH 16 0
BBX 16 16 0 -4
BITMAP
0000
100C
3002
100C
1002
100C
1000
12F0
14A8
18A8
14A8
12A8
0000
0000
0000
0000
ENDCHAR

STARTCHAR A7AB
ENCODING 42923
SWIDTH 960 0
DWIDTH 16 0
BBX 16 16 0 -4
BITMAP
0000
0600
0800
0800
0800
1DE0
0950
0950
0950
0950
0950
0000
0000
0000
0000
0000
ENDCHAR

STARTCHAR A7AC
ENCODING 42924
SWIDTH 960 0
DWIDTH 16 0
BBX 16 16 0 -4
BITMAP
0000
0000
0000
0000
0000
0000
1CF0
12A8
12A8
12A8
12A8
0000
0000
0000
0000
0000
ENDCHAR

STARTCHAR A7AD
ENCODING 42925
SWIDTH 960 0
DWIDTH 16 0
BBX 16 16 0 -4
BITMAP
0000
0000
0000
0000
0000
0000
0AF0
0AA8
12A8
14A8
14A8
1CA8
2000
2000
2000
0000
ENDCHAR

STARTCHAR A7AE
ENCODING 42926
SWIDTH 960 0
DWIDTH 16 0
BBX 16 16 0 -4
BITMAP
0000
0000
0000
0000
0000
3C78
2A54
2A54
2A54
2A54
2A54
0000
0000
0000
0000
0000
ENDCHAR

STARTCHAR A7AF
ENCODING 42927
SWIDTH 960 0
DWIDTH 16 0
BBX 16 16 0 -4
BITMAP
0000
0000
0000
0000
0000
0000
1EFC
2092
2092
2092
2092
1E92
0000
0000
0000
0000
ENDCHAR

STARTCHAR A7B0
ENCODING 42928
SWIDTH 960 0
DWIDTH 16 0
BBX 16 16 0 -4
BITMAP
0000
1000
3000
1000
1000
1000
12F0
14A8
18A8
14A8
12A8
0000
0000
0000
0000
0000
ENDCHAR

STARTCHAR A7B1
ENCODING 42929
SWIDTH 960 0
DWIDTH 16 0
BBX 16 16 0 -4
BITMAP
0000
000C
0002
0004
0008
000E
0000
3CF0
2AA8
2AA8
2AA8
2AA8
0000
0000
0000
0000
ENDCHAR

STARTCHAR A7B2
ENCODING 42930
SWIDTH 960 0
DWIDTH 16 0
BBX 16 16 0 -4
BITMAP
0000
0018
0004
0008
0010
001C
0000
1DE0
2150
2150
2150
1D50
0000
0000
0000
0000
ENDCHAR

STARTCHAR A7B3
ENCODING 42931
SWIDTH 960 0
DWIDTH 16 0
BBX 16 16 0 -4
BITMAP
0000
0060
0010
0020
0040
0070
0000
0F00
0A80
0A80
0A80
0A80
0000
0000
0000
0000
ENDCHAR

STARTCHAR A7B4
ENCODING 42932
SWIDTH 960 0
DWIDTH 16 0
BBX 16 16 0 -4
BITMAP
0000
200C
6002
2004
2008
200E
2000
25E0
2950
3150
2950
2550
0000
0000
0000
0000
ENDCHAR

STARTCHAR A7B5
ENCODING 42933
SWIDTH 960 0
DWIDTH 16 0
BBX 16 16 0 -4
BITMAP
0000
0800
1800
0800
0800
0800
0800
0E78
0908
0978
0948
097C
0000
0000
0000
0000
ENDCHAR

STARTCHAR A7B6
ENCODING 42934
SWIDTH 960 0
DWIDTH 16 0
BBX 16 16 0 -4
BITMAP
0000
0000
0000
0000
0000
0000
0936
0948
0948
0930
0940
0E38
1044
1044
1038
0000
ENDCHAR

STARTCHAR A7B7
ENCODING 42935
SWIDTH 960 0
DWIDTH 16 0
BBX 16 16 0 -4
BITMAP
0000
0000
0000
0000
0000
0000
1E36
1548
1548
1530
1540
0038
0044
0044
0038
0000
ENDCHAR

STARTCHAR A7B8
ENCODING 42936
SWIDTH 960 0
DWIDTH 16 0
BBX 16 16 0 -4
BITMAP
0000
0800
1800
0800
0800
0800
0936
0A48
0C48
0C30
0A40
0938
0044
0044
0038
0000
ENDCHAR

STARTCHAR A7B9
ENCODING 42937
SWIDTH 960 0
DWIDTH 16 0
BBX 16 16 0 -4
BITMAP
0000
0800
1800
0820
0820
0820
0970
0A20
0C20
0A20
0918
0000
0000
0000
0000
0000
ENDCHAR

STARTCHAR A7BA
ENCODING 42938
SWIDTH 960 0
DWIDTH 16 0
BBX 16 16 0 -4
BITMAP
0000
0000
0010
0010
0010
0010
1BD0
2050
23D0
2250
1DF0
0000
0000
0000
0000
0000
ENDCHAR

STARTCHAR A7BB
ENCODING 42939
SWIDTH 960 0
DWIDTH 16 0
BBX 16 16 0 -4
BITMAP
0000
8002
8002
8002
8002
8002
937A
A40A
C47A
A44A
937A
0000
0000
0000
0000
0000
ENDCHAR

STARTCHAR A7BC
ENCODING 42940
SWIDTH 960 0
DWIDTH 16 0
BBX 16 16 0 -4
BITMAP
0000
02E0
0290
0290
0290
0EE0
1290
1290
1290
1290
0EE0
0000
0000
0000
0000
0000
ENDCHAR

STARTCHAR A7BD
ENCODING 42941
SWIDTH 960 0
DWIDTH 16 0
BBX 16 16 0 -4
BITMAP
0000
0040
0040
0040
0080
0080
78BC
54A0
553C
5504
553C
0100
0200
0200
0200
0000
ENDCHAR

STARTCHAR A7BE
ENCODING 42942
SWIDTH 960 0
DWIDTH 16 0
BBX 16 16 0 -4
BITMAP
000C
0042
0044
0048
008E
0080
78BC
54A0
553C
5504
553C
0100
0200
0200
0200
0000
ENDCHAR

STARTCHAR A7BF
ENCODING 42943
SWIDTH 960 0
DWIDTH 16 0
BBX 16 16 0 -4
BITMAP
0000
0000
0000
0000
0000
0000
0E78
0940
0978
0908
0E78
0800
0800
0800
0800
0000
ENDCHAR

STARTCHAR A7C0
ENCODING 42944
SWIDTH 960 0
DWIDTH 16 0
BBX 16 16 0 -4
BITMAP
0000
0000
0000
0000
0000
0000
0E78
0940
0978
0908
0978
0000
0000
0000
0000
0000
ENDCHAR

STARTCHAR A7C1
ENCODING 42945
SWIDTH 960 0
DWIDTH 16 0
BBX 16 16 0 -4
BITMAP
0000
0000
0000
0000
0000
0000
0978
0940
0978
0908
0F78
0800
0800
1000
1000
0000
ENDCHAR

STARTCHAR A7C2
ENCODING 42946
SWIDTH 960 0
DWIDTH 16 0
BBX 16 16 0 -4
BITMAP
0000
0000
0000
0000
0000
0000
1E78
1540
1578
1508
1578
0000
0000
0000
0000
0000
ENDCHAR

STARTCHAR A7C3
ENCODING 42947
SWIDTH 960 0
DWIDTH 16 0
BBX 16 16 0 -4
BITMAP
0000
01DC
0088
0088
0088
1C50
1250
1250
1220
1220
1C20
1000
1000
1000
3800
0000
ENDCHAR

STARTCHAR A7C4
ENCODING 42948
SWIDTH 960 0
DWIDTH 16 0
BBX 16 16 0 -4
BITMAP
0000
03B8
0110
0110
0110
38A0
24A0
24A0
2440
2440
2440
0000
0000
0000
0000
0000
ENDCHAR

STARTCHAR A7C5
ENCODING 42949
SWIDTH 960 0
DWIDTH 16 0
BBX 16 16 0 -4
BITMAP
0000
01DC
0088
0088
0088
1250
1250
1250
1250
1220
1D20
2000
2000
2000
2000
0000
ENDCHAR

STARTCHAR A7C6
ENCODING 42950
SWIDTH 960 0
DWIDTH 16 0
BBX 16 16 0 -4
BITMAP
0000
01DC
0088
0088
0088
0050
1E50
1550
1550
1520
1520
0000
0000
0000
0000
0000
ENDCHAR

STARTCHAR A7C7
ENCODING 42951
SWIDTH 960 0
DWIDTH 16 0
BBX 16 16 0 -4
BITMAP
0000
21DC
6088
2088
2288
2450
2850
3850
2420
2220
2220
0000
0000
0000
0000
0000
ENDCHAR

STARTCHAR A7C8
ENCODING 42952
SWIDTH 960 0
DWIDTH 16 0
BBX 16 16 0 -4
BITMAP
0000
41EE
4144
4144
6344
6328
5528
5528
4910
4910
4110
0000
0000
0000
0000
0000
ENDCHAR

STARTCHAR A7C9
ENCODING 42953
SWIDTH 960 0
DWIDTH 16 0
BBX 16 16 0 -4
BITMAP
0000
0010
0010
0028
0028
3C28
2244
227C
2244
2244
3CEE
2000
2000
2000
2000
0000
ENDCHAR

STARTCHAR A7CA
ENCODING 42954
SWIDTH 960 0
DWIDTH 16 0
BBX 16 16 0 -4
BITMAP
0000
0020
0020
0020
0050
1C50
1250
12F8
1288
1288
1288
0000
0000
0000
0000
0000
ENDCHAR

STARTCHAR A7CB
ENCODING 42955
SWIDTH 960 0
DWIDTH 16 0
BBX 16 16 0 -4
BITMAP
0000
0010
0010
0010
0028
0028
0928
0944
097C
1144
1E44
1000
1000
2000
2000
0000
ENDCHAR

STARTCHAR A7CC
ENCODING 42956
SWIDTH 960 0
DWIDTH 16 0
BBX 16 16 0 -4
BITMAP
0000
0010
0010
0010
0010
1E28
1528
1528
157C
1544
1544
0000
0000
0000
0000
0000
ENDCHAR

STARTCHAR A7CD
ENCODING 42957
SWIDTH 960 0
DWIDTH 16 0
BBX 16 16 0 -4
BITMAP
0000
3020
1020
1020
1050
1250
1450
1888
14F8
1288
1288
0000
0000
0000
0000
0000
ENDCHAR

STARTCHAR A7CE
ENCODING 42958
SWIDTH 960 0
DWIDTH 16 0
BBX 16 16 0 -4
BITMAP
0000
01AC
00A8
00A8
00A8
1CA8
12A8
1250
1250
1250
1C50
1000
1000
1000
1000
0000
ENDCHAR

STARTCHAR A7CF
ENCODING 42959
SWIDTH 960 0
DWIDTH 16 0
BBX 16 16 0 -4
BITMAP
0000
01AC
00A8
00A8
00A8
1CA8
12A8
1250
1250
1250
1250
0000
0000
0000
0000
0000
ENDCHAR

STARTCHAR A7D0
ENCODING 42960
SWIDTH 960 0
DWIDTH 16 0
BBX 16 16 0 -4
BITMAP
0000
00D6
0054
0054
0054
1254
1254
1228
1228
1228
1D28
2000
2000
2000
2000
0000
ENDCHAR

STARTCHAR A7D1
ENCODING 42961
SWIDTH 960 0
DWIDTH 16 0
BBX 16 16 0 -4
BITMAP
0000
00D6
0054
0054
0054
3C54
2A54
2A54
2A28
2A28
2A28
0000
0000
0000
0000
0000
ENDCHAR

STARTCHAR A7D2
ENCODING 42962
SWIDTH 960 0
DWIDTH 16 0
BBX 16 16 0 -4
BITMAP
0000
11AC
30A8
10A8
10A8
12A8
14A8
18A8
1450
1250
1250
0000
0000
0000
0000
0000
ENDCHAR

STARTCHAR A7D3
ENCODING 42963
SWIDTH 960 0
DWIDTH 16 0
BBX 16 16 0 -4
BITMAP
0000
22D6
2254
2254
3654
3654
2A54
2A28
2A28
2A28
2A28
0000
0000
0000
0000
0000
ENDCHAR

STARTCHAR A7D4
ENCODING 42964
SWIDTH 960 0
DWIDTH 16 0
BBX 16 16 0 -4
BITMAP
0000
1100
1100
1100
1100
1F00
113C
1108
1110
1110
113C
0000
0000
0000
0000
0000
ENDCHAR

STARTCHAR A7D5
ENCODING 42965
SWIDTH 960 0
DWIDTH 16 0
BBX 16 16 0 -4
BITMAP
0000
2120
6120
2120
2120
25E0
292E
3122
2924
2528
252E
0000
0000
0000
0000
0000
ENDCHAR

STARTCHAR A7D6
ENCODING 42966
SWIDTH 960 0
DWIDTH 16 0
BBX 16 16 0 -4
BITMAP
0000
4520
4520
4520
6D20
6DE0
6D2E
5522
5524
5528
552E
0000
0000
0000
0000
0000
ENDCHAR

STARTCHAR A7D7
ENCODING 42967
SWIDTH 960 0
DWIDTH 16 0
BBX 16 16 0 -4
BITMAP
0000
3D20
4520
4120
4120
41E0
5D2E
4522
4524
4528
3D2E
0000
0000
0000
0000
0000
ENDCHAR

STARTCHAR A7D8
ENCODING 42968
SWIDTH 960 0
DWIDTH 16 0
BBX 16 16 0 -4
BITMAP
0000
7D20
1120
1120
1120
11E0
112E
1122
1124
1128
112E
0000
0000
0000
0000
0000
ENDCHAR

STARTCHAR A7D9
ENCODING 42969
SWIDTH 960 0
DWIDTH 16 0
BBX 16 16 0 -4
BITMAP
0000
0380
0440
0820
0820
0820
0820
0440
0280
0280
0EE0
0000
0000
0000
0000
0000
ENDCHAR

STARTCHAR A7DA
ENCODING 42970
SWIDTH 960 0
DWIDTH 16 0
BBX 16 16 0 -4
BITMAP
0000
2038
6044
2082
2082
2482
2882
3044
2828
2428
24EE
0000
0000
0000
0000
0000
ENDCHAR

STARTCHAR A7DB
ENCODING 42971
SWIDTH 960 0
DWIDTH 16 0
BBX 16 16 0 -4
BITMAP
0000
4438
4444
4482
6C82
6C82
5482
5444
5428
5428
54EE
0000
0000
0000
0000
0000
ENDCHAR

STARTCHAR A7DC
ENCODING 42972
SWIDTH 960 0
DWIDTH 16 0
BBX 16 16 0 -4
BITMAP
0000
00F8
0088
0080
0080
3C80
22F0
2280
2280
2280
3C80
2000
2000
2000
2000
0000
ENDCHAR

STARTCHAR A7DD
ENCODING 42973
SWIDTH 960 0
DWIDTH 16 0
BBX 16 16 0 -4
BITMAP
0000
00F8
0088
0080
0080
3880
24F0
2480
2480
2480
2480
0000
0000
0000
0000
0000
ENDCHAR

STARTCHAR A7DE
ENCODING 42974
SWIDTH 960 0
DWIDTH 16 0
BBX 16 16 0 -4
BITMAP
0000
003E
0022
0020
0020
0020
093C
0920
0920
1120
1220
1E00
2000
2000
2000
0000
ENDCHAR

STARTCHAR A7DF
ENCODING 42975
SWIDTH 960 0
DWIDTH 16 0
BBX 16 16 0 -4
BITMAP
0000
0008
0008
0008
0008
0008
3CE8
2AA8
2AA8
2AA8
2AE8
0000
0000
0000
0000
0000
ENDCHAR

STARTCHAR A7E0
ENCODING 42976
SWIDTH 960 0
DWIDTH 16 0
BBX 16 16 0 -4
BITMAP
0000
0008
0008
0008
0008
0008
0E78
1088
1088
1088
0E78
0000
0000
0000
0000
0000
ENDCHAR

STARTCHAR A7E1
ENCODING 42977
SWIDTH 960 0
DWIDTH 16 0
BBX 16 16 0 -4
BITMAP
0000
0002
0002
0002
0002
0002
23CE
3852
23D2
2252
23EE
0000
0000
0000
0000
0000
ENDCHAR

STARTCHAR A7E2
ENCODING 42978
SWIDTH 960 0
DWIDTH 16 0
BBX 16 16 0 -4
BITMAP
0000
0008
2388
38B8
23A8
22A8
23B8
0006
0038
01C0
0E38
7020
0038
0008
0038
0000
ENDCHAR

STARTCHAR A7E3
ENCODING 42979
SWIDTH 960 0
DWIDTH 16 0
BBX 16 16 0 -4
BITMAP
0000
0010
4710
7170
4750
4550
4770
000E
0070
0386
1C72
6044
0076
0010
0070
0000
ENDCHAR

STARTCHAR A7E4
ENCODING 42980
SWIDTH 960 0
DWIDTH 16 0
BBX 16 16 0 -4
BITMAP
0000
0000
0000
0000
0000
1E5C
1060
1060
1E40
0240
0240
1E40
0000
0000
0000
0000
ENDCHAR

STARTCHAR A7E5
ENCODING 42981
SWIDTH 960 0
DWIDTH 16 0
BBX 16 16 0 -4
BITMAP
0000
0000
0E00
0900
0900
0900
0970
0E10
0870
0850
0878
0000
0000
0000
0000
0000
ENDCHAR

STARTCHAR A7E6
ENCODING 42982
SWIDTH 960 0
DWIDTH 16 0
BBX 16 16 0 -4
BITMAP
0000
0000
4380
4240
4240
4240
4A5C
5384
621C
5214
4A1E
0000
0000
0000
0000
0000
ENDCHAR

STARTCHAR A7E7
ENCODING 42983
SWIDTH 960 0
DWIDTH 16 0
BBX 16 16 0 -4
BITMAP
0000
0000
4580
4540
4540
6D40
6D5C
5584
551C
5514
451E
0000
0000
0000
0000
0000
ENDCHAR

STARTCHAR A7E8
ENCODING 42984
SWIDTH 960 0
DWIDTH 16 0
BBX 16 16 0 -4
BITMAP
0000
0000
3B80
4A40
4A40
4240
5A5C
4B84
4A1C
4A14
3A1E
0000
0000
0000
0000
0000
ENDCHAR

STARTCHAR A7E9
ENCODING 42985
SWIDTH 960 0
DWIDTH 16 0
BBX 16 16 0 -4
BITMAP
0000
35A0
1520
1520
1520
1520
153C
0A22
0A22
0A22
0A3C
0000
0000
0000
0000
0000
ENDCHAR

STARTCHAR A7EA
ENCODING 42986
SWIDTH 960 0
DWIDTH 16 0
BBX 16 16 0 -4
BITMAP
0000
0800
0800
0800
0800
0800
09E0
0950
0950
0950
0950
0000
0000
0000
0000
0000
ENDCHAR

STARTCHAR A7EB
ENCODING 42987
SWIDTH 960 0
DWIDTH 16 0
BBX 16 16 0 -4
BITMAP
0000
0800
0800
0800
0800
0800
0910
08A0
0840
08A0
0910
0000
0000
0000
0000
0000
ENDCHAR

STARTCHAR A7EC
ENCODING 42988
SWIDTH 960 0
DWIDTH 16 0
BBX 16 16 0 -4
BITMAP
0000
1C00
1200
1200
1200
1C38
1248
1248
1248
1248
1C38
0008
0008
0008
0008
0000
ENDCHAR

STARTCHAR A7ED
ENCODING 42989
SWIDTH 960 0
DWIDTH 16 0
BBX 16 16 0 -4
BITMAP
0000
1E00
2200
2200
2000
2000
2E88
2288
2250
2250
1E20
0020
0040
0040
0080
0000
ENDCHAR

STARTCHAR A7EE
ENCODING 42990
SWIDTH 960 0
DWIDTH 16 0
BBX 16 16 0 -4
BITMAP
0000
0E00
1100
1100
1000
0E44
0144
0128
1128
1110
0E10
0000
0000
0000
0000
0000
ENDCHAR

STARTCHAR A7EF
ENCODING 42991
SWIDTH 960 0
DWIDTH 16 0
BBX 16 16 0 -4
BITMAP
0000
3080
4880
4100
4100
4200
4B00
350A
0554
0994
0988
1150
114C
0012
0012
000C
ENDCHAR

STARTCHAR A8A1
ENCODING 43169
SWIDTH 960 0
DWIDTH 16 0
BBX 16 16 0 -4
BITMAP
0000
0000
0000
0000
01F8
0100
0300
02F8
0480
0780
0840
0878
0000
0000
0000
0000
ENDCHAR

STARTCHAR A8A2
ENCODING 43170
SWIDTH 960 0
DWIDTH 16 0
BBX 16 16 0 -4
BITMAP
0000
0000
0000
0000
0380
0240
0220
0FA0
0220
0220
0240
0380
0000
0000
0000
0000
ENDCHAR

STARTCHAR A8A3
ENCODING 43171
SWIDTH 960 0
DWIDTH 16 0
BBX 16 16 0 -4
BITMAP
0000
0000
0000
0000
0380
0080
0380
0280
03C0
0000
07E0
0000
0000
0000
0000
0000
ENDCHAR

STARTCHAR A8A4
ENCODING 43172
SWIDTH 960 0
DWIDTH 16 0
BBX 16 16 0 -4
BITMAP
0000
0000
0000
0220
0220
0FF8
0220
03E0
0220
0220
0220
0220
0000
0000
0000
0000
ENDCHAR

STARTCHAR A8A6
ENCODING 43174
SWIDTH 960 0
DWIDTH 16 0
BBX 16 16 0 -4
BITMAP
0000
0000
0000
0E70
0420
0420
0420
0420
0420
0420
0E20
00A0
0040
0000
0000
0000
ENDCHAR

STARTCHAR A8A8
ENCODING 43176
SWIDTH 960 0
DWIDTH 16 0
BBX 16 16 0 -4
BITMAP
0000
0000
0000
0E00
0400
0400
0460
0460
0400
0400
0420
07C0
0000
0000
0000
0000
ENDCHAR

STARTCHAR A8A9
ENCODING 43177
SWIDTH 960 0
DWIDTH 16 0
BBX 16 16 0 -4
BITMAP
0000
0000
0000
0700
0200
0380
0E00
0200
0200
0200
0210
03E0
0000
0000
0000
0000
ENDCHAR

STARTCHAR A8AA
ENCODING 43178
SWIDTH 960 0
DWIDTH 16 0
BBX 16 16 0 -4
BITMAP
0000
0000
0000
0000
0008
01D0
0220
0450
0490
0510
0220
05C0
0800
0000
0000
0000
ENDCHAR

STARTCHAR A8AB
ENCODING 43179
SWIDTH 960 0
DWIDTH 16 0
BBX 16 16 0 -4
BITMAP
0000
0000
0000
0000
0000
03F8
0440
0820
0838
0820
0440
03F8
0000
0000
0000
0000
ENDCHAR

STARTCHAR A8AC
ENCODING 43180
SWIDTH 960 0
DWIDTH 16 0
BBX 16 16 0 -4
BITMAP
0000
0000
0000
0000
0380
0280
0280
0280
0380
0000
0FE0
0000
0000
0000
0000
0000
ENDCHAR

STARTCHAR A8AD
ENCODING 43181
SWIDTH 960 0
DWIDTH 16 0
BBX 16 16 0 -4
BITMAP
0000
0000
0000
0700
0200
03C0
0220
0220
0220
0220
03C0
0200
0700
0000
0000
0000
ENDCHAR

STARTCHAR A8AE
ENCODING 43182
SWIDTH 960 0
DWIDTH 16 0
BBX 16 16 0 -4
BITMAP
0000
0000
0000
0000
07F0
0490
0080
0080
03E0
0080
0080
0080
01C0
0000
0000
0000
ENDCHAR

STARTCHAR A8AF
ENCODING 43183
SWIDTH 960 0
DWIDTH 16 0
BBX 16 16 0 -4
BITMAP
0000
0000
0000
0200
02C0
0320
0210
0210
0210
0220
0240
0000
0000
0000
0000
0000
ENDCHAR

STARTCHAR A8B1
ENCODING 43185
SWIDTH 960 0
DWIDTH 16 0
BBX 16 16 0 -4
BITMAP
0FE0
3018
4004
4004
8002
9FC2
8042
8042
8042
8042
8042
4004
4004
3018
0FE0
0000
ENDCHAR

STARTCHAR A8B2
ENCODING 43186
SWIDTH 960 0
DWIDTH 16 0
BBX 16 16 0 -4
BITMAP
0FE0
3018
4004
4004
8802
8802
8802
8802
8802
8FE2
8002
4004
4004
3018
0FE0
0000
ENDCHAR

STARTCHAR A8B3
ENCODING 43187
SWIDTH 960 0
DWIDTH 16 0
BBX 16 16 0 -4
BITMAP
0FE0
3018
4004
4004
8FE2
8802
8802
8802
8802
8802
8FE2
4004
4004
3018
0FE0
0000
ENDCHAR

STARTCHAR A8B4
ENCODING 43188
SWIDTH 960 0
DWIDTH 16 0
BBX 16 16 0 -4
BITMAP
0FE0
3018
4004
4004
9FF2
8012
8012
9FF2
9002
9002
9FF2
4004
4004
3018
0FE0
0000
ENDCHAR

STARTCHAR A8B5
ENCODING 43189
SWIDTH 960 0
DWIDTH 16 0
BBX 16 16 0 -4
BITMAP
0FE0
3018
4004
4004
8FE2
8822
8822
8822
8822
8822
8FE2
4004
4004
3018
0FE0
0000
ENDCHAR

STARTCHAR A8B6
ENCODING 43190
SWIDTH 960 0
DWIDTH 16 0
BBX 16 16 0 -4
BITMAP
0FE0
3018
4004
4824
8822
8822
8FE2
8822
8822
8822
8FE2
4004
4004
3018
0FE0
0000
ENDCHAR

STARTCHAR A8B7
ENCODING 43191
SWIDTH 960 0
DWIDTH 16 0
BBX 16 16 0 -4
BITMAP
0FE0
3018
4004
4104
8182
8102
8102
8102
8282
8462
9832
4004
4004
3018
0FE0
0000
ENDCHAR

STARTCHAR A8B8
ENCODING 43192
SWIDTH 960 0
DWIDTH 16 0
BBX 16 16 0 -4
BITMAP
0FE0
3018
4004
4304
8102
87C2
8822
8822
8822
8822
8822
47C4
4004
3018
0FE0
0000
ENDCHAR

STARTCHAR A8B9
ENCODING 43193
SWIDTH 960 0
DWIDTH 16 0
BBX 16 16 0 -4
BITMAP
0FE0
3018
4004
4004
8FE2
8442
8082
8102
8282
8442
8822
4004
4004
3018
0FE0
0000
ENDCHAR

STARTCHAR A8BA
ENCODING 43194
SWIDTH 960 0
DWIDTH 16 0
BBX 16 16 0 -4
BITMAP
0FE0
3018
4004
47C4
8002
8FE2
8042
8082
8182
8242
8C22
4004
4004
3018
0FE0
0000
ENDCHAR

STARTCHAR A8BB
ENCODING 43195
SWIDTH 960 0
DWIDTH 16 0
BBX 16 16 0 -4
BITMAP
0FE0
3018
4004
4004
9FE2
8022
8022
83E2
9C22
8022
8022
4024
4004
3018
0FE0
0000
ENDCHAR

STARTCHAR A8BC
ENCODING 43196
SWIDTH 960 0
DWIDTH 16 0
BBX 16 16 0 -4
BITMAP
0FE0
3018
4004
4004
8FE2
8802
8802
8FE2
8802
8802
8FE2
4004
4004
3018
0FE0
0000
ENDCHAR

STARTCHAR A8BD
ENCODING 43197
SWIDTH 960 0
DWIDTH 16 0
BBX 16 16 0 -4
BITMAP
0FE0
3018
4004
4004
9FF2
8442
8442
8442
8442
8442
9FF2
4004
4004
3018
0FE0
0000
ENDCHAR

STARTCHAR A8BE
ENCODING 43198
SWIDTH 960 0
DWIDTH 16 0
BBX 16 16 0 -4
BITMAP
0FE0
3018
4004
47C4
8002
9FF2
8002
8002
87C2
8822
8822
47C4
4004
3018
0FE0
0000
ENDCHAR

STARTCHAR A8BF
ENCODING 43199
SWIDTH 960 0
DWIDTH 16 0
BBX 16 16 0 -4
BITMAP
0FE0
3018
4004
4024
9F22
8122
8122
813A
8222
8222
8422
5824
4024
3018
0FE0
0000
ENDCHAR

STARTCHAR A8C0
ENCODING 43200
SWIDTH 960 0
DWIDTH 16 0
BBX 16 16 0 -4
BITMAP
0FE0
3018
4004
4024
9022
9022
9022
903A
91E2
9E22
8022
4024
4024
3018
0FE0
0000
ENDCHAR

STARTCHAR A8C1
ENCODING 43201
SWIDTH 960 0
DWIDTH 16 0
BBX 16 16 0 -4
BITMAP
0FE0
3018
4004
4044
9F42
9042
9042
9072
9042
9F42
8044
4044
4004
3018
0FE0
0000
ENDCHAR

STARTCHAR A8C2
ENCODING 43202
SWIDTH 960 0
DWIDTH 16 0
BBX 16 16 0 -4
BITMAP
0FE0
3018
4004
4024
9F22
8122
8122
9F3A
9022
9022
9F22
4024
4004
3018
0FE0
0000
ENDCHAR

STARTCHAR A8C3
ENCODING 43203
SWIDTH 960 0
DWIDTH 16 0
BBX 16 16 0 -4
BITMAP
0FE0
3018
4004
4024
9F22
9122
9122
913A
9122
9122
9F22
4024
4024
3018
0FE0
0000
ENDCHAR

STARTCHAR A8C4
ENCODING 43204
SWIDTH 960 0
DWIDTH 16 0
BBX 16 16 0 -4
BITMAP
0FE0
3018
4024
5124
9122
9122
9F3A
9122
9122
9122
9F22
4024
4024
3018
0FE0
0000
ENDCHAR

STARTCHAR A8C5
ENCODING 43205
SWIDTH 960 0
DWIDTH 16 0
BBX 16 16 0 -4
BITMAP
0FE0
3018
4024
4C24
8622
8422
8422
8A3A
8A22
9122
A0A2
4024
4024
3018
0FE0
0000
ENDCHAR

STARTCHAR A8C6
ENCODING 43206
SWIDTH 960 0
DWIDTH 16 0
BBX 16 16 0 -4
BITMAP
0FE0
3018
4024
4024
9E22
A122
A122
A13A
A122
A122
9E22
4024
4024
3018
0FE0
0000
ENDCHAR

STARTCHAR A8C7
ENCODING 43207
SWIDTH 960 0
DWIDTH 16 0
BBX 16 16 0 -4
BITMAP
0FE0
3018
4024
4124
9FA2
8922
813A
8222
8622
8922
90A2
4024
4024
3018
0FE0
0000
ENDCHAR

STARTCHAR A8C8
ENCODING 43208
SWIDTH 960 0
DWIDTH 16 0
BBX 16 16 0 -4
BITMAP
0FE0
3018
4004
4E24
8022
9F22
8222
823A
8422
8422
8A22
5124
4024
3018
0FE0
0000
ENDCHAR

STARTCHAR A8C9
ENCODING 43209
SWIDTH 960 0
DWIDTH 16 0
BBX 16 16 0 -4
BITMAP
0FE0
3018
4024
4024
BF22
8122
8122
BE3A
8222
8422
8822
5024
4024
3018
0FE0
0000
ENDCHAR

STARTCHAR A8CA
ENCODING 43210
SWIDTH 960 0
DWIDTH 16 0
BBX 16 16 0 -4
BITMAP
0FE0
3018
4024
4024
9F22
9022
9022
9F3A
9022
9022
9F22
4024
4024
3018
0FE0
0000
ENDCHAR

STARTCHAR A8CB
ENCODING 43211
SWIDTH 960 0
DWIDTH 16 0
BBX 16 16 0 -4
BITMAP
0FE0
3018
4024
4024
BFA2
8A22
8A22
8A3A
8A22
8A22
BFA2
4024
4024
3018
0FE0
0000
ENDCHAR

STARTCHAR A8CC
ENCODING 43212
SWIDTH 960 0
DWIDTH 16 0
BBX 16 16 0 -4
BITMAP
0FE0
3018
4024
4E24
8022
9F22
8022
8E3A
9122
9122
9122
4E24
4024
3018
0FE0
0000
ENDCHAR

STARTCHAR A8CD
ENCODING 43213
SWIDTH 960 0
DWIDTH 16 0
BBX 16 16 0 -4
BITMAP
0FE0
3018
4004
4004
8F82
8042
8042
87C2
8842
8842
87A2
4004
4004
3018
0FE0
0000
ENDCHAR

STARTCHAR A8CE
ENCODING 43214
SWIDTH 960 0
DWIDTH 16 0
BBX 16 16 0 -4
BITMAP
0FE0
3018
4404
4404
8402
8402
87C2
8422
8422
8422
8422
47C4
4004
3018
0FE0
0000
ENDCHAR

STARTCHAR A8CF
ENCODING 43215
SWIDTH 960 0
DWIDTH 16 0
BBX 16 16 0 -4
BITMAP
0FE0
3018
4004
4004
8782
8842
8802
8802
8802
8842
8782
4004
4004
3018
0FE0
0000
ENDCHAR

STARTCHAR A8D0
ENCODING 43216
SWIDTH 960 0
DWIDTH 16 0
BBX 16 16 0 -4
BITMAP
0FE0
3018
4044
4044
8042
87C2
8842
8842
8842
8842
87C2
4004
4004
3018
0FE0
0000
ENDCHAR

STARTCHAR A8D1
ENCODING 43217
SWIDTH 960 0
DWIDTH 16 0
BBX 16 16 0 -4
BITMAP
0FE0
3018
4004
4004
8782
8842
8842
8FC2
8802
8802
87C2
4004
4004
3018
0FE0
0000
ENDCHAR

STARTCHAR A8D2
ENCODING 43218
SWIDTH 960 0
DWIDTH 16 0
BBX 16 16 0 -4
BITMAP
0FE0
3018
4004
4184
8202
8202
8FC2
8202
8202
8202
8202
4204
4004
3018
0FE0
0000
ENDCHAR

STARTCHAR A8D3
ENCODING 43219
SWIDTH 960 0
DWIDTH 16 0
BBX 16 16 0 -4
BITMAP
0FE0
3018
47B4
4844
8842
8782
8802
8802
87C2
8822
8822
4824
47C4
3018
0FE0
0000
ENDCHAR

STARTCHAR A8D4
ENCODING 43220
SWIDTH 960 0
DWIDTH 16 0
BBX 16 16 0 -4
BITMAP
0FE0
3018
4404
4404
8402
8402
85C2
8622
8422
8422
8422
4424
4004
3018
0FE0
0000
ENDCHAR

STARTCHAR A8D5
ENCODING 43221
SWIDTH 960 0
DWIDTH 16 0
BBX 16 16 0 -4
BITMAP
0FE0
3018
4004
4104
8002
8002
8102
8102
8102
8102
8102
4104
4004
3018
0FE0
0000
ENDCHAR

STARTCHAR A8D6
ENCODING 43222
SWIDTH 960 0
DWIDTH 16 0
BBX 16 16 0 -4
BITMAP
0FE0
3018
4104
4004
8002
8102
8102
8102
8102
8102
8102
4504
4204
3018
0FE0
0000
ENDCHAR

STARTCHAR A8D7
ENCODING 43223
SWIDTH 960 0
DWIDTH 16 0
BBX 16 16 0 -4
BITMAP
0FE0
3018
4404
4404
8402
8442
8482
8502
8602
8502
8482
4444
4004
3018
0FE0
0000
ENDCHAR

STARTCHAR A8D8
ENCODING 43224
SWIDTH 960 0
DWIDTH 16 0
BBX 16 16 0 -4
BITMAP
0FE0
3018
4004
4104
8102
8102
8102
8102
8102
8102
8102
4104
4004
3018
0FE0
0000
ENDCHAR

STARTCHAR A8D9
ENCODING 43225
SWIDTH 960 0
DWIDTH 16 0
BBX 16 16 0 -4
BITMAP
0FE0
3018
4004
4004
8EC2
8922
8922
8922
8922
8922
8922
4004
4004
3018
0FE0
0000
ENDCHAR

STARTCHAR A8DA
ENCODING 43226
SWIDTH 960 0
DWIDTH 16 0
BBX 16 16 0 -4
BITMAP
0FE0
3018
4004
4004
8782
8442
8442
8442
8442
8442
8442
4004
4004
3018
0FE0
0000
ENDCHAR

STARTCHAR A8DB
ENCODING 43227
SWIDTH 960 0
DWIDTH 16 0
BBX 16 16 0 -4
BITMAP
0FE0
3018
4004
4004
8382
8442
8442
8442
8442
8442
8382
4004
4004
3018
0FE0
0000
ENDCHAR

STARTCHAR A8DC
ENCODING 43228
SWIDTH 960 0
DWIDTH 16 0
BBX 16 16 0 -4
BITMAP
0FE0
3018
4004
47C4
8422
8422
8422
8422
8422
87C2
8402
4404
4404
3018
0FE0
0000
ENDCHAR

STARTCHAR A8DD
ENCODING 43229
SWIDTH 960 0
DWIDTH 16 0
BBX 16 16 0 -4
BITMAP
0FE0
3018
4004
47C4
8842
8842
8842
8842
8842
87C2
8042
4044
4044
3018
0FE0
0000
ENDCHAR

STARTCHAR A8DE
ENCODING 43230
SWIDTH 960 0
DWIDTH 16 0
BBX 16 16 0 -4
BITMAP
0FE0
3018
4004
4004
85C2
8602
8402
8402
8402
8402
8402
4004
4004
3018
0FE0
0000
ENDCHAR

STARTCHAR A8DF
ENCODING 43231
SWIDTH 960 0
DWIDTH 16 0
BBX 16 16 0 -4
BITMAP
0FE0
3018
4004
4004
87C2
8822
8802
87C2
8022
8822
87C2
4004
4004
3018
0FE0
0000
ENDCHAR

STARTCHAR A8E0
ENCODING 43232
SWIDTH 960 0
DWIDTH 16 0
BBX 16 16 0 -4
BITMAP
0FE0
3018
4204
4204
8202
8FC2
8202
8202
8202
8202
8222
41C4
4004
3018
0FE0
0000
ENDCHAR

STARTCHAR A8E1
ENCODING 43233
SWIDTH 960 0
DWIDTH 16 0
BBX 16 16 0 -4
BITMAP
0FE0
3018
4004
4004
8822
8822
8822
8822
8822
8822
87C2
4004
4004
3018
0FE0
0000
ENDCHAR

STARTCHAR A8E2
ENCODING 43234
SWIDTH 960 0
DWIDTH 16 0
BBX 16 16 0 -4
BITMAP
0FE0
3018
4004
4004
8822
8822
8442
8442
8282
8282
8102
4104
4004
3018
0FE0
0000
ENDCHAR

STARTCHAR A8E3
ENCODING 43235
SWIDTH 960 0
DWIDTH 16 0
BBX 16 16 0 -4
BITMAP
0FE0
3018
4004
4004
9112
9112
8AA2
8AA2
8AA2
8442
8442
4444
4004
3018
0FE0
0000
ENDCHAR

STARTCHAR A8E4
ENCODING 43236
SWIDTH 960 0
DWIDTH 16 0
BBX 16 16 0 -4
BITMAP
0FE0
3018
4004
4004
8822
8442
8282
8102
8282
8442
8822
4004
4004
3018
0FE0
0000
ENDCHAR

STARTCHAR A8E5
ENCODING 43237
SWIDTH 960 0
DWIDTH 16 0
BBX 16 16 0 -4
BITMAP
0FE0
3018
4004
4024
9022
9042
8842
8482
8282
8102
8102
4204
4204
3018
0FE0
0000
ENDCHAR

STARTCHAR A8E6
ENCODING 43238
SWIDTH 960 0
DWIDTH 16 0
BBX 16 16 0 -4
BITMAP
0FE0
3018
4004
4004
8FE2
8042
8082
8102
8202
8402
8FE2
4004
4004
3018
0FE0
0000
ENDCHAR

STARTCHAR A8E7
ENCODING 43239
SWIDTH 960 0
DWIDTH 16 0
BBX 16 16 0 -4
BITMAP
0FE0
3018
4004
4104
8302
8102
8102
8102
8102
8102
8382
4004
4004
3018
0FE0
0000
ENDCHAR

STARTCHAR A8E8
ENCODING 43240
SWIDTH 960 0
DWIDTH 16 0
BBX 16 16 0 -4
BITMAP
0FE0
3018
4004
47C4
8822
8822
8022
80C2
8302
8402
8802
4FE4
4004
3018
0FE0
0000
ENDCHAR

STARTCHAR A8E9
ENCODING 43241
SWIDTH 960 0
DWIDTH 16 0
BBX 16 16 0 -4
BITMAP
0FE0
3018
4004
47C4
8822
8822
8022
83C2
8022
8822
8822
47C4
4004
3018
0FE0
0000
ENDCHAR

STARTCHAR A8EA
ENCODING 43242
SWIDTH 960 0
DWIDTH 16 0
BBX 16 16 0 -4
BITMAP
0FE0
3018
4004
4184
8282
8482
8882
9082
9FF2
8082
8082
4084
4004
3018
0FE0
0000
ENDCHAR

STARTCHAR A8EB
ENCODING 43243
SWIDTH 960 0
DWIDTH 16 0
BBX 16 16 0 -4
BITMAP
0FE0
3018
4004
4FE4
8802
8802
8FC2
8022
8022
8022
8822
47C4
4004
3018
0FE0
0000
ENDCHAR

STARTCHAR A8EC
ENCODING 43244
SWIDTH 960 0
DWIDTH 16 0
BBX 16 16 0 -4
BITMAP
0FE0
3018
4004
47C4
8822
8802
8FC2
8822
8822
8822
8822
47C4
4004
3018
0FE0
0000
ENDCHAR

STARTCHAR A8ED
ENCODING 43245
SWIDTH 960 0
DWIDTH 16 0
BBX 16 16 0 -4
BITMAP
0FE0
3018
4004
4FE4
8022
8042
8042
8082
8082
8102
8102
4104
4004
3018
0FE0
0000
ENDCHAR

STARTCHAR A8EE
ENCODING 43246
SWIDTH 960 0
DWIDTH 16 0
BBX 16 16 0 -4
BITMAP
0FE0
3018
4004
47C4
8822
8822
8822
87C2
8822
8822
8822
47C4
4004
3018
0FE0
0000
ENDCHAR

STARTCHAR A8EF
ENCODING 43247
SWIDTH 960 0
DWIDTH 16 0
BBX 16 16 0 -4
BITMAP
0FE0
3018
4004
47C4
8822
8822
8822
87E2
8022
8022
8022
47C4
4004
3018
0FE0
0000
ENDCHAR

STARTCHAR A8F0
ENCODING 43248
SWIDTH 960 0
DWIDTH 16 0
BBX 16 16 0 -4
BITMAP
0FE0
3018
4004
48E4
8912
8912
8912
8912
8912
8912
8912
48E4
4004
3018
0FE0
0000
ENDCHAR

STARTCHAR A8F1
ENCODING 43249
SWIDTH 960 0
DWIDTH 16 0
BBX 16 16 0 -4
BITMAP
0FE0
3018
4004
4424
8C62
8422
8422
8422
8422
8422
8422
4E74
4004
3018
0FE0
0000
ENDCHAR

STARTCHAR A8F2
ENCODING 43250
SWIDTH 960 0
DWIDTH 16 0
BBX 16 16 0 -4
BITMAP
0FE0
3018
4004
48E4
8912
8912
8812
8822
8842
8882
8902
49F4
4004
3018
0FE0
0000
ENDCHAR

STARTCHAR A8F3
ENCODING 43251
SWIDTH 960 0
DWIDTH 16 0
BBX 16 16 0 -4
BITMAP
0FE0
3018
4004
48E4
8912
8812
8812
88E2
8812
8812
8912
48E4
4004
3018
0FE0
0000
ENDCHAR

STARTCHAR A8F4
ENCODING 43252
SWIDTH 960 0
DWIDTH 16 0
BBX 16 16 0 -4
BITMAP
0FE0
3018
4004
4864
8862
88A2
88A2
8922
8922
8BFA
8822
4824
4004
3018
0FE0
0000
ENDCHAR

STARTCHAR A8F5
ENCODING 43253
SWIDTH 960 0
DWIDTH 16 0
BBX 16 16 0 -4
BITMAP
0FE0
3018
4004
49F4
8902
8902
89E2
8812
8812
8912
8912
48E4
4004
3018
0FE0
0000
ENDCHAR

STARTCHAR A8F6
ENCODING 43254
SWIDTH 960 0
DWIDTH 16 0
BBX 16 16 0 -4
BITMAP
0000
0040
0040
0040
108C
3092
1092
1082
1104
1108
1110
1110
3A1E
0200
0200
0000
ENDCHAR

STARTCHAR A8F7
ENCODING 43255
SWIDTH 960 0
DWIDTH 16 0
BBX 16 16 0 -4
BITMAP
0000
0040
0040
0040
1098
3084
1084
1084
1118
1104
1104
1104
3A18
0200
0200
0000
ENDCHAR

STARTCHAR A8F8
ENCODING 43256
SWIDTH 960 0
DWIDTH 16 0
BBX 16 16 0 -4
BITMAP
0000
0040
0040
0040
3098
0884
0884
0884
1118
2104
2104
2104
3A18
0200
0200
0000
ENDCHAR

STARTCHAR A8F9
ENCODING 43257
SWIDTH 960 0
DWIDTH 16 0
BBX 16 16 0 -4
BITMAP
0000
0000
0040
0040
0040
1058
3098
1098
10A8
1128
1128
1148
3A7C
0208
0208
0000
ENDCHAR

STARTCHAR A8FA
ENCODING 43258
SWIDTH 960 0
DWIDTH 16 0
BBX 16 16 0 -4
BITMAP
0000
0040
0040
0040
3098
0898
08A8
08A8
3128
0948
0948
097C
3208
0208
0200
0000
ENDCHAR

STARTCHAR A8FB
ENCODING 43259
SWIDTH 960 0
DWIDTH 16 0
BBX 16 16 0 -4
BITMAP
0000
0040
0040
0040
1098
30A4
10A4
10A4
1118
1124
1124
1124
3A18
0200
0200
0000
ENDCHAR

STARTCHAR A8FC
ENCODING 43260
SWIDTH 960 0
DWIDTH 16 0
BBX 16 16 0 -4
BITMAP
0000
0040
0040
0040
3098
08A4
08A4
08A4
3118
0924
0924
0924
3218
0200
0200
0000
ENDCHAR

STARTCHAR A8FD
ENCODING 43261
SWIDTH 960 0
DWIDTH 16 0
BBX 16 16 0 -4
BITMAP
0000
0040
0040
0040
3C98
20A4
20A4
20A4
3918
0524
0524
0524
3A18
0200
0200
0000
ENDCHAR

STARTCHAR A8FE
ENCODING 43262
SWIDTH 960 0
DWIDTH 16 0
BBX 16 16 0 -4
BITMAP
0000
0040
0040
0040
3C98
04A4
04A4
04A4
0918
0924
1124
1124
1218
0200
0200
0000
ENDCHAR

STARTCHAR A9A1
ENCODING 43425
SWIDTH 960 0
DWIDTH 16 0
BBX 16 16 0 -4
BITMAP
0000
0000
0000
0000
0770
0888
0088
0088
07F0
0880
0880
0880
0778
0000
0000
0000
ENDCHAR

STARTCHAR A9A2
ENCODING 43426
SWIDTH 960 0
DWIDTH 16 0
BBX 16 16 0 -4
BITMAP
0000
0000
0040
0040
0040
03F0
0040
0040
03C0
0440
0440
0440
0440
03C0
0000
0000
ENDCHAR

STARTCHAR A9A3
ENCODING 43427
SWIDTH 960 0
DWIDTH 16 0
BBX 16 16 0 -4
BITMAP
0000
0000
0000
0040
0780
0140
0240
0040
07C0
0440
0440
0380
0000
0000
0000
0000
ENDCHAR

STARTCHAR A9A4
ENCODING 43428
SWIDTH 960 0
DWIDTH 16 0
BBX 16 16 0 -4
BITMAP
0000
0000
0400
0400
1F80
0400
0580
0640
0440
0440
0440
0440
0000
0000
0000
0000
ENDCHAR

STARTCHAR A9A5
ENCODING 43429
SWIDTH 960 0
DWIDTH 16 0
BBX 16 16 0 -4
BITMAP
0000
0000
0000
0000
0000
0000
0080
0180
0080
0080
0080
01C0
0000
0000
0000
0000
ENDCHAR

STARTCHAR A9A6
ENCODING 43430
SWIDTH 960 0
DWIDTH 16 0
BBX 16 16 0 -4
BITMAP
0000
0000
0220
0220
0000
0000
0220
0220
0220
0220
0220
0220
0020
00C0
0000
0000
ENDCHAR

STARTCHAR A9A7
ENCODING 43431
SWIDTH 960 0
DWIDTH 16 0
BBX 16 16 0 -4
BITMAP
0000
0000
0000
0000
0000
0000
0120
0140
0180
0180
0140
0120
0000
0000
0000
0000
ENDCHAR

STARTCHAR A9A8
ENCODING 43432
SWIDTH 960 0
DWIDTH 16 0
BBX 16 16 0 -4
BITMAP
0000
0000
0100
0300
0100
0100
0160
0160
0100
0100
0100
0380
0000
0000
0000
0000
ENDCHAR

STARTCHAR A9A9
ENCODING 43433
SWIDTH 960 0
DWIDTH 16 0
BBX 16 16 0 -4
BITMAP
0000
0000
0100
0300
0100
0100
01C0
0700
0100
0100
0100
0380
0000
0000
0000
0000
ENDCHAR

STARTCHAR A9AA
ENCODING 43434
SWIDTH 960 0
DWIDTH 16 0
BBX 16 16 0 -4
BITMAP
0000
00C0
0080
0080
01C0
02A0
02A0
04A0
0540
0540
0380
0100
0100
0300
0000
0000
ENDCHAR

STARTCHAR A9AB
ENCODING 43435
SWIDTH 960 0
DWIDTH 16 0
BBX 16 16 0 -4
BITMAP
0000
0000
0000
0000
06C0
0920
0920
09E0
0900
0900
06E0
0000
0000
0000
0000
0000
ENDCHAR

STARTCHAR A9AC
ENCODING 43436
SWIDTH 960 0
DWIDTH 16 0
BBX 16 16 0 -4
BITMAP
0000
0000
0080
0140
0140
0140
0240
0280
0280
0240
0240
0380
0200
0200
0000
0000
ENDCHAR

STARTCHAR A9AD
ENCODING 43437
SWIDTH 960 0
DWIDTH 16 0
BBX 16 16 0 -4
BITMAP
0000
0000
0000
0700
0200
03C0
0220
0220
0220
0220
03C0
0200
0700
0000
0000
0000
ENDCHAR

STARTCHAR A9AE
ENCODING 43438
SWIDTH 960 0
DWIDTH 16 0
BBX 16 16 0 -4
BITMAP
0000
0200
0200
0380
0E00
0200
0F80
0200
0200
0200
0200
0200
0180
0000
0000
0000
ENDCHAR

STARTCHAR A9AF
ENCODING 43439
SWIDTH 960 0
DWIDTH 16 0
BBX 16 16 0 -4
BITMAP
0000
0000
0000
0000
0D80
0640
0440
0440
0440
0E40
0040
0040
0040
0180
0000
0000
ENDCHAR

STARTCHAR A9B0
ENCODING 43440
SWIDTH 960 0
DWIDTH 16 0
BBX 16 16 0 -4
BITMAP
0000
0000
0400
0600
0C00
0800
0160
0190
0110
0110
0110
0110
0000
0000
0000
0000
ENDCHAR

STARTCHAR A9B1
ENCODING 43441
SWIDTH 960 0
DWIDTH 16 0
BBX 16 16 0 -4
BITMAP
0000
1008
2004
2004
4002
4FE2
4022
4022
4022
4022
4022
4002
2004
2004
1008
0000
ENDCHAR

STARTCHAR A9B2
ENCODING 43442
SWIDTH 960 0
DWIDTH 16 0
BBX 16 16 0 -4
BITMAP
0000
1008
2004
2004
4002
4402
4402
4402
4402
4402
47E2
4002
2004
2004
1008
0000
ENDCHAR

STARTCHAR A9B3
ENCODING 43443
SWIDTH 960 0
DWIDTH 16 0
BBX 16 16 0 -4
BITMAP
0000
1008
2004
2004
4002
47E2
4402
4402
4402
4402
47E2
4002
2004
2004
1008
0000
ENDCHAR

STARTCHAR A9B4
ENCODING 43444
SWIDTH 960 0
DWIDTH 16 0
BBX 16 16 0 -4
BITMAP
0000
1008
2004
2004
47E2
4022
4022
47E2
4402
4402
47E2
4002
2004
2004
1008
0000
ENDCHAR

STARTCHAR A9B5
ENCODING 43445
SWIDTH 960 0
DWIDTH 16 0
BBX 16 16 0 -4
BITMAP
0000
1008
2004
2004
4002
47E2
4422
4422
4422
4422
47E2
4002
2004
2004
1008
0000
ENDCHAR

STARTCHAR A9B6
ENCODING 43446
SWIDTH 960 0
DWIDTH 16 0
BBX 16 16 0 -4
BITMAP
0000
1008
2004
2004
4422
4422
47E2
4422
4422
4422
47E2
4002
2004
2004
1008
0000
ENDCHAR

STARTCHAR A9B7
ENCODING 43447
SWIDTH 960 0
DWIDTH 16 0
BBX 16 16 0 -4
BITMAP
0000
1008
2004
2004
4082
4082
4102
4182
4242
4422
4812
4002
2004
2004
1008
0000
ENDCHAR

STARTCHAR A9B8
ENCODING 43448
SWIDTH 960 0
DWIDTH 16 0
BBX 16 16 0 -4
BITMAP
0000
1008
2004
2004
4182
4082
43C2
4422
4422
4422
4422
43C2
2004
2004
1008
0000
ENDCHAR

STARTCHAR A9B9
ENCODING 43449
SWIDTH 960 0
DWIDTH 16 0
BBX 16 16 0 -4
BITMAP
0000
1008
2004
2004
4002
4FE2
4442
4082
4102
4282
4442
4822
2004
2004
1008
0000
ENDCHAR

STARTCHAR A9BA
ENCODING 43450
SWIDTH 960 0
DWIDTH 16 0
BBX 16 16 0 -4
BITMAP
0000
1008
2004
2004
47C2
4002
4FE2
4442
4082
4182
4242
4C22
2004
2004
1008
0000
ENDCHAR

STARTCHAR A9BB
ENCODING 43451
SWIDTH 960 0
DWIDTH 16 0
BBX 16 16 0 -4
BITMAP
0000
1008
2004
2004
4002
4FE2
4022
4022
41E2
4E22
4022
4022
2004
2004
1008
0000
ENDCHAR

STARTCHAR A9BC
ENCODING 43452
SWIDTH 960 0
DWIDTH 16 0
BBX 16 16 0 -4
BITMAP
0000
1008
2004
2004
4002
47E2
4402
4402
47E2
4402
4402
47E2
2004
2004
1008
0000
ENDCHAR

STARTCHAR A9BD
ENCODING 43453
SWIDTH 960 0
DWIDTH 16 0
BBX 16 16 0 -4
BITMAP
0000
1008
2004
2004
4002
4FF2
4242
4242
4242
4242
4242
4FF2
2004
2004
1008
0000
ENDCHAR

STARTCHAR A9BE
ENCODING 43454
SWIDTH 960 0
DWIDTH 16 0
BBX 16 16 0 -4
BITMAP
0000
1008
2004
2104
4102
4FF2
4002
4002
43C2
4422
4422
43C2
2004
2004
1008
0000
ENDCHAR

STARTCHAR A9BF
ENCODING 43455
SWIDTH 960 0
DWIDTH 16 0
BBX 16 16 0 -4
BITMAP
0000
1008
2004
2004
4022
4FA2
40A2
40A2
413A
4122
4222
4C22
2024
2004
1008
0000
ENDCHAR

STARTCHAR A9C0
ENCODING 43456
SWIDTH 960 0
DWIDTH 16 0
BBX 16 16 0 -4
BITMAP
0000
1008
2004
2004
4022
4822
4822
4822
483A
48E2
4F22
4022
2024
2004
1008
0000
ENDCHAR

STARTCHAR A9C1
ENCODING 43457
SWIDTH 960 0
DWIDTH 16 0
BBX 16 16 0 -4
BITMAP
0000
1008
2004
2004
4022
4FA2
4822
4822
483A
48E2
4F22
4022
2024
2004
1008
0000
ENDCHAR

STARTCHAR A9C2
ENCODING 43458
SWIDTH 960 0
DWIDTH 16 0
BBX 16 16 0 -4
BITMAP
0000
1008
2004
2024
4FA2
40A2
40A2
4FBA
4822
4822
4FA2
4022
2024
2004
1008
0000
ENDCHAR

STARTCHAR A9C3
ENCODING 43459
SWIDTH 960 0
DWIDTH 16 0
BBX 16 16 0 -4
BITMAP
0000
1008
2004
2024
4FA2
48A2
48A2
48BA
48A2
48A2
4FA2
4022
2024
2004
1008
0000
ENDCHAR

STARTCHAR A9C4
ENCODING 43460
SWIDTH 960 0
DWIDTH 16 0
BBX 16 16 0 -4
BITMAP
0000
1008
2004
2024
48A2
48A2
48A2
4FBA
48A2
48A2
4FA2
4022
2024
2004
1008
0000
ENDCHAR

STARTCHAR A9C5
ENCODING 43461
SWIDTH 960 0
DWIDTH 16 0
BBX 16 16 0 -4
BITMAP
0000
1008
2004
2024
4422
4422
4422
4A3A
4A22
5122
60A2
4022
2024
2004
1008
0000
ENDCHAR

STARTCHAR A9C6
ENCODING 43462
SWIDTH 960 0
DWIDTH 16 0
BBX 16 16 0 -4
BITMAP
0000
1008
2004
2024
4022
4E22
5122
513A
5122
5122
4E22
4022
2024
2004
1008
0000
ENDCHAR

STARTCHAR A9C7
ENCODING 43463
SWIDTH 960 0
DWIDTH 16 0
BBX 16 16 0 -4
BITMAP
0000
1008
2004
2024
4022
4FA2
4522
413A
4222
4222
4522
48A2
2024
2004
1008
0000
ENDCHAR

STARTCHAR A9C8
ENCODING 43464
SWIDTH 960 0
DWIDTH 16 0
BBX 16 16 0 -4
BITMAP
0000
1008
2004
2024
4722
4022
4FA2
413A
4122
4222
4522
48A2
2024
2024
1008
0000
ENDCHAR

STARTCHAR A9C9
ENCODING 43465
SWIDTH 960 0
DWIDTH 16 0
BBX 16 16 0 -4
BITMAP
0000
1008
2004
2024
4022
4FA2
40A2
5F3A
4122
4222
4422
4822
2024
2004
1008
0000
ENDCHAR

STARTCHAR A9CA
ENCODING 43466
SWIDTH 960 0
DWIDTH 16 0
BBX 16 16 0 -4
BITMAP
0000
1008
2004
2024
4022
4FA2
4822
4FBA
4822
4822
4FA2
4022
2024
2004
1008
0000
ENDCHAR

STARTCHAR A9CB
ENCODING 43467
SWIDTH 960 0
DWIDTH 16 0
BBX 16 16 0 -4
BITMAP
0000
1008
2004
2024
4022
5FA2
4922
493A
4922
4922
5FA2
4022
2024
2004
1008
0000
ENDCHAR

STARTCHAR A9CC
ENCODING 43468
SWIDTH 960 0
DWIDTH 16 0
BBX 16 16 0 -4
BITMAP
0000
1008
2004
2224
4222
4FA2
4022
473A
48A2
48A2
48A2
4722
2024
2004
1008
0000
ENDCHAR

STARTCHAR A9CD
ENCODING 43469
SWIDTH 960 0
DWIDTH 16 0
BBX 16 16 0 -4
BITMAP
0000
1008
2004
2004
4002
4782
4042
43C2
4442
4442
43E2
4002
2004
2004
1008
0000
ENDCHAR

STARTCHAR A9CE
ENCODING 43470
SWIDTH 960 0
DWIDTH 16 0
BBX 16 16 0 -4
BITMAP
0000
1008
2004
2204
4202
4202
43C2
4222
4222
4222
4222
43C2
2004
2004
1008
0000
ENDCHAR

STARTCHAR A9CF
ENCODING 43471
SWIDTH 960 0
DWIDTH 16 0
BBX 16 16 0 -4
BITMAP
0000
1008
2004
2004
4002
4382
4442
4402
4402
4442
4382
4002
2004
2004
1008
0000
ENDCHAR

STARTCHAR A9D0
ENCODING 43472
SWIDTH 960 0
DWIDTH 16 0
BBX 16 16 0 -4
BITMAP
0000
1008
2004
2044
4042
4042
43C2
4442
4442
4442
4442
43C2
2004
2004
1008
0000
ENDCHAR

STARTCHAR A9D1
ENCODING 43473
SWIDTH 960 0
DWIDTH 16 0
BBX 16 16 0 -4
BITMAP
0000
1008
2004
2004
4002
43C2
4422
4422
47E2
4402
4402
43E2
2004
2004
1008
0000
ENDCHAR

STARTCHAR A9D2
ENCODING 43474
SWIDTH 960 0
DWIDTH 16 0
BBX 16 16 0 -4
BITMAP
0000
1008
2004
20C4
4102
4102
47C2
4102
4102
4102
4102
4102
2004
2004
1008
0000
ENDCHAR

STARTCHAR A9D3
ENCODING 43475
SWIDTH 960 0
DWIDTH 16 0
BBX 16 16 0 -4
BITMAP
0000
1008
2004
23B4
4442
4442
4382
4402
4402
43C2
4422
4422
23C4
2004
1008
0000
ENDCHAR

STARTCHAR A9D4
ENCODING 43476
SWIDTH 960 0
DWIDTH 16 0
BBX 16 16 0 -4
BITMAP
0000
1008
2004
2204
4202
4202
4202
43C2
4222
4222
4222
4222
2004
2004
1008
0000
ENDCHAR

STARTCHAR A9D5
ENCODING 43477
SWIDTH 960 0
DWIDTH 16 0
BBX 16 16 0 -4
BITMAP
0000
1008
2004
2004
4102
4002
4002
4102
4102
4102
4102
4102
2004
2004
1008
0000
ENDCHAR

STARTCHAR A9D6
ENCODING 43478
SWIDTH 960 0
DWIDTH 16 0
BBX 16 16 0 -4
BITMAP
0000
1008
2004
2084
4002
4002
4082
4082
4082
4082
4082
4282
2104
2004
1008
0000
ENDCHAR

STARTCHAR A9D7
ENCODING 43479
SWIDTH 960 0
DWIDTH 16 0
BBX 16 16 0 -4
BITMAP
0000
1008
2004
2204
4202
4202
4202
4242
4282
4302
4282
4242
2004
2004
1008
0000
ENDCHAR

STARTCHAR A9D8
ENCODING 43480
SWIDTH 960 0
DWIDTH 16 0
BBX 16 16 0 -4
BITMAP
0000
1008
2004
2004
4102
4102
4102
4102
4102
4102
4102
4102
2004
2004
1008
0000
ENDCHAR

STARTCHAR A9D9
ENCODING 43481
SWIDTH 960 0
DWIDTH 16 0
BBX 16 16 0 -4
BITMAP
0000
1008
2004
2004
4002
4762
4492
4492
4492
4492
4492
4002
2004
2004
1008
0000
ENDCHAR

STARTCHAR A9DA
ENCODING 43482
SWIDTH 960 0
DWIDTH 16 0
BBX 16 16 0 -4
BITMAP
0000
1008
2004
2004
4002
4782
4442
4442
4442
4442
4442
4002
2004
2004
1008
0000
ENDCHAR

STARTCHAR A9DB
ENCODING 43483
SWIDTH 960 0
DWIDTH 16 0
BBX 16 16 0 -4
BITMAP
0000
1008
2004
2004
4002
4382
4442
4442
4442
4442
4382
4002
2004
2004
1008
0000
ENDCHAR

STARTCHAR A9DC
ENCODING 43484
SWIDTH 960 0
DWIDTH 16 0
BBX 16 16 0 -4
BITMAP
0000
1008
2004
2004
43C2
4222
4222
4222
4222
43C2
4202
4202
2204
2004
1008
0000
ENDCHAR

STARTCHAR A9DD
ENCODING 43485
SWIDTH 960 0
DWIDTH 16 0
BBX 16 16 0 -4
BITMAP
0000
1008
2004
2004
43C2
4442
4442
4442
4442
43C2
4042
4042
2044
2004
1008
0000
ENDCHAR

STARTCHAR A9DE
ENCODING 43486
SWIDTH 960 0
DWIDTH 16 0
BBX 16 16 0 -4
BITMAP
0000
1008
2004
2004
4002
42E2
4302
4202
4202
4202
4202
4002
2004
2004
1008
0000
ENDCHAR

STARTCHAR A9DF
ENCODING 43487
SWIDTH 960 0
DWIDTH 16 0
BBX 16 16 0 -4
BITMAP
0000
1008
2004
2004
4002
43C2
4422
4402
43C2
4022
4422
43C2
2004
2004
1008
0000
ENDCHAR

STARTCHAR A9E0
ENCODING 43488
SWIDTH 960 0
DWIDTH 16 0
BBX 16 16 0 -4
BITMAP
0000
1008
2004
2104
4102
4102
47C2
4102
4102
4102
4122
40C2
2004
2004
1008
0000
ENDCHAR

STARTCHAR A9E1
ENCODING 43489
SWIDTH 960 0
DWIDTH 16 0
BBX 16 16 0 -4
BITMAP
0000
1008
2004
2004
4002
4422
4422
4422
4422
4422
4422
43C2
2004
2004
1008
0000
ENDCHAR

STARTCHAR A9E2
ENCODING 43490
SWIDTH 960 0
DWIDTH 16 0
BBX 16 16 0 -4
BITMAP
0000
1008
2004
2004
4002
4422
4422
4242
4242
4182
4182
4182
2004
2004
1008
0000
ENDCHAR

STARTCHAR A9E3
ENCODING 43491
SWIDTH 960 0
DWIDTH 16 0
BBX 16 16 0 -4
BITMAP
0000
1008
2004
2004
4002
5112
5112
5292
4AA2
4AA2
4442
4442
2004
2004
1008
0000
ENDCHAR

STARTCHAR A9E4
ENCODING 43492
SWIDTH 960 0
DWIDTH 16 0
BBX 16 16 0 -4
BITMAP
0000
1008
2004
2004
4002
4C62
4282
4102
4102
4282
4C62
4002
2004
2004
1008
0000
ENDCHAR

STARTCHAR A9E5
ENCODING 43493
SWIDTH 960 0
DWIDTH 16 0
BBX 16 16 0 -4
BITMAP
0000
1008
2004
2004
4022
4822
4442
4242
4182
4082
4102
4102
2204
2004
1008
0000
ENDCHAR

STARTCHAR A9E6
ENCODING 43494
SWIDTH 960 0
DWIDTH 16 0
BBX 16 16 0 -4
BITMAP
0000
1008
2004
2004
4002
47E2
4042
4082
4102
4202
47E2
4002
2004
2004
1008
0000
ENDCHAR

STARTCHAR A9E7
ENCODING 43495
SWIDTH 960 0
DWIDTH 16 0
BBX 16 16 0 -4
BITMAP
0000
1008
2004
2004
4102
4302
4102
4102
4102
4102
4382
4002
2004
2004
1008
0000
ENDCHAR

STARTCHAR A9E8
ENCODING 43496
SWIDTH 960 0
DWIDTH 16 0
BBX 16 16 0 -4
BITMAP
0000
1008
2004
2004
43C2
4422
4022
43E2
4402
4402
47E2
4002
2004
2004
1008
0000
ENDCHAR

STARTCHAR A9E9
ENCODING 43497
SWIDTH 960 0
DWIDTH 16 0
BBX 16 16 0 -4
BITMAP
0000
1008
2004
2004
43C2
4422
4022
41C2
4022
4422
43C2
4002
2004
2004
1008
0000
ENDCHAR

STARTCHAR A9EA
ENCODING 43498
SWIDTH 960 0
DWIDTH 16 0
BBX 16 16 0 -4
BITMAP
0000
1008
2004
2004
40C2
4142
4242
4442
4442
47F2
4042
4042
2004
2004
1008
0000
ENDCHAR

STARTCHAR A9EB
ENCODING 43499
SWIDTH 960 0
DWIDTH 16 0
BBX 16 16 0 -4
BITMAP
0000
1008
2004
2004
47E2
4402
4402
47C2
4022
4022
4422
43C2
2004
2004
1008
0000
ENDCHAR

STARTCHAR A9EC
ENCODING 43500
SWIDTH 960 0
DWIDTH 16 0
BBX 16 16 0 -4
BITMAP
0000
1008
2004
2004
43C2
4422
4402
47C2
4422
4422
4422
43C2
2004
2004
1008
0000
ENDCHAR

STARTCHAR A9ED
ENCODING 43501
SWIDTH 960 0
DWIDTH 16 0
BBX 16 16 0 -4
BITMAP
0000
1008
2004
2004
47E2
4022
4042
4082
4082
4102
4102
4102
2004
2004
1008
0000
ENDCHAR

STARTCHAR A9EE
ENCODING 43502
SWIDTH 960 0
DWIDTH 16 0
BBX 16 16 0 -4
BITMAP
0000
1008
2004
2004
43C2
4422
4422
43C2
4422
4422
4422
43C2
2004
2004
1008
0000
ENDCHAR

STARTCHAR A9EF
ENCODING 43503
SWIDTH 960 0
DWIDTH 16 0
BBX 16 16 0 -4
BITMAP
0000
1008
2004
2004
43C2
4422
4422
47E2
4022
4022
4422
43C2
2004
2004
1008
0000
ENDCHAR

STARTCHAR A9F0
ENCODING 43504
SWIDTH 960 0
DWIDTH 16 0
BBX 16 16 0 -4
BITMAP
0000
1008
2004
2004
4462
4492
4492
4492
4492
4492
4492
4462
2004
2004
1008
0000
ENDCHAR

STARTCHAR A9F1
ENCODING 43505
SWIDTH 960 0
DWIDTH 16 0
BBX 16 16 0 -4
BITMAP
0000
1008
2004
2004
4222
4662
4222
4222
4222
4222
4222
4772
2004
2004
1008
0000
ENDCHAR

STARTCHAR A9F2
ENCODING 43506
SWIDTH 960 0
DWIDTH 16 0
BBX 16 16 0 -4
BITMAP
0000
1008
2004
2004
44E2
4412
4412
4412
44E2
4482
4482
44F2
2004
2004
1008
0000
ENDCHAR

STARTCHAR A9F3
ENCODING 43507
SWIDTH 960 0
DWIDTH 16 0
BBX 16 16 0 -4
BITMAP
0000
1008
2004
2004
44E2
4412
4412
44E2
4412
4412
4412
44E2
2004
2004
1008
0000
ENDCHAR

STARTCHAR A9F4
ENCODING 43508
SWIDTH 960 0
DWIDTH 16 0
BBX 16 16 0 -4
BITMAP
0000
1008
2004
2004
4422
4462
4462
44A2
44A2
45FA
4422
4422
2004
2004
1008
0000
ENDCHAR

STARTCHAR A9F5
ENCODING 43509
SWIDTH 960 0
DWIDTH 16 0
BBX 16 16 0 -4
BITMAP
0000
1008
2004
2004
44F2
4482
4482
44E2
4412
4412
4412
44E2
2004
2004
1008
0000
ENDCHAR

STARTCHAR A9F6
ENCODING 43510
SWIDTH 960 0
DWIDTH 16 0
BBX 16 16 0 -4
BITMAP
0000
0300
0100
0100
0100
0380
0000
0000
0000
0000
0000
0000
0000
0000
0000
0000
ENDCHAR

STARTCHAR A9F7
ENCODING 43511
SWIDTH 960 0
DWIDTH 16 0
BBX 16 16 0 -4
BITMAP
0000
0380
0080
0380
0200
0380
0000
0000
0000
0000
0000
0000
0000
0000
0000
0000
ENDCHAR

STARTCHAR A9F8
ENCODING 43512
SWIDTH 960 0
DWIDTH 16 0
BBX 16 16 0 -4
BITMAP
0000
0300
0080
0300
0080
0300
0000
0000
0000
0000
0000
0000
0000
0000
0000
0000
ENDCHAR

STARTCHAR A9F9
ENCODING 43513
SWIDTH 960 0
DWIDTH 16 0
BBX 16 16 0 -4
BITMAP
0000
0080
0180
0280
03C0
0080
0000
0000
0000
0000
0000
0000
0000
0000
0000
0000
ENDCHAR

STARTCHAR A9FA
ENCODING 43514
SWIDTH 960 0
DWIDTH 16 0
BBX 16 16 0 -4
BITMAP
0000
0380
0280
0280
0280
0280
0000
0000
0000
0000
0000
0000
0000
0000
0000
0000
ENDCHAR

STARTCHAR A9FB
ENCODING 43515
SWIDTH 960 0
DWIDTH 16 0
BBX 16 16 0 -4
BITMAP
0000
0000
0000
0000
0000
0000
0000
0000
0000
0000
0300
0100
0100
0100
0380
0000
ENDCHAR

STARTCHAR A9FC
ENCODING 43516
SWIDTH 960 0
DWIDTH 16 0
BBX 16 16 0 -4
BITMAP
0000
0000
0000
0000
0000
0000
0000
0000
0000
0000
0380
0080
0380
0200
0380
0000
ENDCHAR

STARTCHAR A9FD
ENCODING 43517
SWIDTH 960 0
DWIDTH 16 0
BBX 16 16 0 -4
BITMAP
0000
0000
0000
0000
0000
0000
0000
0000
0000
0000
0300
0080
0300
0080
0300
0000
ENDCHAR

STARTCHAR A9FE
ENCODING 43518
SWIDTH 960 0
DWIDTH 16 0
BBX 16 16 0 -4
BITMAP
0000
0000
0000
0000
0000
0000
0000
0000
0000
0080
0180
0280
03C0
0080
0080
0000
ENDCHAR

STARTCHAR AAA1
ENCODING 43681
SWIDTH 960 0
DWIDTH 16 0
BBX 16 16 0 -4
BITMAP
0000
0000
0000
0000
0000
0000
0100
01C0
0700
0100
03C0
0520
05A0
0620
00C0
0000
ENDCHAR

STARTCHAR AAA2
ENCODING 43682
SWIDTH 960 0
DWIDTH 16 0
BBX 16 16 0 -4
BITMAP
0000
0200
0300
0200
0260
0F80
0200
03C0
06A0
0A90
0B10
1210
1D10
0020
0040
0000
ENDCHAR

STARTCHAR AAA3
ENCODING 43683
SWIDTH 960 0
DWIDTH 16 0
BBX 16 16 0 -4
BITMAP
0000
0000
0000
0000
0000
0000
0000
0000
0400
0420
0418
0488
0280
0300
0100
0000
ENDCHAR

STARTCHAR AAA4
ENCODING 43684
SWIDTH 960 0
DWIDTH 16 0
BBX 16 16 0 -4
BITMAP
0000
0000
0000
0000
0400
0400
0400
0820
0820
0810
0890
0500
0500
0600
0200
0000
ENDCHAR

STARTCHAR AAA5
ENCODING 43685
SWIDTH 960 0
DWIDTH 16 0
BBX 16 16 0 -4
BITMAP
0000
0000
0000
0000
0000
0380
0000
0000
01C0
0640
0040
0040
0080
0080
0100
0000
ENDCHAR

STARTCHAR AAA6
ENCODING 43686
SWIDTH 960 0
DWIDTH 16 0
BBX 16 16 0 -4
BITMAP
0000
0300
00C0
0100
0000
0040
00E0
0720
0020
0020
0020
0040
0040
0080
0100
0000
ENDCHAR

STARTCHAR AAA7
ENCODING 43687
SWIDTH 960 0
DWIDTH 16 0
BBX 16 16 0 -4
BITMAP
0000
0000
0000
0000
0000
0300
0080
0100
0000
07C0
0080
0100
0280
0480
0860
0000
ENDCHAR

STARTCHAR AAA8
ENCODING 43688
SWIDTH 960 0
DWIDTH 16 0
BBX 16 16 0 -4
BITMAP
0000
0000
0000
0380
0100
0000
08E0
0740
0080
0100
0300
0480
0880
1080
1078
0000
ENDCHAR

STARTCHAR AAA9
ENCODING 43689
SWIDTH 960 0
DWIDTH 16 0
BBX 16 16 0 -4
BITMAP
0000
0000
0000
0000
0000
0000
0300
0130
07D0
0100
0160
0390
0510
0360
0100
0000
ENDCHAR

STARTCHAR AAAA
ENCODING 43690
SWIDTH 960 0
DWIDTH 16 0
BBX 16 16 0 -4
BITMAP
0000
0000
0100
0100
0110
01C8
0F0C
0100
0100
0170
0188
0308
0D08
0330
0100
0000
ENDCHAR

STARTCHAR AAAB
ENCODING 43691
SWIDTH 960 0
DWIDTH 16 0
BBX 16 16 0 -4
BITMAP
0000
0000
0000
0200
0200
0210
0F88
024C
024C
0448
0440
0480
0A80
0980
0000
0000
ENDCHAR

STARTCHAR AAAC
ENCODING 43692
SWIDTH 960 0
DWIDTH 16 0
BBX 16 16 0 -4
BITMAP
0000
0000
0020
0498
0468
0420
1F00
04A0
04B0
0890
0900
0900
1500
1200
0000
0000
ENDCHAR

STARTCHAR AAAD
ENCODING 43693
SWIDTH 960 0
DWIDTH 16 0
BBX 16 16 0 -4
BITMAP
0000
0000
0000
0400
0200
0160
0780
00F0
0FC0
0020
01E0
0220
0400
0480
0300
0000
ENDCHAR

STARTCHAR AAAE
ENCODING 43694
SWIDTH 960 0
DWIDTH 16 0
BBX 16 16 0 -4
BITMAP
0000
0000
0004
0412
020A
0168
0780
00F0
0FC0
0020
01E0
0220
0400
0480
0300
0000
ENDCHAR

STARTCHAR AAAF
ENCODING 43695
SWIDTH 960 0
DWIDTH 16 0
BBX 16 16 0 -4
BITMAP
0000
0100
0080
0080
0100
0200
0400
0400
0400
0200
0100
0080
0080
0040
0040
0000
ENDCHAR

STARTCHAR AAB0
ENCODING 43696
SWIDTH 960 0
DWIDTH 16 0
BBX 16 16 0 -4
BITMAP
0000
0100
0080
0080
0108
0204
0424
0410
0410
0200
0100
0080
0080
0040
0040
0000
ENDCHAR

STARTCHAR AAB1
ENCODING 43697
SWIDTH 960 0
DWIDTH 16 0
BBX 16 16 0 -4
BITMAP
0000
0000
0040
1020
0820
0838
10E0
1020
1220
1420
1820
0840
0840
0080
0100
0000
ENDCHAR

STARTCHAR AAB2
ENCODING 43698
SWIDTH 960 0
DWIDTH 16 0
BBX 16 16 0 -4
BITMAP
0000
0004
0092
204A
1048
1070
21C0
2040
2440
2840
3040
1080
1080
0100
0200
0000
ENDCHAR

STARTCHAR AAB3
ENCODING 43699
SWIDTH 960 0
DWIDTH 16 0
BBX 16 16 0 -4
BITMAP
0000
0000
0000
0000
0000
0FC0
0100
0200
0400
0800
0800
0870
0780
0000
0000
0000
ENDCHAR

STARTCHAR AAB4
ENCODING 43700
SWIDTH 960 0
DWIDTH 16 0
BBX 16 16 0 -4
BITMAP
0000
0000
0008
0024
0010
0FC0
0100
0200
0400
0800
0800
0870
0780
0000
0000
0000
ENDCHAR

STARTCHAR AAB5
ENCODING 43701
SWIDTH 960 0
DWIDTH 16 0
BBX 16 16 0 -4
BITMAP
0000
0000
0200
0200
0100
0120
0FC0
0080
0040
07E0
0810
0800
0800
07C0
0000
0000
ENDCHAR

STARTCHAR AAB6
ENCODING 43702
SWIDTH 960 0
DWIDTH 16 0
BBX 16 16 0 -4
BITMAP
0000
0010
0448
0420
0200
0240
1F80
0100
0080
0FC0
1020
1000
1000
0F80
0000
0000
ENDCHAR

STARTCHAR AAB7
ENCODING 43703
SWIDTH 960 0
DWIDTH 16 0
BBX 16 16 0 -4
BITMAP
0000
0000
0000
0C00
0400
0400
0400
0400
0400
0400
0400
0408
0410
0460
0380
0000
ENDCHAR

STARTCHAR AAB8
ENCODING 43704
SWIDTH 960 0
DWIDTH 16 0
BBX 16 16 0 -4
BITMAP
0000
0000
0000
0820
0410
0440
0420
0400
0400
0400
0400
0400
0408
0430
03C0
0000
ENDCHAR

STARTCHAR AAB9
ENCODING 43705
SWIDTH 960 0
DWIDTH 16 0
BBX 16 16 0 -4
BITMAP
0000
0080
0080
0080
0080
1FF8
0080
0380
0480
0480
0380
0080
0100
0100
0600
0000
ENDCHAR

STARTCHAR AABA
ENCODING 43706
SWIDTH 960 0
DWIDTH 16 0
BBX 16 16 0 -4
BITMAP
0000
0088
00A4
0090
0080
1FF8
0080
0380
0480
0480
0380
0080
0100
0100
0600
0000
ENDCHAR

STARTCHAR AABB
ENCODING 43707
SWIDTH 960 0
DWIDTH 16 0
BBX 16 16 0 -4
BITMAP
0000
0000
0040
0040
0440
0440
0440
05F8
1E40
0440
05C0
0440
0400
0400
03E0
0000
ENDCHAR

STARTCHAR AABC
ENCODING 43708
SWIDTH 960 0
DWIDTH 16 0
BBX 16 16 0 -4
BITMAP
0000
0000
004C
0044
0458
0448
0440
07F8
1C40
0440
04C0
0440
0400
0400
03E0
0000
ENDCHAR

STARTCHAR AABD
ENCODING 43709
SWIDTH 960 0
DWIDTH 16 0
BBX 16 16 0 -4
BITMAP
0000
0000
0480
03C0
0080
0100
0200
0070
0380
1E00
0200
0200
0200
0100
00C0
0000
ENDCHAR

STARTCHAR AABE
ENCODING 43710
SWIDTH 960 0
DWIDTH 16 0
BBX 16 16 0 -4
BITMAP
0000
0000
090C
0784
0130
0210
0400
00E0
0700
3C00
0400
0400
0400
0200
0180
0000
ENDCHAR

STARTCHAR AABF
ENCODING 43711
SWIDTH 960 0
DWIDTH 16 0
BBX 16 16 0 -4
BITMAP
0000
0000
0200
0200
0200
03B0
1E0C
0208
0200
0400
0400
0440
083C
0800
0000
0000
ENDCHAR

STARTCHAR AAC0
ENCODING 43712
SWIDTH 960 0
DWIDTH 16 0
BBX 16 16 0 -4
BITMAP
0000
0000
0208
0224
0210
0380
1E30
020C
0208
0400
0400
0440
083C
0800
0000
0000
ENDCHAR

STARTCHAR AAC1
ENCODING 43713
SWIDTH 960 0
DWIDTH 16 0
BBX 16 16 0 -4
BITMAP
0000
0000
0400
0200
0200
03C0
1E00
0200
0200
02E0
0310
0010
0020
0060
0180
0000
ENDCHAR

STARTCHAR AAC2
ENCODING 43714
SWIDTH 960 0
DWIDTH 16 0
BBX 16 16 0 -4
BITMAP
0000
0000
0400
0218
0208
03B0
1E10
0200
0200
02E0
0310
0010
0020
0060
0180
0000
ENDCHAR

STARTCHAR AAC3
ENCODING 43715
SWIDTH 960 0
DWIDTH 16 0
BBX 16 16 0 -4
BITMAP
0000
0000
0000
0000
0000
0000
0000
0000
0070
0188
0E08
0008
0010
0020
0000
0000
ENDCHAR

STARTCHAR AAC4
ENCODING 43716
SWIDTH 960 0
DWIDTH 16 0
BBX 16 16 0 -4
BITMAP
0000
0000
0000
0000
0070
1188
0E08
0008
0008
0008
0010
0060
0000
0000
0000
0000
ENDCHAR

STARTCHAR AAC5
ENCODING 43717
SWIDTH 960 0
DWIDTH 16 0
BBX 16 16 0 -4
BITMAP
0000
0004
0012
0008
00E0
2310
1C10
0010
0010
0010
0020
00C0
0000
0000
0000
0000
ENDCHAR

STARTCHAR AAC6
ENCODING 43718
SWIDTH 960 0
DWIDTH 16 0
BBX 16 16 0 -4
BITMAP
0000
0000
0000
0030
11E0
0E40
0040
0080
0080
0100
0100
0100
0100
00E0
0000
0000
ENDCHAR

STARTCHAR AAC7
ENCODING 43719
SWIDTH 960 0
DWIDTH 16 0
BBX 16 16 0 -4
BITMAP
0000
0000
0000
0030
11E0
0E40
0050
0088
00A0
0110
0100
0100
0100
00E0
0000
0000
ENDCHAR

STARTCHAR AAC8
ENCODING 43720
SWIDTH 960 0
DWIDTH 16 0
BBX 16 16 0 -4
BITMAP
0000
0000
0100
0080
0080
0080
0080
0080
0060
0080
0100
0200
0200
0200
01E0
0000
ENDCHAR

STARTCHAR AAC9
ENCODING 43721
SWIDTH 960 0
DWIDTH 16 0
BBX 16 16 0 -4
BITMAP
0000
0000
0218
0108
0130
0110
0100
0100
00C0
0100
0200
0400
0400
0400
03C0
0000
ENDCHAR

STARTCHAR AACA
ENCODING 43722
SWIDTH 960 0
DWIDTH 16 0
BBX 16 16 0 -4
BITMAP
0000
0000
0400
0400
1F60
0410
0420
0840
0840
0840
11C0
1260
0250
0180
0000
0000
ENDCHAR

STARTCHAR AACB
ENCODING 43723
SWIDTH 960 0
DWIDTH 16 0
BBX 16 16 0 -4
BITMAP
0000
0000
0800
0400
04F0
0400
0400
0400
0800
0800
0A00
0CF0
0400
0400
0000
0000
ENDCHAR

STARTCHAR AACC
ENCODING 43724
SWIDTH 960 0
DWIDTH 16 0
BBX 16 16 0 -4
BITMAP
0000
0000
0300
0100
0100
1100
13E0
0D10
0908
1508
1208
1C70
0090
0068
0008
0000
ENDCHAR

STARTCHAR AACD
ENCODING 43725
SWIDTH 960 0
DWIDTH 16 0
BBX 16 16 0 -4
BITMAP
0000
0000
0C00
0400
0400
0470
3F88
0508
0608
0408
0C70
1498
2494
2462
0400
0000
ENDCHAR

STARTCHAR AACE
ENCODING 43726
SWIDTH 960 0
DWIDTH 16 0
BBX 16 16 0 -4
BITMAP
0000
0000
0000
01E0
0698
0888
0884
1084
1104
1104
1204
0C08
0008
0030
00C0
0000
ENDCHAR

STARTCHAR AACF
ENCODING 43727
SWIDTH 960 0
DWIDTH 16 0
BBX 16 16 0 -4
BITMAP
0000
0000
0000
0020
1020
082C
09F0
0820
0820
1020
1020
12E0
1530
0928
08C4
0000
ENDCHAR

STARTCHAR AAD0
ENCODING 43728
SWIDTH 960 0
DWIDTH 16 0
BBX 16 16 0 -4
BITMAP
0000
0006
0002
002C
1024
0820
082C
09F0
0820
1020
1020
12E0
1530
0928
08C4
0000
ENDCHAR

STARTCHAR AAD1
ENCODING 43729
SWIDTH 960 0
DWIDTH 16 0
BBX 16 16 0 -4
BITMAP
0000
0004
000A
0024
1020
0820
082C
09F0
0820
1020
1020
12E0
1530
0928
08C4
0000
ENDCHAR

STARTCHAR AAD2
ENCODING 43730
SWIDTH 960 0
DWIDTH 16 0
BBX 16 16 0 -4
BITMAP
0000
0000
0000
0120
1F60
0230
0428
0420
0820
0820
0820
0820
0820
0440
0380
0000
ENDCHAR

STARTCHAR AAD3
ENCODING 43731
SWIDTH 960 0
DWIDTH 16 0
BBX 16 16 0 -4
BITMAP
0000
0006
0002
012C
1F64
0230
0428
0420
0820
0820
0820
0820
0820
0440
0380
0000
ENDCHAR

STARTCHAR AAD4
ENCODING 43732
SWIDTH 960 0
DWIDTH 16 0
BBX 16 16 0 -4
BITMAP
0000
0004
000A
0124
1F60
0230
0428
0420
0820
0820
0820
0820
0820
0440
0380
0000
ENDCHAR

STARTCHAR AAD5
ENCODING 43733
SWIDTH 960 0
DWIDTH 16 0
BBX 16 16 0 -4
BITMAP
0000
0000
0200
0100
0080
0100
0200
0200
0100
0080
0040
0848
1044
2444
2380
0000
ENDCHAR

STARTCHAR AAD6
ENCODING 43734
SWIDTH 960 0
DWIDTH 16 0
BBX 16 16 0 -4
BITMAP
0000
0000
0200
0100
0088
0104
0210
0208
0100
0080
0040
0848
1044
2444
2380
0000
ENDCHAR

STARTCHAR AAD7
ENCODING 43735
SWIDTH 960 0
DWIDTH 16 0
BBX 16 16 0 -4
BITMAP
0000
0000
0200
0100
0088
0114
0208
0200
0100
0080
0040
0848
1044
2444
2380
0000
ENDCHAR

STARTCHAR AAD8
ENCODING 43736
SWIDTH 960 0
DWIDTH 16 0
BBX 16 16 0 -4
BITMAP
0000
0000
0000
0000
0000
0000
0600
0900
0880
3040
0020
0018
0000
0000
0000
0000
ENDCHAR

STARTCHAR AAD9
ENCODING 43737
SWIDTH 960 0
DWIDTH 16 0
BBX 16 16 0 -4
BITMAP
0000
0000
0000
0000
0010
0048
0620
0900
0880
3040
0020
0018
0000
0000
0000
0000
ENDCHAR

STARTCHAR AADA
ENCODING 43738
SWIDTH 960 0
DWIDTH 16 0
BBX 16 16 0 -4
BITMAP
0000
0000
0000
0000
0010
0028
0610
0900
0880
3040
0020
0018
0000
0000
0000
0000
ENDCHAR

STARTCHAR AADB
ENCODING 43739
SWIDTH 960 0
DWIDTH 16 0
BBX 16 16 0 -4
BITMAP
0000
0000
0000
1010
08E0
0800
0820
082C
11F0
1020
1420
18F0
1928
0924
08C0
0000
ENDCHAR

STARTCHAR AADC
ENCODING 43740
SWIDTH 960 0
DWIDTH 16 0
BBX 16 16 0 -4
BITMAP
0000
0006
0002
202C
11C4
1000
1040
1058
23E0
2040
2840
31E0
3250
1248
1180
0000
ENDCHAR

STARTCHAR AADD
ENCODING 43741
SWIDTH 960 0
DWIDTH 16 0
BBX 16 16 0 -4
BITMAP
0000
0004
000A
2024
11C0
1000
1040
1058
23E0
2040
2840
31E0
3250
1248
1180
0000
ENDCHAR

STARTCHAR AADE
ENCODING 43742
SWIDTH 960 0
DWIDTH 16 0
BBX 16 16 0 -4
BITMAP
0000
0000
0080
0080
00F0
0380
0080
00F8
07C0
0040
0040
03E0
0458
0444
0380
0000
ENDCHAR

STARTCHAR AADF
ENCODING 43743
SWIDTH 960 0
DWIDTH 16 0
BBX 16 16 0 -4
BITMAP
0000
0000
04C0
0380
0080
0080
0100
0120
0120
0FA0
1260
1230
0C48
0040
0000
0000
ENDCHAR

STARTCHAR AAE0
ENCODING 43744
SWIDTH 960 0
DWIDTH 16 0
BBX 16 16 0 -4
BITMAP
0000
0000
0400
0200
0380
1E00
0218
0214
0E14
1610
1610
0C10
0410
0410
03E0
0000
ENDCHAR

STARTCHAR AAE1
ENCODING 43745
SWIDTH 960 0
DWIDTH 16 0
BBX 16 16 0 -4
BITMAP
0000
0040
0040
2040
2080
13F0
0C88
0C84
1304
2104
2184
2208
1C18
00E0
0000
0000
ENDCHAR

STARTCHAR AAE2
ENCODING 43746
SWIDTH 960 0
DWIDTH 16 0
BBX 16 16 0 -4
BITMAP
0000
0100
0100
0100
0F00
01C0
0300
0500
0920
0910
07C8
0108
0088
0088
0070
0000
ENDCHAR

STARTCHAR AAE3
ENCODING 43747
SWIDTH 960 0
DWIDTH 16 0
BBX 16 16 0 -4
BITMAP
0000
0000
0000
0000
0000
0300
0400
04F0
0308
0608
1930
0100
0080
0080
0080
0000
ENDCHAR

STARTCHAR AAE4
ENCODING 43748
SWIDTH 960 0
DWIDTH 16 0
BBX 16 16 0 -4
BITMAP
0000
0000
0080
0380
0400
0438
02C4
0304
3E04
0118
0100
0080
0080
0080
0080
0000
ENDCHAR

STARTCHAR AAE5
ENCODING 43749
SWIDTH 960 0
DWIDTH 16 0
BBX 16 16 0 -4
BITMAP
0000
0000
0000
0000
0100
1080
0880
09E0
1290
1490
1490
19E0
0880
0880
0100
0000
ENDCHAR

STARTCHAR AAE6
ENCODING 43750
SWIDTH 960 0
DWIDTH 16 0
BBX 16 16 0 -4
BITMAP
0000
0080
1040
1040
1040
11E0
1250
2448
2448
2848
2950
10E0
1080
0100
0600
0000
ENDCHAR

STARTCHAR AAE7
ENCODING 43751
SWIDTH 960 0
DWIDTH 16 0
BBX 16 16 0 -4
BITMAP
0000
0000
0000
0000
0000
0000
0080
0080
00E0
0080
0080
03C0
04A0
0490
0310
0000
ENDCHAR

STARTCHAR AAE8
ENCODING 43752
SWIDTH 960 0
DWIDTH 16 0
BBX 16 16 0 -4
BITMAP
0000
0000
0300
0100
0100
0100
01E0
0100
0100
0100
0100
0780
0940
0920
0620
0000
ENDCHAR

STARTCHAR AAE9
ENCODING 43753
SWIDTH 960 0
DWIDTH 16 0
BBX 16 16 0 -4
BITMAP
0000
0000
0200
0180
0100
0000
0000
0200
0200
0400
04E0
0710
0010
0020
01C0
0000
ENDCHAR

STARTCHAR AAEA
ENCODING 43754
SWIDTH 960 0
DWIDTH 16 0
BBX 16 16 0 -4
BITMAP
0000
0200
0100
0100
0100
0260
0290
0310
0310
0110
0010
0020
0020
0040
0180
0000
ENDCHAR

STARTCHAR AAEB
ENCODING 43755
SWIDTH 960 0
DWIDTH 16 0
BBX 16 16 0 -4
BITMAP
0000
0000
03F0
0020
0040
0080
0100
0200
03E0
0410
0808
0008
0108
0290
01E0
0000
ENDCHAR

STARTCHAR AAEC
ENCODING 43756
SWIDTH 960 0
DWIDTH 16 0
BBX 16 16 0 -4
BITMAP
0000
0600
0200
0200
0260
0F90
1310
1210
0E10
0A20
1220
3A22
2624
0218
0200
0000
ENDCHAR

STARTCHAR AAED
ENCODING 43757
SWIDTH 960 0
DWIDTH 16 0
BBX 16 16 0 -4
BITMAP
0000
0000
00C0
0780
0080
0100
0100
0200
02E0
0710
0410
0810
0020
0040
0180
0000
ENDCHAR

STARTCHAR AAEE
ENCODING 43758
SWIDTH 960 0
DWIDTH 16 0
BBX 16 16 0 -4
BITMAP
0000
0000
0000
0000
0000
0000
0080
00E0
0380
00E0
0190
0290
0290
01A0
0080
0000
ENDCHAR

STARTCHAR AAEF
ENCODING 43759
SWIDTH 960 0
DWIDTH 16 0
BBX 16 16 0 -4
BITMAP
0000
0000
0200
0200
0200
0200
0370
0F88
0308
0608
0A08
1A08
0610
0210
0220
0000
ENDCHAR

STARTCHAR AAF0
ENCODING 43760
SWIDTH 960 0
DWIDTH 16 0
BBX 16 16 0 -4
BITMAP
0000
0000
0180
0680
0080
0080
0100
0170
0388
0608
0A08
1248
14A8
0C70
0000
0000
ENDCHAR

STARTCHAR AAF1
ENCODING 43761
SWIDTH 960 0
DWIDTH 16 0
BBX 16 16 0 -4
BITMAP
0000
0040
03C0
0080
0100
0200
07E0
0C10
0110
02A0
01C0
0100
0630
0948
0888
0000
ENDCHAR

STARTCHAR AAF2
ENCODING 43762
SWIDTH 960 0
DWIDTH 16 0
BBX 16 16 0 -4
BITMAP
0000
0300
0100
01E0
1F00
0200
0200
0530
08C0
1180
0140
0240
0200
0200
01F8
0000
ENDCHAR

STARTCHAR AAF3
ENCODING 43763
SWIDTH 960 0
DWIDTH 16 0
BBX 16 16 0 -4
BITMAP
0000
0000
0200
0100
0100
0100
0200
0200
0380
0640
0440
0440
0848
0848
0830
0000
ENDCHAR

STARTCHAR ABA1
ENCODING 43937
SWIDTH 960 0
DWIDTH 16 0
BBX 16 16 0 -4
BITMAP
0000
0000
0000
0000
0000
0000
0000
00C0
07E0
0040
0180
0100
0100
0200
0200
0000
ENDCHAR

STARTCHAR ABA2
ENCODING 43938
SWIDTH 960 0
DWIDTH 16 0
BBX 16 16 0 -4
BITMAP
0000
0000
0000
0000
10E0
0F30
0020
0040
0100
0100
0100
0100
0200
0200
0400
0000
ENDCHAR

STARTCHAR ABA3
ENCODING 43939
SWIDTH 960 0
DWIDTH 16 0
BBX 16 16 0 -4
BITMAP
0000
0000
0000
0000
0000
0000
0080
00C0
0080
0180
0280
0480
0080
0080
0080
0000
ENDCHAR

STARTCHAR ABA4
ENCODING 43940
SWIDTH 960 0
DWIDTH 16 0
BBX 16 16 0 -4
BITMAP
0000
0080
0060
0040
0080
0080
0180
02C0
0480
0080
0080
0080
0080
0080
0080
0000
ENDCHAR

STARTCHAR ABA5
ENCODING 43941
SWIDTH 960 0
DWIDTH 16 0
BBX 16 16 0 -4
BITMAP
0000
0000
0000
0000
0000
0000
0080
0080
03E0
0220
0220
0040
0040
0080
0300
0000
ENDCHAR

STARTCHAR ABA6
ENCODING 43942
SWIDTH 960 0
DWIDTH 16 0
BBX 16 16 0 -4
BITMAP
0000
0000
0100
0100
0100
0FE0
0820
0820
0820
0020
0040
0040
0080
0100
0600
0000
ENDCHAR

STARTCHAR ABA7
ENCODING 43943
SWIDTH 960 0
DWIDTH 16 0
BBX 16 16 0 -4
BITMAP
0000
0000
0000
0000
0000
0000
0000
0000
0000
03E0
0080
0080
0080
00F0
0780
0000
ENDCHAR

STARTCHAR ABA8
ENCODING 43944
SWIDTH 960 0
DWIDTH 16 0
BBX 16 16 0 -4
BITMAP
0000
0000
0000
0000
0000
0FF8
0080
0080
0080
0080
1FFC
0000
0000
0000
0000
0000
ENDCHAR

STARTCHAR ABA9
ENCODING 43945
SWIDTH 960 0
DWIDTH 16 0
BBX 16 16 0 -4
BITMAP
0000
0000
0000
0000
0000
0000
0040
0040
03F0
0040
00C0
0140
0240
04C0
0040
0000
ENDCHAR

STARTCHAR ABAA
ENCODING 43946
SWIDTH 960 0
DWIDTH 16 0
BBX 16 16 0 -4
BITMAP
0000
0000
0040
0040
0040
0040
07F8
0040
00C0
0140
0240
0440
0840
01C0
0040
0000
ENDCHAR

STARTCHAR ABAB
ENCODING 43947
SWIDTH 960 0
DWIDTH 16 0
BBX 16 16 0 -4
BITMAP
0000
0000
0100
0100
0100
0FF0
0110
0110
0110
0210
0210
0210
04E0
0420
0800
0000
ENDCHAR

STARTCHAR ABAC
ENCODING 43948
SWIDTH 960 0
DWIDTH 16 0
BBX 16 16 0 -4
BITMAP
0000
0004
0102
0108
0104
0FF0
0110
0110
0110
0210
0210
0210
04E0
0420
0800
0000
ENDCHAR

STARTCHAR ABAD
ENCODING 43949
SWIDTH 960 0
DWIDTH 16 0
BBX 16 16 0 -4
BITMAP
0000
0000
0300
0100
0100
01E0
0700
0100
0170
0F80
0080
0080
0080
0080
00C0
0000
ENDCHAR

STARTCHAR ABAE
ENCODING 43950
SWIDTH 960 0
DWIDTH 16 0
BBX 16 16 0 -4
BITMAP
0000
0000
0306
0102
0118
01E8
0700
0100
0170
0F80
0080
0080
0080
0080
00C0
0000
ENDCHAR

STARTCHAR ABAF
ENCODING 43951
SWIDTH 960 0
DWIDTH 16 0
BBX 16 16 0 -4
BITMAP
0000
0000
0000
0100
0100
01E0
0220
0220
0440
0040
0080
0080
0100
0200
0400
0000
ENDCHAR

STARTCHAR ABB0
ENCODING 43952
SWIDTH 960 0
DWIDTH 16 0
BBX 16 16 0 -4
BITMAP
0000
0000
0010
0448
0420
0780
0880
0880
1100
0100
0200
0200
0400
0800
1000
0000
ENDCHAR

STARTCHAR ABB1
ENCODING 43953
SWIDTH 960 0
DWIDTH 16 0
BBX 16 16 0 -4
BITMAP
0000
0000
0600
0300
0200
03E0
0480
0480
0880
0080
0100
0100
0200
0200
0400
0000
ENDCHAR

STARTCHAR ABB2
ENCODING 43954
SWIDTH 960 0
DWIDTH 16 0
BBX 16 16 0 -4
BITMAP
0000
0004
0402
0408
0404
07F0
0880
0880
1080
0080
0100
0100
0200
0200
0400
0000
ENDCHAR

STARTCHAR ABB3
ENCODING 43955
SWIDTH 960 0
DWIDTH 16 0
BBX 16 16 0 -4
BITMAP
0000
0000
0000
0000
0000
0FE0
0020
0020
0020
0020
0FF0
0000
0000
0000
0000
0000
ENDCHAR

STARTCHAR ABB4
ENCODING 43956
SWIDTH 960 0
DWIDTH 16 0
BBX 16 16 0 -4
BITMAP
0000
0000
0004
0012
0008
0FE0
0020
0020
0020
0020
0FF0
0000
0000
0000
0000
0000
ENDCHAR

STARTCHAR ABB5
ENCODING 43957
SWIDTH 960 0
DWIDTH 16 0
BBX 16 16 0 -4
BITMAP
0000
0000
0020
0220
0220
1FFC
0220
0220
0220
0220
0020
0040
0040
0080
0100
0000
ENDCHAR

STARTCHAR ABB6
ENCODING 43958
SWIDTH 960 0
DWIDTH 16 0
BBX 16 16 0 -4
BITMAP
0000
0000
0084
0492
0488
0480
3FF0
0480
0480
0480
0080
0080
0100
0100
0200
0000
ENDCHAR

STARTCHAR ABB7
ENCODING 43959
SWIDTH 960 0
DWIDTH 16 0
BBX 16 16 0 -4
BITMAP
0000
0000
0000
0000
0200
0100
0800
0410
0010
0020
0040
0880
0700
0400
0000
0000
ENDCHAR

STARTCHAR ABB8
ENCODING 43960
SWIDTH 960 0
DWIDTH 16 0
BBX 16 16 0 -4
BITMAP
0000
0000
0010
0448
0220
1300
0800
0C10
0010
0020
0040
0880
0700
0400
0000
0000
ENDCHAR

STARTCHAR ABB9
ENCODING 43961
SWIDTH 960 0
DWIDTH 16 0
BBX 16 16 0 -4
BITMAP
0000
0000
0000
0000
0000
08E0
0720
0040
0040
0080
0080
0140
0220
0418
1808
0000
ENDCHAR

STARTCHAR ABBA
ENCODING 43962
SWIDTH 960 0
DWIDTH 16 0
BBX 16 16 0 -4
BITMAP
0000
000C
0004
0018
0008
08E0
0720
0040
0040
0080
0080
0140
0220
0418
1808
0000
ENDCHAR

STARTCHAR ABBB
ENCODING 43963
SWIDTH 960 0
DWIDTH 16 0
BBX 16 16 0 -4
BITMAP
0000
0000
0000
0100
0100
0100
01F8
0F10
0120
0100
0100
0100
00F8
0000
0000
0000
ENDCHAR

STARTCHAR ABBC
ENCODING 43964
SWIDTH 960 0
DWIDTH 16 0
BBX 16 16 0 -4
BITMAP
0000
0006
0002
010C
0104
0100
01F8
0F10
0120
0100
0100
0100
00F8
0000
0000
0000
ENDCHAR

STARTCHAR ABBD
ENCODING 43965
SWIDTH 960 0
DWIDTH 16 0
BBX 16 16 0 -4
BITMAP
0000
0000
0000
0000
0020
0020
0420
0220
0040
0040
0080
0080
0100
0200
0400
0000
ENDCHAR

STARTCHAR ABBE
ENCODING 43966
SWIDTH 960 0
DWIDTH 16 0
BBX 16 16 0 -4
BITMAP
0000
0008
0024
0010
0040
0040
0840
0440
0080
0080
0100
0100
0200
0400
0800
0000
ENDCHAR

STARTCHAR ABBF
ENCODING 43967
SWIDTH 960 0
DWIDTH 16 0
BBX 16 16 0 -4
BITMAP
0000
0000
0000
0000
0200
03E0
0420
0440
0B40
0080
00C0
0120
0220
0400
0800
0000
ENDCHAR

STARTCHAR ABC0
ENCODING 43968
SWIDTH 960 0
DWIDTH 16 0
BBX 16 16 0 -4
BITMAP
0000
0000
0004
0012
0208
03E0
0420
0440
0A40
0180
00C0
0120
0220
0400
0800
0000
ENDCHAR

STARTCHAR ABC1
ENCODING 43969
SWIDTH 960 0
DWIDTH 16 0
BBX 16 16 0 -4
BITMAP
0000
0000
0000
00C0
0300
0000
0080
00F8
0F80
0080
0080
0100
0100
0200
0400
0000
ENDCHAR

STARTCHAR ABC2
ENCODING 43970
SWIDTH 960 0
DWIDTH 16 0
BBX 16 16 0 -4
BITMAP
0000
0000
0004
0192
0608
0000
0100
01F0
1F00
0100
0100
0200
0200
0400
0800
0000
ENDCHAR

STARTCHAR ABC3
ENCODING 43971
SWIDTH 960 0
DWIDTH 16 0
BBX 16 16 0 -4
BITMAP
0000
0000
0000
0000
0000
0000
0000
0120
0520
0240
0040
0080
0080
0100
0200
0000
ENDCHAR

STARTCHAR ABC4
ENCODING 43972
SWIDTH 960 0
DWIDTH 16 0
BBX 16 16 0 -4
BITMAP
0000
0000
0000
0000
0010
0110
04A0
0220
0020
0040
0040
0080
0080
0100
0200
0000
ENDCHAR

STARTCHAR ABC5
ENCODING 43973
SWIDTH 960 0
DWIDTH 16 0
BBX 16 16 0 -4
BITMAP
0000
0004
0012
0008
0020
0220
0940
0440
0040
0080
0080
0100
0100
0200
0400
0000
ENDCHAR

STARTCHAR ABC6
ENCODING 43974
SWIDTH 960 0
DWIDTH 16 0
BBX 16 16 0 -4
BITMAP
0000
0000
0000
00E0
0700
0000
0078
0F80
0080
0080
0080
0100
0100
0200
0400
0000
ENDCHAR

STARTCHAR ABC7
ENCODING 43975
SWIDTH 960 0
DWIDTH 16 0
BBX 16 16 0 -4
BITMAP
0000
0000
0004
0192
0E08
0000
00E0
1F00
0100
0100
0100
0200
0200
0400
0800
0000
ENDCHAR

STARTCHAR ABC8
ENCODING 43976
SWIDTH 960 0
DWIDTH 16 0
BBX 16 16 0 -4
BITMAP
0000
0000
0100
0100
0100
0100
0100
0180
0140
0120
0120
0100
0100
0100
0100
0000
ENDCHAR

STARTCHAR ABC9
ENCODING 43977
SWIDTH 960 0
DWIDTH 16 0
BBX 16 16 0 -4
BITMAP
0000
0000
0420
0410
0480
0440
0400
0600
0500
0480
0480
0400
0400
0400
0400
0000
ENDCHAR

STARTCHAR ABCA
ENCODING 43978
SWIDTH 960 0
DWIDTH 16 0
BBX 16 16 0 -4
BITMAP
0000
0000
0080
0080
0080
0080
07F0
0080
0080
0080
0080
0100
0100
0200
0400
0000
ENDCHAR

STARTCHAR ABCB
ENCODING 43979
SWIDTH 960 0
DWIDTH 16 0
BBX 16 16 0 -4
BITMAP
0000
0000
0000
0000
0000
07E0
0000
0000
0000
0000
0FF0
0000
0000
0000
0000
0000
ENDCHAR

STARTCHAR ABCC
ENCODING 43980
SWIDTH 960 0
DWIDTH 16 0
BBX 16 16 0 -4
BITMAP
0000
0000
0000
0000
0000
03E0
0020
0020
0240
0140
0080
0140
0220
0410
0800
0000
ENDCHAR

STARTCHAR ABCD
ENCODING 43981
SWIDTH 960 0
DWIDTH 16 0
BBX 16 16 0 -4
BITMAP
0000
0000
0100
0080
0080
0000
03E0
0040
0080
01A0
0290
0480
0080
0080
0080
0000
ENDCHAR

STARTCHAR ABCE
ENCODING 43982
SWIDTH 960 0
DWIDTH 16 0
BBX 16 16 0 -4
BITMAP
0000
0000
0000
0080
0040
0040
0080
0080
0080
0100
0100
0200
0200
0400
0000
0000
ENDCHAR

STARTCHAR ABCF
ENCODING 43983
SWIDTH 960 0
DWIDTH 16 0
BBX 16 16 0 -4
BITMAP
0000
0000
0000
0000
0000
0000
0120
0110
0210
0408
0808
0000
0000
0000
0000
0000
ENDCHAR

STARTCHAR ABD0
ENCODING 43984
SWIDTH 960 0
DWIDTH 16 0
BBX 16 16 0 -4
BITMAP
0000
0000
0008
0004
0010
0008
0240
0220
0420
0810
1010
0000
0000
0000
0000
0000
ENDCHAR

STARTCHAR ABD1
ENCODING 43985
SWIDTH 960 0
DWIDTH 16 0
BBX 16 16 0 -4
BITMAP
0000
0000
0000
0008
0014
0008
0240
0220
0420
0810
1010
0000
0000
0000
0000
0000
ENDCHAR

STARTCHAR ABD2
ENCODING 43986
SWIDTH 960 0
DWIDTH 16 0
BBX 16 16 0 -4
BITMAP
0000
0000
0000
0000
0400
0400
0460
0780
0400
0400
0400
0400
03E0
0000
0000
0000
ENDCHAR

STARTCHAR ABD3
ENCODING 43987
SWIDTH 960 0
DWIDTH 16 0
BBX 16 16 0 -4
BITMAP
0000
0000
0010
0008
1040
1020
1180
1E00
1000
1000
1000
1000
0F80
0000
0000
0000
ENDCHAR

STARTCHAR ABD4
ENCODING 43988
SWIDTH 960 0
DWIDTH 16 0
BBX 16 16 0 -4
BITMAP
0000
0000
0000
0010
1028
1010
1180
1E00
1000
1000
1000
1000
0F80
0000
0000
0000
ENDCHAR

STARTCHAR ABD5
ENCODING 43989
SWIDTH 960 0
DWIDTH 16 0
BBX 16 16 0 -4
BITMAP
0000
0000
0000
0000
0000
07F0
0020
0020
0040
0040
0080
0100
0100
0200
0400
0000
ENDCHAR

STARTCHAR ABD6
ENCODING 43990
SWIDTH 960 0
DWIDTH 16 0
BBX 16 16 0 -4
BITMAP
0000
0000
0008
0024
0010
1FC0
0080
0080
0100
0100
0200
0400
0400
0800
1000
0000
ENDCHAR

STARTCHAR ABD7
ENCODING 43991
SWIDTH 960 0
DWIDTH 16 0
BBX 16 16 0 -4
BITMAP
0000
0000
0008
0014
0008
0FE0
0040
0040
0080
0080
0100
0200
0200
0400
0800
0000
ENDCHAR

STARTCHAR ABD8
ENCODING 43992
SWIDTH 960 0
DWIDTH 16 0
BBX 16 16 0 -4
BITMAP
0000
0000
0000
0000
0000
0000
0300
0480
0840
1030
000C
0000
0000
0000
0000
0000
ENDCHAR

STARTCHAR ABD9
ENCODING 43993
SWIDTH 960 0
DWIDTH 16 0
BBX 16 16 0 -4
BITMAP
0000
0000
0000
0010
0008
0020
0310
0480
0840
1030
000C
0000
0000
0000
0000
0000
ENDCHAR

STARTCHAR ABDA
ENCODING 43994
SWIDTH 960 0
DWIDTH 16 0
BBX 16 16 0 -4
BITMAP
0000
0000
0000
0010
0028
0010
0300
0480
0840
1030
000C
0000
0000
0000
0000
0000
ENDCHAR

STARTCHAR ABDB
ENCODING 43995
SWIDTH 960 0
DWIDTH 16 0
BBX 16 16 0 -4
BITMAP
0000
0000
0080
0080
0080
0080
0FF8
0080
0080
02A0
0490
0888
0180
0080
0000
0000
ENDCHAR

STARTCHAR ABDC
ENCODING 43996
SWIDTH 960 0
DWIDTH 16 0
BBX 16 16 0 -4
BITMAP
0000
0000
0108
0124
0110
0100
1FF0
0100
0100
0540
0920
1110
0300
0100
0000
0000
ENDCHAR

STARTCHAR ABDD
ENCODING 43997
SWIDTH 960 0
DWIDTH 16 0
BBX 16 16 0 -4
BITMAP
0000
0000
0110
0128
0110
0100
1FF0
0100
0100
0540
0920
1110
0300
0100
0000
0000
ENDCHAR

STARTCHAR ABDE
ENCODING 43998
SWIDTH 960 0
DWIDTH 16 0
BBX 16 16 0 -4
BITMAP
0000
0000
0000
0000
0000
0010
10F8
0F10
0020
0140
0080
0040
0000
0000
0000
0000
ENDCHAR

STARTCHAR ABDF
ENCODING 43999
SWIDTH 960 0
DWIDTH 16 0
BBX 16 16 0 -4
BITMAP
0000
0000
0300
00C0
0040
0000
0300
00C0
0040
0000
0300
0080
0060
0020
0000
0000
ENDCHAR

STARTCHAR ABE0
ENCODING 44000
SWIDTH 960 0
DWIDTH 16 0
BBX 16 16 0 -4
BITMAP
0000
0000
0000
0200
0100
0100
0200
0220
0210
04F0
0F08
0800
0000
0000
0000
0000
ENDCHAR

STARTCHAR ABE1
ENCODING 44001
SWIDTH 960 0
DWIDTH 16 0
BBX 16 16 0 -4
BITMAP
0000
0000
0000
0040
0040
0240
0180
00C0
00A0
0130
0110
0200
0400
0800
0000
0000
ENDCHAR

STARTCHAR ABE2
ENCODING 44002
SWIDTH 960 0
DWIDTH 16 0
BBX 16 16 0 -4
BITMAP
0000
0000
0000
0000
0000
00E0
0700
0100
01F0
0F00
0100
00F0
0000
0000
0000
0000
ENDCHAR

STARTCHAR ABE3
ENCODING 44003
SWIDTH 960 0
DWIDTH 16 0
BBX 16 16 0 -4
BITMAP
0000
0000
0000
0000
0000
0000
0100
0100
0100
01E0
0720
0080
0080
0080
0080
0000
ENDCHAR

STARTCHAR ABE4
ENCODING 44004
SWIDTH 960 0
DWIDTH 16 0
BBX 16 16 0 -4
BITMAP
0000
0000
0100
0100
0100
01F0
1F20
0120
0100
0080
0080
0080
0080
0080
0080
0000
ENDCHAR

STARTCHAR ABE5
ENCODING 44005
SWIDTH 960 0
DWIDTH 16 0
BBX 16 16 0 -4
BITMAP
0000
0000
0000
0000
0000
0000
0000
0040
07C0
0040
0040
00E0
0700
0000
0000
0000
ENDCHAR

STARTCHAR ABE6
ENCODING 44006
SWIDTH 960 0
DWIDTH 16 0
BBX 16 16 0 -4
BITMAP
0000
0000
0000
0000
0000
0000
0040
07E0
0040
0040
0040
00F8
1F00
0000
0000
0000
ENDCHAR

STARTCHAR ABE7
ENCODING 44007
SWIDTH 960 0
DWIDTH 16 0
BBX 16 16 0 -4
BITMAP
0000
0000
0000
0000
0000
0000
03E0
0020
0020
01E0
0020
0020
07F0
0000
0000
0000
ENDCHAR

STARTCHAR ABE8
ENCODING 44008
SWIDTH 960 0
DWIDTH 16 0
BBX 16 16 0 -4
BITMAP
0000
0000
0000
0000
07E0
0020
0020
0020
03E0
0020
0020
0020
0FF0
0000
0000
0000
ENDCHAR

STARTCHAR ABE9
ENCODING 44009
SWIDTH 960 0
DWIDTH 16 0
BBX 16 16 0 -4
BITMAP
0000
0000
0000
03C0
0000
0000
00E0
0720
0040
0040
0080
0080
0100
0200
0400
0000
ENDCHAR

STARTCHAR ABEA
ENCODING 44010
SWIDTH 960 0
DWIDTH 16 0
BBX 16 16 0 -4
BITMAP
0000
0000
0020
0220
0220
0220
0220
0220
0220
0040
0040
0080
0080
0100
0200
0000
ENDCHAR

STARTCHAR ABEB
ENCODING 44011
SWIDTH 960 0
DWIDTH 16 0
BBX 16 16 0 -4
BITMAP
0000
0000
0000
0000
0000
0000
0480
0480
0488
0490
04A0
0840
0800
1000
0000
0000
ENDCHAR

STARTCHAR ABEC
ENCODING 44012
SWIDTH 960 0
DWIDTH 16 0
BBX 16 16 0 -4
BITMAP
0000
0000
0000
0000
0000
0000
0400
0410
0420
0440
0580
0600
0000
0000
0000
0000
ENDCHAR

STARTCHAR ABED
ENCODING 44013
SWIDTH 960 0
DWIDTH 16 0
BBX 16 16 0 -4
BITMAP
0000
0000
0000
0000
0000
0C20
07F0
0420
0420
0420
07F0
0400
0000
0000
0000
0000
ENDCHAR

STARTCHAR ABEE
ENCODING 44014
SWIDTH 960 0
DWIDTH 16 0
BBX 16 16 0 -4
BITMAP
0000
0000
0000
0000
0000
0000
0200
03E0
0240
0240
0040
0080
0080
0100
0100
0000
ENDCHAR

STARTCHAR ABEF
ENCODING 44015
SWIDTH 960 0
DWIDTH 16 0
BBX 16 16 0 -4
BITMAP
0000
0000
0000
0000
0C40
07E0
0440
0440
0440
0440
0080
0080
0100
0100
0200
0000
ENDCHAR

STARTCHAR ABF0
ENCODING 44016
SWIDTH 960 0
DWIDTH 16 0
BBX 16 16 0 -4
BITMAP
0000
0180
00C0
0080
0080
0080
0FF0
0480
0480
0480
0FF8
0080
0080
0080
0080
0000
ENDCHAR

STARTCHAR ABF1
ENCODING 44017
SWIDTH 960 0
DWIDTH 16 0
BBX 16 16 0 -4
BITMAP
0000
0000
0000
0000
0000
07F0
0020
0040
0080
0080
0080
1FFC
0000
0000
0000
0000
ENDCHAR

STARTCHAR ABF2
ENCODING 44018
SWIDTH 960 0
DWIDTH 16 0
BBX 16 16 0 -4
BITMAP
0000
0000
0000
0820
07F0
0020
0020
07C0
0040
0080
0080
0100
0200
0400
0000
0000
ENDCHAR

STARTCHAR ABF3
ENCODING 44019
SWIDTH 960 0
DWIDTH 16 0
BBX 16 16 0 -4
BITMAP
0000
0000
0000
0000
0400
0210
0020
0040
0040
0080
0100
0600
0000
0000
0000
0000
ENDCHAR

STARTCHAR ABF4
ENCODING 44020
SWIDTH 960 0
DWIDTH 16 0
BBX 16 16 0 -4
BITMAP
0000
0010
0448
0428
1FA0
1080
1080
1080
1100
0100
0200
0200
0400
0800
1000
0000
ENDCHAR

STARTCHAR ABF5
ENCODING 44021
SWIDTH 960 0
DWIDTH 16 0
BBX 16 16 0 -4
BITMAP
0000
0000
0000
0000
0000
0000
0100
0100
07E0
0120
0120
0220
0220
04A0
0840
0000
ENDCHAR

STARTCHAR ABF6
ENCODING 44022
SWIDTH 960 0
DWIDTH 16 0
BBX 16 16 0 -4
BITMAP
0000
0000
0000
0000
0000
0000
0100
0100
0230
03C0
0480
0080
0080
0100
0100
0000
ENDCHAR

STARTCHAR ACA1
ENCODING 44193
SWIDTH 960 0
DWIDTH 16 0
BBX 16 16 0 -4
BITMAP
0000
0000
0000
0000
0180
0180
0180
0240
0240
0240
07E0
0420
0420
0E70
0000
0000
ENDCHAR

STARTCHAR ACA2
ENCODING 44194
SWIDTH 960 0
DWIDTH 16 0
BBX 16 16 0 -4
BITMAP
0000
0000
0000
07E0
0220
0210
0200
03C0
0220
0210
0210
0210
0220
07C0
0000
0000
ENDCHAR

STARTCHAR ACA3
ENCODING 44195
SWIDTH 960 0
DWIDTH 16 0
BBX 16 16 0 -4
BITMAP
0000
0000
0000
0F80
0440
0440
0440
0780
0440
0420
0420
0420
0440
0F80
0000
0000
ENDCHAR

STARTCHAR ACA4
ENCODING 44196
SWIDTH 960 0
DWIDTH 16 0
BBX 16 16 0 -4
BITMAP
0000
0000
0000
0FC0
0440
0420
0400
0400
0400
0400
0400
0400
0400
0E00
0000
0000
ENDCHAR

STARTCHAR ACA5
ENCODING 44197
SWIDTH 960 0
DWIDTH 16 0
BBX 16 16 0 -4
BITMAP
0000
0000
0000
07F0
0220
0220
0220
0220
0220
0420
0420
0420
0FF0
0810
1008
0000
ENDCHAR

STARTCHAR ACA6
ENCODING 44198
SWIDTH 960 0
DWIDTH 16 0
BBX 16 16 0 -4
BITMAP
0000
0000
0000
0FE0
0420
0400
0400
0440
07C0
0440
0400
0420
0420
0FE0
0000
0000
ENDCHAR

STARTCHAR ACA7
ENCODING 44199
SWIDTH 960 0
DWIDTH 16 0
BBX 16 16 0 -4
BITMAP
0000
0660
0660
0000
0FE0
0420
0400
0440
07C0
0440
0400
0420
0420
0FE0
0000
0000
ENDCHAR

STARTCHAR ACA8
ENCODING 44200
SWIDTH 960 0
DWIDTH 16 0
BBX 16 16 0 -4
BITMAP
0000
0000
0000
3398
4924
4924
0920
0540
07C0
0540
0920
1110
1110
7BBC
0000
0000
ENDCHAR

STARTCHAR ACA9
ENCODING 44201
SWIDTH 960 0
DWIDTH 16 0
BBX 16 16 0 -4
BITMAP
0000
0000
0000
05C0
0620
0420
0020
0020
01C0
0020
0020
0820
0C20
0BC0
0000
0000
ENDCHAR

STARTCHAR ACAA
ENCODING 44202
SWIDTH 960 0
DWIDTH 16 0
BBX 16 16 0 -4
BITMAP
0000
0000
0000
0E30
0420
0460
0460
04A0
04A0
0520
0620
0620
0420
0C70
0000
0000
ENDCHAR

STARTCHAR ACAB
ENCODING 44203
SWIDTH 960 0
DWIDTH 16 0
BBX 16 16 0 -4
BITMAP
0000
0240
0180
0000
0C70
0420
0460
0460
04A0
0520
0520
0620
0420
0E70
0000
0000
ENDCHAR

STARTCHAR ACAC
ENCODING 44204
SWIDTH 960 0
DWIDTH 16 0
BBX 16 16 0 -4
BITMAP
0000
0000
0000
0C70
0420
0440
0440
0480
0780
0480
0440
0440
0420
0E70
0000
0000
ENDCHAR

STARTCHAR ACAD
ENCODING 44205
SWIDTH 960 0
DWIDTH 16 0
BBX 16 16 0 -4
BITMAP
0000
0000
0000
03F8
0110
0110
0110
0110
0110
0110
0110
0210
1210
0C38
0000
0000
ENDCHAR

STARTCHAR ACAE
ENCODING 44206
SWIDTH 960 0
DWIDTH 16 0
BBX 16 16 0 -4
BITMAP
0000
0000
0000
0440
0440
0440
0440
0AA0
0AA0
0AA0
1110
1110
1110
3938
0000
0000
ENDCHAR

STARTCHAR ACAF
ENCODING 44207
SWIDTH 960 0
DWIDTH 16 0
BBX 16 16 0 -4
BITMAP
0000
0000
0000
0000
0E70
0420
0420
0420
07E0
0420
0420
0420
0420
0E70
0000
0000
ENDCHAR

STARTCHAR ACB0
ENCODING 44208
SWIDTH 960 0
DWIDTH 16 0
BBX 16 16 0 -4
BITMAP
0000
0000
0000
0000
03C0
0420
0810
0810
0810
0810
0810
0810
0420
03C0
0000
0000
ENDCHAR

STARTCHAR ACB1
ENCODING 44209
SWIDTH 960 0
DWIDTH 16 0
BBX 16 16 0 -4
BITMAP
0000
0000
0000
0FF0
0420
0420
0420
0420
0420
0420
0420
0420
0420
0E70
0000
0000
ENDCHAR

STARTCHAR ACB2
ENCODING 44210
SWIDTH 960 0
DWIDTH 16 0
BBX 16 16 0 -4
BITMAP
0000
0000
0000
07E0
0210
0210
0210
0210
03E0
0200
0200
0200
0200
0700
0000
0000
ENDCHAR

STARTCHAR ACB3
ENCODING 44211
SWIDTH 960 0
DWIDTH 16 0
BBX 16 16 0 -4
BITMAP
0000
0000
0000
03C0
0420
0820
0820
0800
0800
0800
0820
0820
0420
03C0
0000
0000
ENDCHAR

STARTCHAR ACB4
ENCODING 44212
SWIDTH 960 0
DWIDTH 16 0
BBX 16 16 0 -4
BITMAP
0000
0000
0000
0000
0FE0
0920
0100
0100
0100
0100
0100
0100
0100
0380
0000
0000
ENDCHAR

STARTCHAR ACB5
ENCODING 44213
SWIDTH 960 0
DWIDTH 16 0
BBX 16 16 0 -4
BITMAP
0000
0000
0000
0000
0420
0420
0220
0240
0240
0180
0100
0100
0200
0C00
0000
0000
ENDCHAR

STARTCHAR ACB6
ENCODING 44214
SWIDTH 960 0
DWIDTH 16 0
BBX 16 16 0 -4
BITMAP
0000
0000
0380
0100
0100
07C0
0920
0920
0920
0920
07C0
0100
0100
0380
0000
0000
ENDCHAR

STARTCHAR ACB7
ENCODING 44215
SWIDTH 960 0
DWIDTH 16 0
BBX 16 16 0 -4
BITMAP
0000
0000
0000
0000
0E70
0420
0240
0240
0180
0180
0240
0240
0420
0E70
0000
0000
ENDCHAR

STARTCHAR ACB8
ENCODING 44216
SWIDTH 960 0
DWIDTH 16 0
BBX 16 16 0 -4
BITMAP
0000
0000
0000
0E70
0420
0420
0420
0420
0420
0420
0420
0420
0420
0FF0
0010
0000
ENDCHAR

STARTCHAR ACB9
ENCODING 44217
SWIDTH 960 0
DWIDTH 16 0
BBX 16 16 0 -4
BITMAP
0000
0000
0000
0E70
0420
0420
0420
0420
0420
03E0
0020
0020
0020
0070
0000
0000
ENDCHAR

STARTCHAR ACBA
ENCODING 44218
SWIDTH 960 0
DWIDTH 16 0
BBX 16 16 0 -4
BITMAP
0000
0000
0000
1DDC
0888
0888
0888
0888
0888
0888
0888
0888
0888
1FFC
0000
0000
ENDCHAR

STARTCHAR ACBB
ENCODING 44219
SWIDTH 960 0
DWIDTH 16 0
BBX 16 16 0 -4
BITMAP
0000
0000
0000
1DDC
0888
0888
0888
0888
0888
0888
0888
0888
0888
1FFC
0002
0000
ENDCHAR

STARTCHAR ACBC
ENCODING 44220
SWIDTH 960 0
DWIDTH 16 0
BBX 16 16 0 -4
BITMAP
0000
0000
0000
0780
0900
0100
0100
01E0
0110
0108
0108
0108
0110
03E0
0000
0000
ENDCHAR

STARTCHAR ACBD
ENCODING 44221
SWIDTH 960 0
DWIDTH 16 0
BBX 16 16 0 -4
BITMAP
0000
0000
0000
1C38
0810
0810
0810
0F10
0890
0890
0890
0890
0890
1F38
0000
0000
ENDCHAR

STARTCHAR ACBE
ENCODING 44222
SWIDTH 960 0
DWIDTH 16 0
BBX 16 16 0 -4
BITMAP
0000
0000
0000
0700
0200
0200
0200
03C0
0220
0220
0220
0220
0220
07C0
0000
0000
ENDCHAR

STARTCHAR ACBF
ENCODING 44223
SWIDTH 960 0
DWIDTH 16 0
BBX 16 16 0 -4
BITMAP
0000
0000
0000
0000
03C0
0C20
0010
0010
0390
0070
0810
0810
0C20
03C0
0000
0000
ENDCHAR

STARTCHAR ACC0
ENCODING 44224
SWIDTH 960 0
DWIDTH 16 0
BBX 16 16 0 -4
BITMAP
0000
0000
0000
0000
38E0
1110
1208
1208
1E08
1208
1208
1208
1110
38E0
0000
0000
ENDCHAR

STARTCHAR ACC1
ENCODING 44225
SWIDTH 960 0
DWIDTH 16 0
BBX 16 16 0 -4
BITMAP
0000
0000
0000
0000
03F0
0420
0420
0420
0420
03E0
0220
0420
0420
0870
0000
0000
ENDCHAR

STARTCHAR ACD1
ENCODING 44241
SWIDTH 960 0
DWIDTH 16 0
BBX 16 16 0 -4
BITMAP
0000
0000
0000
0000
0000
0000
0380
0440
0040
03C0
0440
0440
0440
03E0
0000
0000
ENDCHAR

STARTCHAR ACD2
ENCODING 44242
SWIDTH 960 0
DWIDTH 16 0
BBX 16 16 0 -4
BITMAP
0000
0000
0040
0180
0200
0200
0580
0640
0440
0440
0440
0440
0440
0380
0000
0000
ENDCHAR

STARTCHAR ACD3
ENCODING 44243
SWIDTH 960 0
DWIDTH 16 0
BBX 16 16 0 -4
BITMAP
0000
0000
0000
0000
0000
0000
07C0
0220
0220
03C0
0220
0220
0220
07C0
0000
0000
ENDCHAR

STARTCHAR ACD4
ENCODING 44244
SWIDTH 960 0
DWIDTH 16 0
BBX 16 16 0 -4
BITMAP
0000
0000
0000
0000
0000
0000
07C0
0240
0220
0200
0200
0200
0200
0700
0000
0000
ENDCHAR

STARTCHAR ACD5
ENCODING 44245
SWIDTH 960 0
DWIDTH 16 0
BBX 16 16 0 -4
BITMAP
0000
0000
0000
0000
0000
0000
07E0
0240
0240
0240
0240
0440
0440
07E0
0820
0000
ENDCHAR

STARTCHAR ACD6
ENCODING 44246
SWIDTH 960 0
DWIDTH 16 0
BBX 16 16 0 -4
BITMAP
0000
0000
0000
0000
0000
0000
0380
0440
0440
07C0
0400
0440
0440
0380
0000
0000
ENDCHAR

STARTCHAR ACD7
ENCODING 44247
SWIDTH 960 0
DWIDTH 16 0
BBX 16 16 0 -4
BITMAP
0000
0000
0000
0280
0000
0000
0380
0440
0440
07C0
0400
0440
0440
0380
0000
0000
ENDCHAR

STARTCHAR ACD8
ENCODING 44248
SWIDTH 960 0
DWIDTH 16 0
BBX 16 16 0 -4
BITMAP
0000
0000
0000
0000
0000
0000
3398
0920
0540
0380
0540
0540
0920
3BB8
0000
0000
ENDCHAR

STARTCHAR ACD9
ENCODING 44249
SWIDTH 960 0
DWIDTH 16 0
BBX 16 16 0 -4
BITMAP
0000
0000
0000
0000
0000
0000
0780
0440
0040
0180
0040
0440
0440
0780
0000
0000
ENDCHAR

STARTCHAR ACDA
ENCODING 44250
SWIDTH 960 0
DWIDTH 16 0
BBX 16 16 0 -4
BITMAP
0000
0000
0000
0000
0000
0000
0E70
0420
0460
04A0
0520
0620
0420
0E70
0000
0000
ENDCHAR

STARTCHAR ACDB
ENCODING 44251
SWIDTH 960 0
DWIDTH 16 0
BBX 16 16 0 -4
BITMAP
0000
0000
0000
0240
0180
0000
0E70
0420
0460
04A0
0520
0620
0420
0E70
0000
0000
ENDCHAR

STARTCHAR ACDC
ENCODING 44252
SWIDTH 960 0
DWIDTH 16 0
BBX 16 16 0 -4
BITMAP
0000
0000
0000
0000
0000
0000
0720
0250
0240
0380
0240
0240
0220
0770
0000
0000
ENDCHAR

STARTCHAR ACDD
ENCODING 44253
SWIDTH 960 0
DWIDTH 16 0
BBX 16 16 0 -4
BITMAP
0000
0000
0000
0000
0000
0000
07F0
0120
0120
0120
0120
0120
0920
0670
0000
0000
ENDCHAR

STARTCHAR ACDE
ENCODING 44254
SWIDTH 960 0
DWIDTH 16 0
BBX 16 16 0 -4
BITMAP
0000
0000
0000
0000
0000
0000
0C18
0410
0630
0550
0550
0490
0490
0E38
0000
0000
ENDCHAR

STARTCHAR ACDF
ENCODING 44255
SWIDTH 960 0
DWIDTH 16 0
BBX 16 16 0 -4
BITMAP
0000
0000
0000
0000
0000
0000
0E70
0420
0420
07E0
0420
0420
0420
0E70
0000
0000
ENDCHAR

STARTCHAR ACE0
ENCODING 44256
SWIDTH 960 0
DWIDTH 16 0
BBX 16 16 0 -4
BITMAP
0000
0000
0000
0000
0000
0000
0380
0440
0440
0440
0440
0440
0440
0380
0000
0000
ENDCHAR

STARTCHAR ACE1
ENCODING 44257
SWIDTH 960 0
DWIDTH 16 0
BBX 16 16 0 -4
BITMAP
0000
0000
0000
0000
0000
0000
07F0
0220
0220
0220
0220
0220
0220
0770
0000
0000
ENDCHAR

STARTCHAR ACE2
ENCODING 44258
SWIDTH 960 0
DWIDTH 16 0
BBX 16 16 0 -4
BITMAP
0000
0000
0000
0000
0000
0000
07C0
0220
0220
0220
0220
03C0
0200
0200
0700
0000
ENDCHAR

STARTCHAR ACE3
ENCODING 44259
SWIDTH 960 0
DWIDTH 16 0
BBX 16 16 0 -4
BITMAP
0000
0000
0000
0000
0000
0000
01C0
0220
0200
0200
0200
0220
0220
01C0
0000
0000
ENDCHAR

STARTCHAR ACE4
ENCODING 44260
SWIDTH 960 0
DWIDTH 16 0
BBX 16 16 0 -4
BITMAP
0000
0000
0000
0000
0000
0000
0FE0
0920
0100
0100
0100
0100
0100
0380
0000
0000
ENDCHAR

STARTCHAR ACE5
ENCODING 44261
SWIDTH 960 0
DWIDTH 16 0
BBX 16 16 0 -4
BITMAP
0000
0000
0000
0000
0000
0000
0770
0220
0220
0140
0140
0080
0080
0500
0600
0000
ENDCHAR

STARTCHAR ACE6
ENCODING 44262
SWIDTH 960 0
DWIDTH 16 0
BBX 16 16 0 -4
BITMAP
0000
0000
0080
0180
0080
0080
02A0
05D0
0490
0490
05D0
02A0
0080
0080
01C0
0000
ENDCHAR

STARTCHAR ACE7
ENCODING 44263
SWIDTH 960 0
DWIDTH 16 0
BBX 16 16 0 -4
BITMAP
0000
0000
0000
0000
0000
0000
0770
0220
0140
0080
0080
0140
0220
0770
0000
0000
ENDCHAR

STARTCHAR ACE8
ENCODING 44264
SWIDTH 960 0
DWIDTH 16 0
BBX 16 16 0 -4
BITMAP
0000
0000
0000
0000
0000
0000
0EE0
0440
0440
0440
0440
0440
0440
0FE0
0020
0000
ENDCHAR

STARTCHAR ACE9
ENCODING 44265
SWIDTH 960 0
DWIDTH 16 0
BBX 16 16 0 -4
BITMAP
0000
0000
0000
0000
0000
0000
0EE0
0440
0440
0440
03C0
0040
0040
00E0
0000
0000
ENDCHAR

STARTCHAR ACEA
ENCODING 44266
SWIDTH 960 0
DWIDTH 16 0
BBX 16 16 0 -4
BITMAP
0000
0000
0000
0000
0000
0000
1BB0
0920
0920
0920
0920
0920
0920
1FF0
0000
0000
ENDCHAR

STARTCHAR ACEB
ENCODING 44267
SWIDTH 960 0
DWIDTH 16 0
BBX 16 16 0 -4
BITMAP
0000
0000
0000
0000
0000
0000
1BB0
0920
0920
0920
0920
0920
0920
1FF0
0008
0000
ENDCHAR

STARTCHAR ACEC
ENCODING 44268
SWIDTH 960 0
DWIDTH 16 0
BBX 16 16 0 -4
BITMAP
0000
0000
0000
0000
0000
0000
0F80
0900
0900
0100
01E0
0110
0110
03E0
0000
0000
ENDCHAR

STARTCHAR ACED
ENCODING 44269
SWIDTH 960 0
DWIDTH 16 0
BBX 16 16 0 -4
BITMAP
0000
0000
0000
0000
0000
0000
1C38
0810
0810
0F10
0890
0890
0890
1F38
0000
0000
ENDCHAR

STARTCHAR ACEE
ENCODING 44270
SWIDTH 960 0
DWIDTH 16 0
BBX 16 16 0 -4
BITMAP
0000
0000
0000
0000
0000
0000
0380
0100
0100
01E0
0110
0110
0110
03E0
0000
0000
ENDCHAR

STARTCHAR ACEF
ENCODING 44271
SWIDTH 960 0
DWIDTH 16 0
BBX 16 16 0 -4
BITMAP
0000
0000
0000
0000
0000
0000
01C0
0220
0020
01A0
0260
0020
0220
01C0
0000
0000
ENDCHAR

STARTCHAR ACF0
ENCODING 44272
SWIDTH 960 0
DWIDTH 16 0
BBX 16 16 0 -4
BITMAP
0000
0000
0000
0000
0000
0000
0E70
0488
0488
0788
0488
0488
0488
0E70
0000
0000
ENDCHAR

STARTCHAR ACF1
ENCODING 44273
SWIDTH 960 0
DWIDTH 16 0
BBX 16 16 0 -4
BITMAP
0000
0000
0000
0000
0000
0000
03E0
0440
0440
0440
03C0
0240
0440
08E0
0000
0000
ENDCHAR

STARTCHAR B0A1
ENCODING 45217
SWIDTH 960 0
DWIDTH 16 0
BBX 16 16 0 -4
BITMAP
0030
0218
FF10
4210
0210
0210
0414
041E
0410
0810
0810
1010
2010
C010
0010
0010
ENDCHAR

STARTCHAR B0A2
ENCODING 45218
SWIDTH 960 0
DWIDTH 16 0
BBX 16 16 0 -4
BITMAP
0030
0218
FF10
4210
0414
041E
0810
1010
2010
C010
1FF8
0810
0010
0010
0010
0010
ENDCHAR

STARTCHAR B0A3
ENCODING 45219
SWIDTH 960 0
DWIDTH 16 0
BBX 16 16 0 -4
BITMAP
0030
0218
FF10
4210
0414
041E
0810
1010
2010
C010
1800
0800
0800
0810
07F8
0000
ENDCHAR

STARTCHAR B0A4
ENCODING 45220
SWIDTH 960 0
DWIDTH 16 0
BBX 16 16 0 -4
BITMAP
0030
0218
FF10
4210
0214
041E
0810
3010
C010
1FF8
0800
0800
0800
0810
07F8
0000
ENDCHAR

STARTCHAR B0A5
ENCODING 45221
SWIDTH 960 0
DWIDTH 16 0
BBX 16 16 0 -4
BITMAP
0030
0218
FF10
4210
0214
041E
0810
3010
C010
1FF8
0010
1FF0
0800
0810
07F8
0000
ENDCHAR

STARTCHAR B0A6
ENCODING 45222
SWIDTH 960 0
DWIDTH 16 0
BBX 16 16 0 -4
BITMAP
0030
0218
FF10
4210
0214
041E
1810
E010
0210
7FF8
0210
7E10
2010
2010
1F10
0000
ENDCHAR

STARTCHAR B0A7
ENCODING 45223
SWIDTH 960 0
DWIDTH 16 0
BBX 16 16 0 -4
BITMAP
0030
0218
FF10
4210
0214
041E
1810
E010
0290
7EF8
0290
7E90
2090
2090
1FF8
0080
ENDCHAR

STARTCHAR B0A8
ENCODING 45224
SWIDTH 960 0
DWIDTH 16 0
BBX 16 16 0 -4
BITMAP
0030
0218
FF10
4210
0210
0414
041E
0810
3010
C010
1010
1FF8
1010
1010
1FF8
1000
ENDCHAR

STARTCHAR B0A9
ENCODING 45225
SWIDTH 960 0
DWIDTH 16 0
BBX 16 16 0 -4
BITMAP
0030
0218
FF10
4210
0210
0414
081E
3010
C010
3030
1010
1FF0
1010
1010
1FF0
1010
ENDCHAR

STARTCHAR B0AA
ENCODING 45226
SWIDTH 960 0
DWIDTH 16 0
BBX 16 16 0 -4
BITMAP
0030
0218
FF10
4210
0210
0414
081E
3010
C010
6C50
2460
3C40
2440
24A0
3D10
2608
ENDCHAR

STARTCHAR B0AB
ENCODING 45227
SWIDTH 960 0
DWIDTH 16 0
BBX 16 16 0 -4
BITMAP
0030
0218
FF10
4210
0210
0414
041E
0810
3010
C110
0180
0100
0280
0440
0830
3018
ENDCHAR

STARTCHAR B0AC
ENCODING 45228
SWIDTH 960 0
DWIDTH 16 0
BBX 16 16 0 -4
BITMAP
0030
0218
FF10
4210
0214
041E
0410
0810
3010
C010
0440
0660
0440
0AA0
1110
2208
ENDCHAR

STARTCHAR B0AD
ENCODING 45229
SWIDTH 960 0
DWIDTH 16 0
BBX 16 16 0 -4
BITMAP
0030
0218
FF10
4210
0214
041E
0810
3010
C010
0100
0FE0
1010
1010
1010
0FE0
0000
ENDCHAR

STARTCHAR B0AE
ENCODING 45230
SWIDTH 960 0
DWIDTH 16 0
BBX 16 16 0 -4
BITMAP
0030
0218
FF10
4210
0214
041E
0810
3010
C010
0010
3FF8
1030
00C0
0380
0C60
3018
ENDCHAR

STARTCHAR B0AF
ENCODING 45231
SWIDTH 960 0
DWIDTH 16 0
BBX 16 16 0 -4
BITMAP
0030
0218
FF10
4210
0214
041E
0810
3010
C7D0
0010
0000
3FF8
1030
00C0
0760
3818
ENDCHAR

STARTCHAR B0B0
ENCODING 45232
SWIDTH 960 0
DWIDTH 16 0
BBX 16 16 0 -4
BITMAP
0030
0218
FF10
4210
0214
041E
0810
3010
C010
1FF0
0800
0FF0
0800
0810
07F8
0000
ENDCHAR

STARTCHAR B0B1
ENCODING 45233
SWIDTH 960 0
DWIDTH 16 0
BBX 16 16 0 -4
BITMAP
0030
0218
FF10
4210
0214
041E
0810
3010
C010
3FF8
0820
0820
0440
0440
3FF8
0000
ENDCHAR

STARTCHAR B0B2
ENCODING 45234
SWIDTH 960 0
DWIDTH 16 0
BBX 16 16 0 -4
BITMAP
0030
0218
FF10
4210
0414
081E
3010
C7D0
0010
3FF8
0000
0FE0
1010
1010
0FE0
0000
ENDCHAR

STARTCHAR B0B3
ENCODING 45235
SWIDTH 960 0
DWIDTH 16 0
BBX 16 16 0 -4
BITMAP
0018
00CC
0468
FE48
4448
0448
0448
0878
0848
1048
1048
2048
4048
8048
0048
0008
ENDCHAR

STARTCHAR B0B4
ENCODING 45236
SWIDTH 960 0
DWIDTH 16 0
BBX 16 16 0 -4
BITMAP
0018
04CC
FE68
4448
0448
0878
0848
1048
2048
C048
0008
1FFC
0808
0008
0008
0008
ENDCHAR

STARTCHAR B0B5
ENCODING 45237
SWIDTH 960 0
DWIDTH 16 0
BBX 16 16 0 -4
BITMAP
0018
04CC
FE68
4448
0448
0848
0878
1048
2048
C048
1848
0800
0800
0808
07FC
0000
ENDCHAR

STARTCHAR B0B6
ENCODING 45238
SWIDTH 960 0
DWIDTH 16 0
BBX 16 16 0 -4
BITMAP
0018
04CC
FE68
4448
0448
0878
0848
3048
C048
0FFC
0008
0FF8
0400
0408
03FC
0000
ENDCHAR

STARTCHAR B0B7
ENCODING 45239
SWIDTH 960 0
DWIDTH 16 0
BBX 16 16 0 -4
BITMAP
0018
04CC
FE68
4448
0448
0878
0848
1048
2048
C808
0FFC
0808
0808
0808
0FFC
0800
ENDCHAR

STARTCHAR B0B8
ENCODING 45240
SWIDTH 960 0
DWIDTH 16 0
BBX 16 16 0 -4
BITMAP
0018
04CC
FE68
4448
0448
0878
0848
3048
C048
1818
0808
0FF8
0808
0808
0FF8
0808
ENDCHAR

STARTCHAR B0B9
ENCODING 45241
SWIDTH 960 0
DWIDTH 16 0
BBX 16 16 0 -4
BITMAP
0018
04CC
FE68
4448
0448
0848
0878
1048
2048
C148
01C8
0100
0280
0440
0820
3018
ENDCHAR

STARTCHAR B0BA
ENCODING 45242
SWIDTH 960 0
DWIDTH 16 0
BBX 16 16 0 -4
BITMAP
0018
04CC
FE68
4448
0448
0878
0848
1048
2048
C048
0420
0630
0420
0A50
1188
2104
ENDCHAR

STARTCHAR B0BB
ENCODING 45243
SWIDTH 960 0
DWIDTH 16 0
BBX 16 16 0 -4
BITMAP
0018
04CC
FE68
4448
0448
0878
0848
1048
2048
C008
0080
07F0
0808
0808
0808
07F0
ENDCHAR

STARTCHAR B0BC
ENCODING 45244
SWIDTH 960 0
DWIDTH 16 0
BBX 16 16 0 -4
BITMAP
0030
0218
FF10
4210
0214
021E
0410
0410
0414
081E
0810
1010
2010
C010
0010
0010
ENDCHAR

STARTCHAR B0BD
ENCODING 45245
SWIDTH 960 0
DWIDTH 16 0
BBX 16 16 0 -4
BITMAP
0030
0218
FF10
4214
021E
0410
0410
0814
301E
C010
0010
1FF8
0810
0010
0010
0010
ENDCHAR

STARTCHAR B0BE
ENCODING 45246
SWIDTH 960 0
DWIDTH 16 0
BBX 16 16 0 -4
BITMAP
0030
0218
FF10
4214
021E
0410
0814
301E
C010
0010
1800
0800
0800
0808
07FC
0000
ENDCHAR

STARTCHAR B0BF
ENCODING 45247
SWIDTH 960 0
DWIDTH 16 0
BBX 16 16 0 -4
BITMAP
0030
0218
FF10
4214
021E
0410
0814
301E
C010
1FF8
0010
1FF0
0800
0810
07F8
0000
ENDCHAR

STARTCHAR B0C0
ENCODING 45248
SWIDTH 960 0
DWIDTH 16 0
BBX 16 16 0 -4
BITMAP
0030
0218
FF10
4214
021E
0410
0414
081E
3010
C010
0110
0180
0100
0280
0460
1830
ENDCHAR

STARTCHAR B0C1
ENCODING 45249
SWIDTH 960 0
DWIDTH 16 0
BBX 16 16 0 -4
BITMAP
0030
0218
FF10
4214
021E
0410
0414
081E
3010
C110
0FE0
1010
1010
1010
0FE0
0000
ENDCHAR

STARTCHAR B0C2
ENCODING 45250
SWIDTH 960 0
DWIDTH 16 0
BBX 16 16 0 -4
BITMAP
0018
00CC
0468
FE48
4448
0478
0448
0848
0848
1078
1048
2048
4048
8048
0048
0008
ENDCHAR

STARTCHAR B0C3
ENCODING 45251
SWIDTH 960 0
DWIDTH 16 0
BBX 16 16 0 -4
BITMAP
0018
04CC
FE68
4448
0478
0848
0848
1078
2048
C048
0C48
0400
0400
0408
03FC
0000
ENDCHAR

STARTCHAR B0C4
ENCODING 45252
SWIDTH 960 0
DWIDTH 16 0
BBX 16 16 0 -4
BITMAP
0018
04CC
FE68
4448
0478
0848
0878
3048
C048
0FFC
0008
0FF8
0400
0408
03FC
0000
ENDCHAR

STARTCHAR B0C5
ENCODING 45253
SWIDTH 960 0
DWIDTH 16 0
BBX 16 16 0 -4
BITMAP
0018
020C
FF08
4208
0208
0208
0208
05F8
0488
0808
0808
1008
2008
C008
0008
0008
ENDCHAR

STARTCHAR B0C6
ENCODING 45254
SWIDTH 960 0
DWIDTH 16 0
BBX 16 16 0 -4
BITMAP
0018
020C
FF08
4208
0208
0408
05F8
0888
1008
2008
C008
1FFC
0808
0008
0008
0008
ENDCHAR

STARTCHAR B0C7
ENCODING 45255
SWIDTH 960 0
DWIDTH 16 0
BBX 16 16 0 -4
BITMAP
0018
020C
FF08
4208
0208
05F8
0488
0808
3008
C008
1800
0800
0800
0808
07FC
0000
ENDCHAR

STARTCHAR B0C8
ENCODING 45256
SWIDTH 960 0
DWIDTH 16 0
BBX 16 16 0 -4
BITMAP
0018
020C
FF08
4208
0208
04F8
0448
0808
3008
C008
0FFC
0400
0400
0408
03FC
0000
ENDCHAR

STARTCHAR B0C9
ENCODING 45257
SWIDTH 960 0
DWIDTH 16 0
BBX 16 16 0 -4
BITMAP
0018
020C
FF08
4208
0208
05F8
0888
3008
C008
0FFC
0008
0FF8
0400
0408
03FC
0000
ENDCHAR

STARTCHAR B0CA
ENCODING 45258
SWIDTH 960 0
DWIDTH 16 0
BBX 16 16 0 -4
BITMAP
0018
020C
FF08
4208
0208
05F8
1888
E008
0148
3F7C
0148
3F48
1048
1048
0FFC
0040
ENDCHAR

STARTCHAR B0CB
ENCODING 45259
SWIDTH 960 0
DWIDTH 16 0
BBX 16 16 0 -4
BITMAP
0018
020C
FF08
4208
0208
05F8
0888
3008
C008
0808
0FFC
0808
0808
0808
0FFC
0800
ENDCHAR

STARTCHAR B0CC
ENCODING 45260
SWIDTH 960 0
DWIDTH 16 0
BBX 16 16 0 -4
BITMAP
0018
020C
FF08
4208
0208
05F8
0888
3008
C008
1818
0808
0FF8
0808
0808
0FF8
0808
ENDCHAR

STARTCHAR B0CD
ENCODING 45261
SWIDTH 960 0
DWIDTH 16 0
BBX 16 16 0 -4
BITMAP
0018
020C
FF08
4208
0208
0408
04F8
0848
3008
C008
0108
0180
0100
0280
0460
1818
ENDCHAR

STARTCHAR B0CE
ENCODING 45262
SWIDTH 960 0
DWIDTH 16 0
BBX 16 16 0 -4
BITMAP
0018
020C
FF08
4208
0208
0408
04F8
0848
1008
2428
C630
0420
0420
0A50
1188
610C
ENDCHAR

STARTCHAR B0CF
ENCODING 45263
SWIDTH 960 0
DWIDTH 16 0
BBX 16 16 0 -4
BITMAP
0018
020C
FF08
4208
0408
04F8
0848
1008
2008
C080
07F0
0808
0808
0808
07F0
0000
ENDCHAR

STARTCHAR B0D0
ENCODING 45264
SWIDTH 960 0
DWIDTH 16 0
BBX 16 16 0 -4
BITMAP
0018
020C
FF08
4208
0208
04F8
0848
1008
6008
8008
1FF8
0840
0080
0140
0630
180C
ENDCHAR

STARTCHAR B0D1
ENCODING 45265
SWIDTH 960 0
DWIDTH 16 0
BBX 16 16 0 -4
BITMAP
0018
020C
FF08
4208
04F8
0448
0808
1008
2008
CFF8
0400
07F8
0400
0408
03FC
0000
ENDCHAR

STARTCHAR B0D2
ENCODING 45266
SWIDTH 960 0
DWIDTH 16 0
BBX 16 16 0 -4
BITMAP
0018
020C
FF08
4208
0208
04F8
0848
3008
C008
0008
1FFC
0410
0210
0220
1FFC
0000
ENDCHAR

STARTCHAR B0D3
ENCODING 45267
SWIDTH 960 0
DWIDTH 16 0
BBX 16 16 0 -4
BITMAP
0018
020C
FF08
4208
04F8
0848
3008
C3E8
0000
1FFC
0000
07F0
0808
0808
07F0
0000
ENDCHAR

STARTCHAR B0D4
ENCODING 45268
SWIDTH 960 0
DWIDTH 16 0
BBX 16 16 0 -4
BITMAP
0018
00CC
0468
FE48
4448
0448
0448
0BC8
0948
0848
1048
1048
2048
C048
0048
0008
ENDCHAR

STARTCHAR B0D5
ENCODING 45269
SWIDTH 960 0
DWIDTH 16 0
BBX 16 16 0 -4
BITMAP
0008
04CC
FE68
4448
0448
0BC8
0948
1048
2048
C048
0C08
0400
0400
0408
03FC
0000
ENDCHAR

STARTCHAR B0D6
ENCODING 45270
SWIDTH 960 0
DWIDTH 16 0
BBX 16 16 0 -4
BITMAP
0018
04CC
FE68
4448
0448
0BC8
0948
1048
2048
CFFC
0008
0008
0FF8
0400
0408
03FC
ENDCHAR

STARTCHAR B0D7
ENCODING 45271
SWIDTH 960 0
DWIDTH 16 0
BBX 16 16 0 -4
BITMAP
0018
04CC
FE68
4448
0448
0BC8
0948
1048
2048
C008
0FFC
0408
0408
0408
07FC
0400
ENDCHAR

STARTCHAR B0D8
ENCODING 45272
SWIDTH 960 0
DWIDTH 16 0
BBX 16 16 0 -4
BITMAP
0018
04CC
FE68
4448
0448
0BC8
0948
1048
2048
D818
0808
0FF8
0808
0808
0FF8
0808
ENDCHAR

STARTCHAR B0D9
ENCODING 45273
SWIDTH 960 0
DWIDTH 16 0
BBX 16 16 0 -4
BITMAP
0018
04CC
FE68
4448
0448
0BC8
0948
1048
2048
C088
00C8
0080
0140
0220
0410
180C
ENDCHAR

STARTCHAR B0DA
ENCODING 45274
SWIDTH 960 0
DWIDTH 16 0
BBX 16 16 0 -4
BITMAP
0018
04CC
FE68
4448
0448
0BC8
0948
1048
2048
C428
0630
0420
0420
0A50
1188
610C
ENDCHAR

STARTCHAR B0DB
ENCODING 45275
SWIDTH 960 0
DWIDTH 16 0
BBX 16 16 0 -4
BITMAP
0018
04CC
FE68
4448
0448
0BC8
0948
1048
2048
C008
0080
07F0
0808
0808
0808
07F0
ENDCHAR

STARTCHAR B0DC
ENCODING 45276
SWIDTH 960 0
DWIDTH 16 0
BBX 16 16 0 -4
BITMAP
0018
020C
FF08
4208
0208
02F8
0448
0408
0808
08F8
1048
2008
4008
8008
0008
0008
ENDCHAR

STARTCHAR B0DD
ENCODING 45277
SWIDTH 960 0
DWIDTH 16 0
BBX 16 16 0 -4
BITMAP
0018
020C
FF08
4208
02F8
0448
0408
08F8
1048
2008
C008
1FFC
0808
0008
0008
0008
ENDCHAR

STARTCHAR B0DE
ENCODING 45278
SWIDTH 960 0
DWIDTH 16 0
BBX 16 16 0 -4
BITMAP
0018
020C
FF08
4208
02F8
0448
0408
08F8
1048
2008
C008
1FFC
0948
0108
0108
0108
ENDCHAR

STARTCHAR B0DF
ENCODING 45279
SWIDTH 960 0
DWIDTH 16 0
BBX 16 16 0 -4
BITMAP
0018
020C
FF08
4208
02F8
0448
0408
08F8
3048
C008
1808
0800
0800
0808
07FC
0000
ENDCHAR

STARTCHAR B0E0
ENCODING 45280
SWIDTH 960 0
DWIDTH 16 0
BBX 16 16 0 -4
BITMAP
0018
020C
FF08
4208
02F8
0448
0408
08F8
3048
C008
0FFC
0400
0400
0408
03FC
0000
ENDCHAR

STARTCHAR B0E1
ENCODING 45281
SWIDTH 960 0
DWIDTH 16 0
BBX 16 16 0 -4
BITMAP
0018
020C
FF08
42F8
0448
0408
08F8
1048
2008
CFFC
0008
0FF8
0400
0408
03FC
0000
ENDCHAR

STARTCHAR B0E2
ENCODING 45282
SWIDTH 960 0
DWIDTH 16 0
BBX 16 16 0 -4
BITMAP
0018
020C
FF08
4208
02F8
0448
0808
10F8
2048
C808
0FFC
0808
0808
0808
0FFC
0800
ENDCHAR

STARTCHAR B0E3
ENCODING 45283
SWIDTH 960 0
DWIDTH 16 0
BBX 16 16 0 -4
BITMAP
0018
020C
FF08
4208
02F8
0448
0408
08F8
3048
D818
0808
0FF8
0808
0808
0FF8
0808
ENDCHAR

STARTCHAR B0E4
ENCODING 45284
SWIDTH 960 0
DWIDTH 16 0
BBX 16 16 0 -4
BITMAP
0018
020C
FF08
4208
02F8
0448
0408
08F8
3048
C008
0108
0188
0100
0280
0460
1818
ENDCHAR

STARTCHAR B0E5
ENCODING 45285
SWIDTH 960 0
DWIDTH 16 0
BBX 16 16 0 -4
BITMAP
0018
020C
FF08
4208
02F8
0448
0408
08F8
1048
2428
C630
0420
0420
0A50
1188
610C
ENDCHAR

STARTCHAR B0E6
ENCODING 45286
SWIDTH 960 0
DWIDTH 16 0
BBX 16 16 0 -4
BITMAP
0018
020C
FF08
42F8
0448
0408
08F8
1048
2008
C088
07F0
0808
0808
0808
07F0
0000
ENDCHAR

STARTCHAR B0E7
ENCODING 45287
SWIDTH 960 0
DWIDTH 16 0
BBX 16 16 0 -4
BITMAP
0018
020C
FF08
4208
04F8
0448
0808
10F8
2048
C008
0FF8
0400
07F8
0400
03FC
0000
ENDCHAR

STARTCHAR B0E8
ENCODING 45288
SWIDTH 960 0
DWIDTH 16 0
BBX 16 16 0 -4
BITMAP
0018
00CC
0468
FE48
4448
0448
07C8
0948
0848
13C8
1148
2048
C048
0048
0048
0008
ENDCHAR

STARTCHAR B0E9
ENCODING 45289
SWIDTH 960 0
DWIDTH 16 0
BBX 16 16 0 -4
BITMAP
0018
04CC
FE68
4448
0BC8
0948
1048
23C8
C148
0048
1808
0800
0800
0808
07FC
0000
ENDCHAR

STARTCHAR B0EA
ENCODING 45290
SWIDTH 960 0
DWIDTH 16 0
BBX 16 16 0 -4
BITMAP
0018
04CC
FE68
4448
07C8
0948
0848
13C8
2148
C048
0FFC
0008
0FF8
0400
0408
03FC
ENDCHAR

STARTCHAR B0EB
ENCODING 45291
SWIDTH 960 0
DWIDTH 16 0
BBX 16 16 0 -4
BITMAP
0018
04CC
FE68
4448
07C8
0948
0848
13C8
2148
C048
1808
0FF8
0808
0808
0FF8
0808
ENDCHAR

STARTCHAR B0EC
ENCODING 45292
SWIDTH 960 0
DWIDTH 16 0
BBX 16 16 0 -4
BITMAP
0018
04CC
FE68
4448
07C8
0A48
0848
17C8
2248
C048
0088
00C0
0180
0240
0430
1818
ENDCHAR

STARTCHAR B0ED
ENCODING 45293
SWIDTH 960 0
DWIDTH 16 0
BBX 16 16 0 -4
BITMAP
0000
0000
0010
3FF8
1010
0010
0010
0010
0610
0310
0210
0200
0204
FFFE
4000
0000
ENDCHAR

STARTCHAR B0EE
ENCODING 45294
SWIDTH 960 0
DWIDTH 16 0
BBX 16 16 0 -4
BITMAP
0010
3FF8
1010
0310
0110
0110
0104
FFFE
4000
0000
0010
3FF8
1010
0010
0010
0010
ENDCHAR

STARTCHAR B0EF
ENCODING 45295
SWIDTH 960 0
DWIDTH 16 0
BBX 16 16 0 -4
BITMAP
0010
3FF8
1010
0010
0310
0110
0104
FFFE
4000
0000
1800
0800
0800
0808
07FC
0000
ENDCHAR

STARTCHAR B0F0
ENCODING 45296
SWIDTH 960 0
DWIDTH 16 0
BBX 16 16 0 -4
BITMAP
0010
3FF8
1010
0310
0110
0104
FFFE
4000
0000
0010
1FF8
0800
0800
0808
07FC
0000
ENDCHAR

STARTCHAR B0F1
ENCODING 45297
SWIDTH 960 0
DWIDTH 16 0
BBX 16 16 0 -4
BITMAP
0010
3FF8
1010
0310
0110
0104
FFFE
4000
0010
1FF8
0010
1FF0
0800
0808
07FC
0000
ENDCHAR

STARTCHAR B0F2
ENCODING 45298
SWIDTH 960 0
DWIDTH 16 0
BBX 16 16 0 -4
BITMAP
0010
3FF8
1010
0310
0110
0104
FFFE
4000
0048
1F7C
0148
1F48
0848
0848
07FC
0040
ENDCHAR

STARTCHAR B0F3
ENCODING 45299
SWIDTH 960 0
DWIDTH 16 0
BBX 16 16 0 -4
BITMAP
0010
3FF8
1010
0310
0110
0104
FFFE
4000
0000
1F30
0118
1F10
0828
0844
0782
0000
ENDCHAR

STARTCHAR B0F4
ENCODING 45300
SWIDTH 960 0
DWIDTH 16 0
BBX 16 16 0 -4
BITMAP
0010
3FF8
1010
0310
0110
0104
FFFE
4020
0020
1EF8
0200
1E70
0888
0888
0770
0000
ENDCHAR

STARTCHAR B0F5
ENCODING 45301
SWIDTH 960 0
DWIDTH 16 0
BBX 16 16 0 -4
BITMAP
0010
3FF8
1010
0310
0110
0104
FFFE
4000
0000
0010
1FF8
0810
0810
0810
0FF8
0800
ENDCHAR

STARTCHAR B0F6
ENCODING 45302
SWIDTH 960 0
DWIDTH 16 0
BBX 16 16 0 -4
BITMAP
0010
3FF8
1010
0310
0110
0104
FFFE
4000
0000
1830
0810
0FF0
0810
0810
0FF0
0810
ENDCHAR

STARTCHAR B0F7
ENCODING 45303
SWIDTH 960 0
DWIDTH 16 0
BBX 16 16 0 -4
BITMAP
0010
3FF8
1010
0310
0110
0104
FFFE
4000
0000
0100
0180
0100
0100
0280
0C60
3018
ENDCHAR

STARTCHAR B0F8
ENCODING 45304
SWIDTH 960 0
DWIDTH 16 0
BBX 16 16 0 -4
BITMAP
0010
3FF8
1010
0310
0110
0104
FFFE
4000
0000
0100
0FE0
1010
1010
1010
0FE0
0000
ENDCHAR

STARTCHAR B0F9
ENCODING 45305
SWIDTH 960 0
DWIDTH 16 0
BBX 16 16 0 -4
BITMAP
0010
3FF8
1010
0310
0110
0104
FFFE
4000
0000
0010
1FF8
0830
0040
0180
0660
181C
ENDCHAR

STARTCHAR B0FA
ENCODING 45306
SWIDTH 960 0
DWIDTH 16 0
BBX 16 16 0 -4
BITMAP
0030
0118
FF90
4110
0110
0110
1A10
0A14
081E
09D0
FE10
4010
0010
0010
0010
0010
ENDCHAR

STARTCHAR B0FB
ENCODING 45307
SWIDTH 960 0
DWIDTH 16 0
BBX 16 16 0 -4
BITMAP
0030
0118
FF90
4110
1914
091E
0810
FFD0
4010
0010
0010
0FF8
0410
0010
0010
0010
ENDCHAR

STARTCHAR B0FC
ENCODING 45308
SWIDTH 960 0
DWIDTH 16 0
BBX 16 16 0 -4
BITMAP
0030
0118
FF90
4110
1914
091E
0810
FFD0
4010
0010
0C10
0400
0400
0408
03FC
0000
ENDCHAR

STARTCHAR B0FD
ENCODING 45309
SWIDTH 960 0
DWIDTH 16 0
BBX 16 16 0 -4
BITMAP
0030
0118
FF90
4110
0914
091E
FFD0
4010
0010
0FF8
0010
0FF0
0400
0408
03FC
0000
ENDCHAR

STARTCHAR B0FE
ENCODING 45310
SWIDTH 960 0
DWIDTH 16 0
BBX 16 16 0 -4
BITMAP
0030
0118
FF90
4110
0914
091E
FFD0
4010
0290
3EF8
0290
3E90
1090
1090
0FF8
0080
ENDCHAR

STARTCHAR B1A1
ENCODING 45473
SWIDTH 960 0
DWIDTH 16 0
BBX 16 16 0 -4
BITMAP
0030
0118
FF90
4110
0910
0814
081E
FFD0
4010
0010
0810
0FF8
0810
0810
0FF8
0800
ENDCHAR

STARTCHAR B1A2
ENCODING 45474
SWIDTH 960 0
DWIDTH 16 0
BBX 16 16 0 -4
BITMAP
0030
0118
FF90
4110
0910
0814
081E
FFD0
4010
1830
0810
0FF0
0810
0810
0FF0
0810
ENDCHAR

STARTCHAR B1A3
ENCODING 45475
SWIDTH 960 0
DWIDTH 16 0
BBX 16 16 0 -4
BITMAP
0030
0118
FF90
4110
0910
0814
081E
FFD0
4010
0090
00C0
0080
0180
0140
0630
180C
ENDCHAR

STARTCHAR B1A4
ENCODING 45476
SWIDTH 960 0
DWIDTH 16 0
BBX 16 16 0 -4
BITMAP
0030
0118
FF90
4110
0910
0814
081E
FF90
4010
0110
0FE0
1010
1010
1010
0FE0
0000
ENDCHAR

STARTCHAR B1A5
ENCODING 45477
SWIDTH 960 0
DWIDTH 16 0
BBX 16 16 0 -4
BITMAP
0018
00CC
0268
FF48
4248
0248
0248
3278
1248
13C8
FC48
4048
0048
0048
0048
0008
ENDCHAR

STARTCHAR B1A6
ENCODING 45478
SWIDTH 960 0
DWIDTH 16 0
BBX 16 16 0 -4
BITMAP
0018
02CC
FF68
4248
0248
1278
13C8
FC48
4048
0048
0C08
0400
0400
0408
03FC
0000
ENDCHAR

STARTCHAR B1A7
ENCODING 45479
SWIDTH 960 0
DWIDTH 16 0
BBX 16 16 0 -4
BITMAP
0018
02CC
FF68
4248
1248
1078
FF48
4048
0FFC
0008
0008
0FF8
0400
0408
03FC
0000
ENDCHAR

STARTCHAR B1A8
ENCODING 45480
SWIDTH 960 0
DWIDTH 16 0
BBX 16 16 0 -4
BITMAP
0018
02CC
FF68
4248
0248
1248
1278
FFC8
4048
1818
0808
0FF8
0808
0808
0FF8
0808
ENDCHAR

STARTCHAR B1A9
ENCODING 45481
SWIDTH 960 0
DWIDTH 16 0
BBX 16 16 0 -4
BITMAP
0018
02CC
FF68
4248
1248
1278
13C8
FC48
4048
0848
0C68
0840
0840
14A0
2318
420C
ENDCHAR

STARTCHAR B1AA
ENCODING 45482
SWIDTH 960 0
DWIDTH 16 0
BBX 16 16 0 -4
BITMAP
0018
02CC
FF68
4248
1248
1078
1048
FF48
4048
0080
07F0
0808
0808
0808
07F0
0000
ENDCHAR

STARTCHAR B1AB
ENCODING 45483
SWIDTH 960 0
DWIDTH 16 0
BBX 16 16 0 -4
BITMAP
0018
000C
0088
FFC8
4088
0088
0088
1888
0888
0808
08E8
FF08
4008
0008
0008
0008
ENDCHAR

STARTCHAR B1AC
ENCODING 45484
SWIDTH 960 0
DWIDTH 16 0
BBX 16 16 0 -4
BITMAP
0018
000C
0088
FFC8
4088
0888
0888
0808
FFE8
4008
0008
1FFC
0808
0008
0008
0008
ENDCHAR

STARTCHAR B1AD
ENCODING 45485
SWIDTH 960 0
DWIDTH 16 0
BBX 16 16 0 -4
BITMAP
0018
008C
FFC8
4088
0888
0888
0808
FFE8
4008
0008
1800
0800
0800
0804
07FE
0000
ENDCHAR

STARTCHAR B1AE
ENCODING 45486
SWIDTH 960 0
DWIDTH 16 0
BBX 16 16 0 -4
BITMAP
0018
008C
FFC8
4088
0888
0888
0808
FFE8
4008
1FFC
0008
1FF8
0800
0808
07FC
0000
ENDCHAR

STARTCHAR B1AF
ENCODING 45487
SWIDTH 960 0
DWIDTH 16 0
BBX 16 16 0 -4
BITMAP
0018
008C
FFC8
4088
0888
0888
0808
FFE8
4008
0008
0808
0FFC
0808
0808
0FFC
0800
ENDCHAR

STARTCHAR B1B0
ENCODING 45488
SWIDTH 960 0
DWIDTH 16 0
BBX 16 16 0 -4
BITMAP
0018
008C
FFC8
4088
0888
0888
0808
FFE8
4008
1818
0808
0FF8
0808
0808
0FF8
0808
ENDCHAR

STARTCHAR B1B1
ENCODING 45489
SWIDTH 960 0
DWIDTH 16 0
BBX 16 16 0 -4
BITMAP
0018
008C
FFC8
4088
0888
0888
0808
FFC8
4008
0088
00C0
0080
0180
0240
0430
180C
ENDCHAR

STARTCHAR B1B2
ENCODING 45490
SWIDTH 960 0
DWIDTH 16 0
BBX 16 16 0 -4
BITMAP
0018
008C
FFC8
4088
0888
0888
0808
FFE8
4008
0080
0FF0
1008
1008
1008
0FF0
0000
ENDCHAR

STARTCHAR B1B3
ENCODING 45491
SWIDTH 960 0
DWIDTH 16 0
BBX 16 16 0 -4
BITMAP
0000
0000
0010
7FF8
2010
0010
0010
1990
0CD0
0890
0890
0880
0884
FFFE
4000
0000
ENDCHAR

STARTCHAR B1B4
ENCODING 45492
SWIDTH 960 0
DWIDTH 16 0
BBX 16 16 0 -4
BITMAP
0010
3FF8
1010
0010
0490
0480
0484
FFFE
4000
0000
1800
0800
0800
0808
07FC
0000
ENDCHAR

STARTCHAR B1B5
ENCODING 45493
SWIDTH 960 0
DWIDTH 16 0
BBX 16 16 0 -4
BITMAP
0010
3FF8
1010
0490
0490
0484
FFFE
4000
0010
1FF8
0010
1FF0
0800
0810
07F8
0000
ENDCHAR

STARTCHAR B1B6
ENCODING 45494
SWIDTH 960 0
DWIDTH 16 0
BBX 16 16 0 -4
BITMAP
0010
3FF8
1010
0490
0490
0484
FFFE
4000
0000
1830
0810
0FF0
0810
0810
0FF0
0810
ENDCHAR

STARTCHAR B1B7
ENCODING 45495
SWIDTH 960 0
DWIDTH 16 0
BBX 16 16 0 -4
BITMAP
0010
3FF8
1010
0490
0490
0484
FFFE
4000
0100
0180
0100
0100
0280
0440
0820
3018
ENDCHAR

STARTCHAR B1B8
ENCODING 45496
SWIDTH 960 0
DWIDTH 16 0
BBX 16 16 0 -4
BITMAP
0020
3FF0
1020
0020
0020
0020
0024
FFFE
4100
0100
0100
0100
0100
0100
0100
0100
ENDCHAR

STARTCHAR B1B9
ENCODING 45497
SWIDTH 960 0
DWIDTH 16 0
BBX 16 16 0 -4
BITMAP
0010
3FF8
1010
0010
0010
0014
FFFE
4100
0100
0110
1FF8
0810
0010
0010
0010
0010
ENDCHAR

STARTCHAR B1BA
ENCODING 45498
SWIDTH 960 0
DWIDTH 16 0
BBX 16 16 0 -4
BITMAP
0010
3FF8
1010
0010
0010
0014
FFFE
4080
0080
0080
1880
0800
0800
0808
07FC
0000
ENDCHAR

STARTCHAR B1BB
ENCODING 45499
SWIDTH 960 0
DWIDTH 16 0
BBX 16 16 0 -4
BITMAP
0010
3FF8
1010
0010
0014
FFFE
4100
0100
0110
1FF8
0800
0800
0800
0808
07FC
0000
ENDCHAR

STARTCHAR B1BC
ENCODING 45500
SWIDTH 960 0
DWIDTH 16 0
BBX 16 16 0 -4
BITMAP
0010
3FF8
1010
0010
0014
FFFE
4100
0100
0110
1FF8
0010
1FF0
0800
0810
07F8
0000
ENDCHAR

STARTCHAR B1BD
ENCODING 45501
SWIDTH 960 0
DWIDTH 16 0
BBX 16 16 0 -4
BITMAP
0010
3FF8
1010
0010
0014
FFFE
4100
0100
0108
1FFC
0108
1F08
0808
0808
0788
0000
ENDCHAR

STARTCHAR B1BE
ENCODING 45502
SWIDTH 960 0
DWIDTH 16 0
BBX 16 16 0 -4
BITMAP
0010
3FF8
1010
0010
0014
FFFE
4100
0100
0148
1F7C
0148
1F48
0848
0848
07FC
0040
ENDCHAR

STARTCHAR B1BF
ENCODING 45503
SWIDTH 960 0
DWIDTH 16 0
BBX 16 16 0 -4
BITMAP
0010
3FF8
1010
0010
0014
FFFE
4100
0100
0120
1FF8
0100
1F70
0888
0888
0770
0000
ENDCHAR

STARTCHAR B1C0
ENCODING 45504
SWIDTH 960 0
DWIDTH 16 0
BBX 16 16 0 -4
BITMAP
0010
3FF8
1010
0010
0010
0014
FFFE
4100
0100
0110
1FF8
0810
0810
0810
0FF8
0800
ENDCHAR

STARTCHAR B1C1
ENCODING 45505
SWIDTH 960 0
DWIDTH 16 0
BBX 16 16 0 -4
BITMAP
0010
3FF8
1010
0010
0010
0014
FFFE
4100
0100
1930
0810
0FF0
0810
0810
0FF0
0810
ENDCHAR

STARTCHAR B1C2
ENCODING 45506
SWIDTH 960 0
DWIDTH 16 0
BBX 16 16 0 -4
BITMAP
0010
3FF8
1010
0010
0010
0014
FFFE
4100
0100
0100
0180
0100
0180
0240
0420
1818
ENDCHAR

STARTCHAR B1C3
ENCODING 45507
SWIDTH 960 0
DWIDTH 16 0
BBX 16 16 0 -4
BITMAP
0010
3FF8
1010
0010
0010
0014
FFFE
4100
0100
0100
0FE0
1010
1010
1010
0FE0
0000
ENDCHAR

STARTCHAR B1C4
ENCODING 45508
SWIDTH 960 0
DWIDTH 16 0
BBX 16 16 0 -4
BITMAP
0010
3FF8
1010
0010
0010
0014
FFFE
4100
0100
0110
1FF8
0830
0040
0180
0660
181C
ENDCHAR

STARTCHAR B1C5
ENCODING 45509
SWIDTH 960 0
DWIDTH 16 0
BBX 16 16 0 -4
BITMAP
0018
008C
7FC8
2088
0088
0088
0088
FFE8
4408
0408
04F8
0448
0408
0408
0408
0008
ENDCHAR

STARTCHAR B1C6
ENCODING 45510
SWIDTH 960 0
DWIDTH 16 0
BBX 16 16 0 -4
BITMAP
0098
7FCC
2088
0088
0088
FFE8
4408
04F8
0448
0408
0008
1FFC
0808
0008
0008
0008
ENDCHAR

STARTCHAR B1C7
ENCODING 45511
SWIDTH 960 0
DWIDTH 16 0
BBX 16 16 0 -4
BITMAP
0098
7FCC
2088
0088
0088
FFE8
4408
04F8
0448
0008
0C08
0400
0400
0408
03FC
0000
ENDCHAR

STARTCHAR B1C8
ENCODING 45512
SWIDTH 960 0
DWIDTH 16 0
BBX 16 16 0 -4
BITMAP
0098
7FCC
2088
0088
0088
FFE8
4808
08F8
0808
0FF8
0008
0FF8
0400
0408
03FC
0000
ENDCHAR

STARTCHAR B1C9
ENCODING 45513
SWIDTH 960 0
DWIDTH 16 0
BBX 16 16 0 -4
BITMAP
0098
7FCC
2088
0088
0088
FFE8
4408
0408
04F8
0008
0428
0630
0420
0A50
1188
6106
ENDCHAR

STARTCHAR B1CA
ENCODING 45514
SWIDTH 960 0
DWIDTH 16 0
BBX 16 16 0 -4
BITMAP
0098
7FCC
2088
0088
0088
FFE8
4408
04F8
0448
0008
0FF0
1008
1008
1008
0FF0
0000
ENDCHAR

STARTCHAR B1CB
ENCODING 45515
SWIDTH 960 0
DWIDTH 16 0
BBX 16 16 0 -4
BITMAP
0018
02CC
7F68
2248
0248
0248
0248
FFC8
4848
0848
0BC8
0948
0848
0848
0848
0008
ENDCHAR

STARTCHAR B1CC
ENCODING 45516
SWIDTH 960 0
DWIDTH 16 0
BBX 16 16 0 -4
BITMAP
0018
02CC
7F68
2248
0248
0248
FFC8
4848
0BC8
0848
0888
00C0
0080
0140
0230
0C0C
ENDCHAR

STARTCHAR B1CD
ENCODING 45517
SWIDTH 960 0
DWIDTH 16 0
BBX 16 16 0 -4
BITMAP
0018
008C
7FC8
2088
0088
0088
0088
FFE8
4408
0408
0408
0408
0408
0408
0408
0008
ENDCHAR

STARTCHAR B1CE
ENCODING 45518
SWIDTH 960 0
DWIDTH 16 0
BBX 16 16 0 -4
BITMAP
0018
008C
7FC8
2088
0088
0088
FFE8
4408
0408
0408
1FFC
0808
0008
0008
0008
0008
ENDCHAR

STARTCHAR B1CF
ENCODING 45519
SWIDTH 960 0
DWIDTH 16 0
BBX 16 16 0 -4
BITMAP
0018
008C
7FC8
2088
0088
0088
FFE8
4408
0408
0408
0000
1800
0800
0808
07FC
0000
ENDCHAR

STARTCHAR B1D0
ENCODING 45520
SWIDTH 960 0
DWIDTH 16 0
BBX 16 16 0 -4
BITMAP
0018
008C
7FC8
2088
0088
0088
FFE8
4408
0408
0FFC
0008
0FF8
0400
0408
03FC
0000
ENDCHAR

STARTCHAR B1D1
ENCODING 45521
SWIDTH 960 0
DWIDTH 16 0
BBX 16 16 0 -4
BITMAP
0018
008C
7FC8
2088
0088
0088
FFE8
4408
0408
0408
1FFC
0808
0808
0808
0FFC
0800
ENDCHAR

STARTCHAR B1D2
ENCODING 45522
SWIDTH 960 0
DWIDTH 16 0
BBX 16 16 0 -4
BITMAP
0098
7FCC
2088
0088
0088
FFE8
4408
0408
0408
1818
0808
0FF8
0808
0808
0FF8
0808
ENDCHAR

STARTCHAR B1D3
ENCODING 45523
SWIDTH 960 0
DWIDTH 16 0
BBX 16 16 0 -4
BITMAP
0018
008C
7FC8
2088
0088
0088
FFE8
4408
0408
0488
00C8
0080
0180
0140
0630
180C
ENDCHAR

STARTCHAR B1D4
ENCODING 45524
SWIDTH 960 0
DWIDTH 16 0
BBX 16 16 0 -4
BITMAP
0020
3FF0
1020
0020
0020
0020
0004
FFFE
4440
0440
0440
0440
0440
0440
0440
0440
ENDCHAR

STARTCHAR B1D5
ENCODING 45525
SWIDTH 960 0
DWIDTH 16 0
BBX 16 16 0 -4
BITMAP
0010
1FF8
0810
0010
0010
0010
0004
FFFE
4220
0220
1A20
0800
0800
0808
07FC
0000
ENDCHAR

STARTCHAR B1D6
ENCODING 45526
SWIDTH 960 0
DWIDTH 16 0
BBX 16 16 0 -4
BITMAP
0010
3FF8
1010
0010
0014
FFFE
4440
0440
0440
1FF8
0010
1FF0
0800
0810
07F8
0000
ENDCHAR

STARTCHAR B1D7
ENCODING 45527
SWIDTH 960 0
DWIDTH 16 0
BBX 16 16 0 -4
BITMAP
0000
0000
0020
3FF0
1020
0020
0020
0020
0020
0020
0020
0000
0004
FFFE
4000
0000
ENDCHAR

STARTCHAR B1D8
ENCODING 45528
SWIDTH 960 0
DWIDTH 16 0
BBX 16 16 0 -4
BITMAP
0010
3FF8
1010
0010
0010
0014
FFFE
4000
0000
0010
3FF8
1010
0010
0010
0010
0010
ENDCHAR

STARTCHAR B1D9
ENCODING 45529
SWIDTH 960 0
DWIDTH 16 0
BBX 16 16 0 -4
BITMAP
0010
3FF8
1010
0010
0010
0010
0014
FFFE
4000
0000
1800
0800
0800
0808
07FC
0000
ENDCHAR

STARTCHAR B1DA
ENCODING 45530
SWIDTH 960 0
DWIDTH 16 0
BBX 16 16 0 -4
BITMAP
0010
3FF8
1010
0010
0010
0014
FFFE
4000
0000
0010
1FF8
0800
0800
0808
07FC
0000
ENDCHAR

STARTCHAR B1DB
ENCODING 45531
SWIDTH 960 0
DWIDTH 16 0
BBX 16 16 0 -4
BITMAP
0010
3FF8
1010
0010
0010
0014
FFFE
4000
0010
1FF8
0010
1FF0
0800
0810
07F8
0000
ENDCHAR

STARTCHAR B1DC
ENCODING 45532
SWIDTH 960 0
DWIDTH 16 0
BBX 16 16 0 -4
BITMAP
0010
3FF8
1010
0010
0010
0014
FFFE
4000
0108
1FFC
0108
1F08
0808
0808
0788
0000
ENDCHAR

STARTCHAR B1DD
ENCODING 45533
SWIDTH 960 0
DWIDTH 16 0
BBX 16 16 0 -4
BITMAP
0010
3FF8
1010
0010
0010
0014
FFFE
4000
0000
0810
1FF8
0810
0810
0810
0FF8
0800
ENDCHAR

STARTCHAR B1DE
ENCODING 45534
SWIDTH 960 0
DWIDTH 16 0
BBX 16 16 0 -4
BITMAP
0010
3FF8
1010
0010
0010
0014
FFFE
4000
0000
1830
0810
0FF0
0810
0810
0FF0
0810
ENDCHAR

STARTCHAR B1DF
ENCODING 45535
SWIDTH 960 0
DWIDTH 16 0
BBX 16 16 0 -4
BITMAP
0010
3FF8
1010
0010
0010
0014
FFFE
4000
0000
0100
0180
0100
0180
0240
0430
1818
ENDCHAR

STARTCHAR B1E0
ENCODING 45536
SWIDTH 960 0
DWIDTH 16 0
BBX 16 16 0 -4
BITMAP
0010
3FF8
1010
0010
0010
0014
FFFE
4000
0000
0100
0FE0
1010
1010
1010
0FE0
0000
ENDCHAR

STARTCHAR B1E1
ENCODING 45537
SWIDTH 960 0
DWIDTH 16 0
BBX 16 16 0 -4
BITMAP
0018
000C
0108
7F88
2108
0108
0108
0108
0108
0008
FFE8
4008
0008
0008
0008
0008
ENDCHAR

STARTCHAR B1E2
ENCODING 45538
SWIDTH 960 0
DWIDTH 16 0
BBX 16 16 0 -4
BITMAP
0018
010C
FF88
4108
0108
0208
0208
0408
0408
0808
1008
2008
C008
0008
0008
0008
ENDCHAR

STARTCHAR B1E3
ENCODING 45539
SWIDTH 960 0
DWIDTH 16 0
BBX 16 16 0 -4
BITMAP
0018
010C
FF88
4108
0208
0208
0408
0808
3008
C008
0FFC
0408
0008
0008
0008
0008
ENDCHAR

STARTCHAR B1E4
ENCODING 45540
SWIDTH 960 0
DWIDTH 16 0
BBX 16 16 0 -4
BITMAP
0018
010C
FF88
4108
0208
0208
0408
0808
3008
C008
1808
0800
0800
0804
07FE
0000
ENDCHAR

STARTCHAR B1E5
ENCODING 45541
SWIDTH 960 0
DWIDTH 16 0
BBX 16 16 0 -4
BITMAP
0018
010C
FF88
4108
0208
0208
0408
0808
3008
C008
1FF8
0800
0800
0808
07FC
0000
ENDCHAR

STARTCHAR B1E6
ENCODING 45542
SWIDTH 960 0
DWIDTH 16 0
BBX 16 16 0 -4
BITMAP
0018
010C
FF88
4108
0208
0208
0408
0808
3008
DFFC
0008
1FF8
0800
0808
07FC
0000
ENDCHAR

STARTCHAR B1E7
ENCODING 45543
SWIDTH 960 0
DWIDTH 16 0
BBX 16 16 0 -4
BITMAP
0018
010C
FF88
4108
0208
0408
0808
3008
C048
1F7C
0148
1F48
0848
0848
07FC
0040
ENDCHAR

STARTCHAR B1E8
ENCODING 45544
SWIDTH 960 0
DWIDTH 16 0
BBX 16 16 0 -4
BITMAP
0018
010C
FF88
4108
0208
0208
0408
0808
3008
C808
0FFC
0808
0808
0808
0FFC
0800
ENDCHAR

STARTCHAR B1E9
ENCODING 45545
SWIDTH 960 0
DWIDTH 16 0
BBX 16 16 0 -4
BITMAP
0018
010C
FF88
4108
0208
0408
0808
3008
C008
1818
0808
0FF8
0808
0808
0FF8
0808
ENDCHAR

STARTCHAR B1EA
ENCODING 45546
SWIDTH 960 0
DWIDTH 16 0
BBX 16 16 0 -4
BITMAP
0018
010C
FF88
4108
0208
0208
0408
0808
3088
C0C8
0080
0180
0140
0220
0418
180C
ENDCHAR

STARTCHAR B1EB
ENCODING 45547
SWIDTH 960 0
DWIDTH 16 0
BBX 16 16 0 -4
BITMAP
0018
010C
FF88
4108
0208
0208
0408
0808
3008
C080
07F0
0808
0808
0808
07F0
0000
ENDCHAR

STARTCHAR B1EC
ENCODING 45548
SWIDTH 960 0
DWIDTH 16 0
BBX 16 16 0 -4
BITMAP
0018
010C
FF88
4108
0208
0408
0808
3008
C010
0FF8
0410
0020
0040
00A0
0318
0C06
ENDCHAR

STARTCHAR B1ED
ENCODING 45549
SWIDTH 960 0
DWIDTH 16 0
BBX 16 16 0 -4
BITMAP
0018
010C
FF88
4108
0208
0408
0808
3008
C008
0000
1FFC
0410
0210
0220
1FFC
0000
ENDCHAR

STARTCHAR B1EE
ENCODING 45550
SWIDTH 960 0
DWIDTH 16 0
BBX 16 16 0 -4
BITMAP
0030
0018
1110
FF90
1110
1110
1110
2214
221E
2210
4410
4410
8810
0010
0010
0010
ENDCHAR

STARTCHAR B1EF
ENCODING 45551
SWIDTH 960 0
DWIDTH 16 0
BBX 16 16 0 -4
BITMAP
0030
1118
FF90
1110
1114
221E
2210
4410
4410
8810
1FF8
0810
0010
0010
0010
0010
ENDCHAR

STARTCHAR B1F0
ENCODING 45552
SWIDTH 960 0
DWIDTH 16 0
BBX 16 16 0 -4
BITMAP
0030
1118
FF90
1110
1114
221E
2210
4410
8810
0010
3FF8
1290
0210
0210
0210
0210
ENDCHAR

STARTCHAR B1F1
ENCODING 45553
SWIDTH 960 0
DWIDTH 16 0
BBX 16 16 0 -4
BITMAP
0030
1118
FF90
1110
1114
221E
2210
4410
8810
0010
1810
0800
0800
0808
07FC
0000
ENDCHAR

STARTCHAR B1F2
ENCODING 45554
SWIDTH 960 0
DWIDTH 16 0
BBX 16 16 0 -4
BITMAP
0030
1118
FF90
1110
1114
221E
2210
4410
8810
1FF8
0010
1FF0
0800
0810
07F8
0000
ENDCHAR

STARTCHAR B1F3
ENCODING 45555
SWIDTH 960 0
DWIDTH 16 0
BBX 16 16 0 -4
BITMAP
0030
1118
FF90
1110
1114
221E
2210
4410
8810
0290
3EF8
0290
3E90
1090
0FF8
0080
ENDCHAR

STARTCHAR B1F4
ENCODING 45556
SWIDTH 960 0
DWIDTH 16 0
BBX 16 16 0 -4
BITMAP
0030
1118
FF90
1110
1114
221E
2210
4410
8810
0010
1FF8
0810
0810
0810
0FF8
0800
ENDCHAR

STARTCHAR B1F5
ENCODING 45557
SWIDTH 960 0
DWIDTH 16 0
BBX 16 16 0 -4
BITMAP
0030
1118
FF90
1110
1114
221E
2210
4410
8810
1830
0810
0FF0
0810
0810
0FF0
0810
ENDCHAR

STARTCHAR B1F6
ENCODING 45558
SWIDTH 960 0
DWIDTH 16 0
BBX 16 16 0 -4
BITMAP
0030
1118
FF90
1110
1114
221E
2210
4410
8810
0110
0190
0100
0300
0280
0460
1818
ENDCHAR

STARTCHAR B1F7
ENCODING 45559
SWIDTH 960 0
DWIDTH 16 0
BBX 16 16 0 -4
BITMAP
0030
1118
FF90
1110
1114
221E
2210
4410
8810
0420
0630
0420
0420
0A50
118C
6106
ENDCHAR

STARTCHAR B1F8
ENCODING 45560
SWIDTH 960 0
DWIDTH 16 0
BBX 16 16 0 -4
BITMAP
0030
1118
FF90
1110
1114
221E
2210
4410
8810
0100
0FE0
1010
1010
1010
0FE0
0000
ENDCHAR

STARTCHAR B1F9
ENCODING 45561
SWIDTH 960 0
DWIDTH 16 0
BBX 16 16 0 -4
BITMAP
0030
1118
FF90
1110
1114
221E
4410
8810
0000
1FF0
0800
0FF0
0800
0810
07F8
0000
ENDCHAR

STARTCHAR B1FA
ENCODING 45562
SWIDTH 960 0
DWIDTH 16 0
BBX 16 16 0 -4
BITMAP
0018
00CC
1268
FF48
1248
1248
1248
2478
2448
4448
4848
8848
1048
0048
0008
0008
ENDCHAR

STARTCHAR B1FB
ENCODING 45563
SWIDTH 960 0
DWIDTH 16 0
BBX 16 16 0 -4
BITMAP
0018
12CC
FF68
1248
2248
2478
4448
8848
1048
0008
1FFC
0808
0008
0008
0008
0008
ENDCHAR

STARTCHAR B1FC
ENCODING 45564
SWIDTH 960 0
DWIDTH 16 0
BBX 16 16 0 -4
BITMAP
0018
12CC
FF68
1248
2248
2478
4448
8848
1048
0008
0C00
0400
0400
0404
03FE
0000
ENDCHAR

STARTCHAR B1FD
ENCODING 45565
SWIDTH 960 0
DWIDTH 16 0
BBX 16 16 0 -4
BITMAP
0018
12CC
FF68
1248
2248
2478
4448
8848
1048
0FFC
0008
0FF8
0400
0408
03FC
0000
ENDCHAR

STARTCHAR B1FE
ENCODING 45566
SWIDTH 960 0
DWIDTH 16 0
BBX 16 16 0 -4
BITMAP
0018
12CC
FF68
1248
2248
2478
4448
8848
1048
1808
0FFC
0808
0808
0808
0FFC
0800
ENDCHAR

STARTCHAR B2A1
ENCODING 45729
SWIDTH 960 0
DWIDTH 16 0
BBX 16 16 0 -4
BITMAP
0018
12CC
FF68
1248
2248
2478
4448
8848
1008
1818
0808
0FF8
0808
0808
0FF8
0808
ENDCHAR

STARTCHAR B2A2
ENCODING 45730
SWIDTH 960 0
DWIDTH 16 0
BBX 16 16 0 -4
BITMAP
0018
12CC
FF68
1248
2248
2478
4448
8848
1048
0088
00C0
0080
0080
0140
0230
0C18
ENDCHAR

STARTCHAR B2A3
ENCODING 45731
SWIDTH 960 0
DWIDTH 16 0
BBX 16 16 0 -4
BITMAP
0018
12CC
FF68
1248
2278
2448
4448
8848
1008
0420
0630
0420
0420
0A50
1188
6106
ENDCHAR

STARTCHAR B2A4
ENCODING 45732
SWIDTH 960 0
DWIDTH 16 0
BBX 16 16 0 -4
BITMAP
0018
12CC
FF68
1248
2248
2478
4448
8848
1048
0088
07F0
0808
0808
0808
07F0
0000
ENDCHAR

STARTCHAR B2A5
ENCODING 45733
SWIDTH 960 0
DWIDTH 16 0
BBX 16 16 0 -4
BITMAP
0030
0018
1110
FF90
1114
111E
2110
2210
2214
421E
4410
8410
0810
1010
0010
0010
ENDCHAR

STARTCHAR B2A6
ENCODING 45734
SWIDTH 960 0
DWIDTH 16 0
BBX 16 16 0 -4
BITMAP
0030
1118
FF90
1114
211E
2210
4214
841E
0810
0010
3FF8
1010
0010
0010
0010
0010
ENDCHAR

STARTCHAR B2A7
ENCODING 45735
SWIDTH 960 0
DWIDTH 16 0
BBX 16 16 0 -4
BITMAP
0030
1110
FF94
111E
2110
2214
421E
8410
0810
1FF8
0010
1FF0
0800
0810
07F8
0000
ENDCHAR

STARTCHAR B2A8
ENCODING 45736
SWIDTH 960 0
DWIDTH 16 0
BBX 16 16 0 -4
BITMAP
0018
000C
1108
FF88
1108
1108
1108
22F8
2248
2208
4408
4408
8808
0808
1008
0008
ENDCHAR

STARTCHAR B2A9
ENCODING 45737
SWIDTH 960 0
DWIDTH 16 0
BBX 16 16 0 -4
BITMAP
0018
110C
FF88
1108
1108
22F8
2248
4408
8808
0008
1FFC
0808
0008
0008
0008
0008
ENDCHAR

STARTCHAR B2AA
ENCODING 45738
SWIDTH 960 0
DWIDTH 16 0
BBX 16 16 0 -4
BITMAP
0018
110C
FF88
1108
11F8
2248
2208
4408
8808
0108
1FFC
0948
0108
0108
0108
0108
ENDCHAR

STARTCHAR B2AB
ENCODING 45739
SWIDTH 960 0
DWIDTH 16 0
BBX 16 16 0 -4
BITMAP
0018
110C
FF88
1108
1108
22F8
2248
4408
8808
0008
1800
0800
0800
0808
07FC
0000
ENDCHAR

STARTCHAR B2AC
ENCODING 45740
SWIDTH 960 0
DWIDTH 16 0
BBX 16 16 0 -4
BITMAP
0018
110C
FF88
1108
1108
22F8
2248
4408
8808
0FFC
0008
0FF8
0400
0408
03FC
0000
ENDCHAR

STARTCHAR B2AD
ENCODING 45741
SWIDTH 960 0
DWIDTH 16 0
BBX 16 16 0 -4
BITMAP
0018
110C
FF88
1108
1108
22F8
2248
4408
8808
0008
1FFC
0808
0808
0808
0FFC
0800
ENDCHAR

STARTCHAR B2AE
ENCODING 45742
SWIDTH 960 0
DWIDTH 16 0
BBX 16 16 0 -4
BITMAP
0018
110C
FF88
1108
1108
22F8
2248
4408
8808
1818
0808
0FF8
0808
0808
0FF8
0808
ENDCHAR

STARTCHAR B2AF
ENCODING 45743
SWIDTH 960 0
DWIDTH 16 0
BBX 16 16 0 -4
BITMAP
0018
110C
FF88
1108
1108
22F8
2248
4408
8808
0108
0188
0100
0280
0440
0830
3018
ENDCHAR

STARTCHAR B2B0
ENCODING 45744
SWIDTH 960 0
DWIDTH 16 0
BBX 16 16 0 -4
BITMAP
0018
110C
FF88
1108
1108
22F8
2248
4408
8808
0428
0630
0420
0420
0A50
118C
6106
ENDCHAR

STARTCHAR B2B1
ENCODING 45745
SWIDTH 960 0
DWIDTH 16 0
BBX 16 16 0 -4
BITMAP
0018
110C
FF88
1108
1108
22F8
2248
4408
8808
0080
07F0
0808
0808
0808
07F0
0000
ENDCHAR

STARTCHAR B2B2
ENCODING 45746
SWIDTH 960 0
DWIDTH 16 0
BBX 16 16 0 -4
BITMAP
0018
00CC
1268
FF48
1248
1248
1248
23C8
2548
4448
4848
8848
1048
0048
0048
0008
ENDCHAR

STARTCHAR B2B3
ENCODING 45747
SWIDTH 960 0
DWIDTH 16 0
BBX 16 16 0 -4
BITMAP
0018
12CC
FF68
1248
2248
25C8
4448
8848
1048
0008
0FFC
0408
0008
0008
0008
0008
ENDCHAR

STARTCHAR B2B4
ENCODING 45748
SWIDTH 960 0
DWIDTH 16 0
BBX 16 16 0 -4
BITMAP
0018
12CC
FF68
1248
2248
25C8
4448
8848
1048
0048
1808
0800
0800
0804
07FE
0000
ENDCHAR

STARTCHAR B2B5
ENCODING 45749
SWIDTH 960 0
DWIDTH 16 0
BBX 16 16 0 -4
BITMAP
0018
12CC
FF68
1248
2248
25C8
4448
8848
1048
0008
1FFC
0808
0808
0808
0FFC
0800
ENDCHAR

STARTCHAR B2B6
ENCODING 45750
SWIDTH 960 0
DWIDTH 16 0
BBX 16 16 0 -4
BITMAP
0018
12CC
FF68
1248
1248
23C8
2448
4448
8848
1088
00C0
0080
00C0
0120
0218
0C0C
ENDCHAR

STARTCHAR B2B7
ENCODING 45751
SWIDTH 960 0
DWIDTH 16 0
BBX 16 16 0 -4
BITMAP
0018
12CC
FF68
1248
1248
23C8
2448
4448
8808
1080
07F0
0808
0808
0808
07F0
0000
ENDCHAR

STARTCHAR B2B8
ENCODING 45752
SWIDTH 960 0
DWIDTH 16 0
BBX 16 16 0 -4
BITMAP
0018
120C
FF08
1208
1208
12F8
2248
2408
2408
44F8
4848
8808
1008
0008
0008
0008
ENDCHAR

STARTCHAR B2B9
ENCODING 45753
SWIDTH 960 0
DWIDTH 16 0
BBX 16 16 0 -4
BITMAP
0018
120C
FF08
12F8
2248
2408
44F8
8848
1008
0008
1808
0800
0800
0804
07FE
0000
ENDCHAR

STARTCHAR B2BA
ENCODING 45754
SWIDTH 960 0
DWIDTH 16 0
BBX 16 16 0 -4
BITMAP
0018
120C
FF08
12F8
2248
2408
44F8
8848
1008
1FFC
0008
1FF8
0800
0808
07FC
0000
ENDCHAR

ENDFONT
